{"glyphs":{"0":{"ha":856,"x_min":25,"x_max":821,"o":"m 29 503 q 54 728 25 628 q 147 894 83 829 q 307 980 210 958 q 536 968 404 1001 q 563 959 549 965 q 589 951 578 953 q 655 942 618 949 q 717 917 692 935 q 740 883 729 907 q 756 843 750 858 q 808 622 794 735 q 811 394 821 510 q 801 288 807 342 q 776 185 796 233 q 638 15 729 69 q 425 -43 547 -40 q 269 -12 344 -44 q 131 88 193 21 q 82 183 101 132 q 51 288 63 233 q 35 396 40 342 q 29 503 31 450 m 431 75 q 500 142 475 101 q 538 228 525 182 q 553 323 550 274 q 558 418 557 372 q 550 634 563 524 q 499 840 538 744 q 475 815 486 831 q 454 781 464 799 q 438 746 444 764 q 425 713 431 728 q 401 578 401 647 q 401 439 400 508 q 397 346 403 393 q 388 252 390 299 q 394 160 386 206 q 431 75 401 115 z "},"1":{"ha":693,"x_min":21,"x_max":674,"o":"m 88 17 q 56 32 71 24 q 43 56 40 40 q 58 79 44 71 q 92 92 72 88 q 133 97 111 96 q 171 99 154 99 q 167 165 167 132 q 170 233 168 199 q 174 300 172 267 q 175 367 176 333 q 181 501 178 433 q 181 636 183 568 q 178 658 179 647 q 179 679 176 668 l 161 671 q 128 663 151 665 q 81 663 104 661 q 39 674 57 665 q 22 699 21 682 q 32 732 24 717 q 52 760 40 747 q 76 787 64 774 q 100 815 89 800 q 157 874 126 846 q 222 924 188 903 q 294 954 256 944 q 378 960 333 964 q 447 933 415 953 q 502 886 478 914 q 541 824 526 858 q 558 751 556 789 q 562 677 560 724 q 565 575 564 631 q 565 460 565 519 q 564 346 565 400 q 561 274 564 306 q 554 217 558 243 q 545 168 550 190 q 536 124 540 146 q 607 113 568 122 q 665 78 646 104 q 672 58 674 68 q 662 41 669 49 q 644 27 654 33 q 628 18 635 21 q 560 -3 599 6 q 477 -18 521 -12 q 387 -25 433 -24 q 297 -24 340 -26 q 189 -12 238 -21 q 88 17 140 -3 z "},"2":{"ha":900,"x_min":11,"x_max":878,"o":"m 288 767 q 314 709 289 733 q 363 660 339 685 q 378 643 375 653 q 378 623 381 633 q 366 603 375 613 q 347 590 357 594 q 290 572 324 578 q 223 568 257 567 q 158 575 189 569 q 108 590 126 581 q 54 629 81 604 q 19 686 28 654 q 71 840 11 776 q 227 942 139 914 q 414 978 315 971 q 500 978 458 981 q 586 965 542 976 q 681 932 629 954 q 778 876 733 910 q 850 799 822 843 q 874 696 878 754 q 826 533 867 610 q 718 401 785 456 q 675 372 697 385 q 631 347 653 360 q 588 320 610 335 q 547 285 567 306 q 513 241 528 261 q 484 200 497 221 q 458 156 471 179 q 429 103 444 132 q 524 104 481 92 q 618 143 568 117 q 688 165 654 161 q 747 160 721 168 q 790 134 774 151 q 810 96 807 117 q 799 55 813 72 q 767 26 786 38 q 687 -4 735 7 q 587 -20 639 -15 q 483 -22 535 -25 q 394 -8 432 -19 q 372 -2 383 -6 q 349 4 360 1 q 330 3 343 6 q 301 -1 317 1 q 268 -5 285 -3 q 242 -7 251 -7 q 210 -5 232 -7 q 168 4 189 -3 q 132 25 147 11 q 121 63 117 39 q 130 108 125 89 q 141 144 135 128 q 155 175 147 160 q 171 210 163 190 q 251 346 204 285 q 350 463 297 407 q 419 546 392 506 q 463 626 446 586 q 489 710 481 667 q 500 801 497 753 q 473 875 497 864 q 396 867 449 886 q 360 851 379 860 q 324 831 340 843 q 298 804 308 819 q 288 767 288 789 z "},"3":{"ha":856,"x_min":32,"x_max":818,"o":"m 104 421 q 126 435 110 431 q 160 439 142 439 q 196 435 179 439 q 221 425 213 431 q 229 409 232 417 q 226 390 226 401 q 253 253 226 307 q 350 156 281 200 q 392 200 369 171 q 421 253 414 229 q 427 299 425 271 q 428 358 429 328 q 423 414 428 388 q 410 454 418 440 q 374 456 399 454 q 326 463 350 457 q 283 481 301 469 q 268 510 265 492 q 295 547 269 522 q 353 606 321 571 q 413 682 385 640 q 447 771 440 724 q 426 853 454 818 q 398 863 417 860 q 360 867 379 867 q 324 863 340 867 q 303 854 307 860 q 297 835 294 843 q 306 820 300 828 q 319 803 313 813 q 326 779 326 793 q 308 740 326 750 q 279 729 290 731 q 219 725 244 725 q 172 730 193 725 q 128 745 150 735 q 78 771 106 756 q 40 819 49 793 q 41 872 32 846 q 74 918 50 897 q 135 950 99 939 q 258 973 199 969 q 385 974 318 976 q 435 974 410 972 q 486 969 461 975 q 572 949 528 961 q 650 913 615 936 q 706 856 685 890 q 725 768 728 821 q 691 651 722 704 q 615 553 660 597 q 685 520 656 539 q 751 478 715 501 q 773 446 763 465 q 792 406 783 426 q 806 365 800 385 q 813 329 811 344 q 795 207 818 263 q 731 109 772 151 q 633 38 689 67 q 517 -1 576 10 q 425 -13 469 -11 q 335 -12 381 -15 q 278 -4 315 -11 q 201 17 242 3 q 122 53 160 31 q 61 107 83 75 q 35 183 38 140 q 43 269 33 225 q 70 353 53 313 q 104 421 88 393 z "},"4":{"ha":878,"x_min":17,"x_max":817,"o":"m 411 296 q 422 357 415 328 q 432 418 428 386 q 450 453 432 440 q 485 474 468 465 q 565 492 511 486 q 672 494 618 499 q 768 469 726 489 q 814 411 810 450 q 811 342 817 389 q 800 244 806 296 q 792 148 794 193 q 796 83 789 103 q 802 70 799 76 q 808 57 806 64 q 804 38 810 47 q 790 22 799 29 q 771 8 781 14 q 754 0 761 3 q 682 -17 722 -11 q 600 -22 642 -24 q 519 -9 558 -19 q 450 22 479 1 q 434 35 443 28 q 422 50 425 42 q 403 124 407 90 q 400 199 399 157 q 323 187 371 192 q 225 185 275 182 q 130 200 175 188 q 60 242 85 213 q 28 296 40 265 q 24 358 17 326 q 44 445 28 392 q 83 561 60 499 q 135 690 107 624 q 192 813 164 756 q 247 913 221 869 q 294 972 274 956 q 338 993 311 985 q 394 1005 364 1001 q 455 1008 425 1008 q 506 1004 485 1007 q 545 997 521 1001 q 592 983 569 992 q 631 960 615 974 q 646 926 647 946 q 638 890 644 907 q 621 856 631 872 q 601 822 611 839 q 582 789 590 806 q 528 671 554 731 q 471 553 501 611 q 398 415 435 483 q 308 289 361 347 q 359 294 333 293 q 411 296 385 296 z "},"5":{"ha":836,"x_min":22,"x_max":818,"o":"m 354 178 q 419 252 392 207 q 449 335 446 297 q 453 389 451 360 q 454 445 456 418 q 444 495 453 472 q 418 532 436 518 q 325 510 372 521 q 231 494 278 499 q 139 496 185 489 q 49 529 93 503 q 30 545 38 536 q 24 568 22 554 q 33 610 26 590 q 47 649 39 629 q 63 689 56 668 q 78 735 71 710 q 99 835 90 786 q 132 928 107 883 q 172 956 146 946 q 226 972 197 967 q 285 976 256 976 q 335 974 314 976 q 365 965 350 971 q 396 958 381 958 q 510 956 456 960 q 624 953 564 951 q 688 940 657 950 q 718 904 718 931 q 706 883 718 890 q 683 871 694 875 q 629 859 658 861 q 569 859 600 857 q 510 867 539 861 q 456 878 481 872 q 447 842 450 863 q 442 806 444 822 q 424 727 435 765 q 401 650 413 689 q 488 646 449 650 q 565 630 528 642 q 635 597 601 618 q 706 543 669 576 q 758 483 735 515 q 797 416 782 451 q 815 342 811 381 q 806 263 818 304 q 748 151 789 200 q 653 70 707 103 q 535 21 599 38 q 411 4 472 4 q 289 13 346 4 q 169 44 232 21 q 105 94 133 63 q 60 161 76 125 q 42 235 44 197 q 56 307 40 274 q 107 364 71 340 q 203 396 143 388 q 228 398 213 397 q 259 396 244 399 q 286 388 274 393 q 303 371 299 382 q 305 353 307 363 q 300 335 303 344 q 294 317 297 326 q 292 299 290 308 q 306 229 294 263 q 354 178 318 196 z "},"6":{"ha":746,"x_min":24,"x_max":699,"o":"m 450 769 q 423 687 436 729 q 403 600 410 644 q 559 572 488 610 q 667 453 631 535 q 693 339 689 401 q 699 211 697 276 q 695 153 699 182 q 682 99 692 125 q 655 51 672 72 q 611 18 638 31 q 506 -21 565 -8 q 385 -31 446 -33 q 266 -10 324 -28 q 167 42 208 8 q 90 137 119 79 q 45 260 61 194 q 26 391 29 325 q 31 511 24 457 q 55 628 38 571 q 96 742 72 685 q 117 790 104 764 q 144 842 129 817 q 177 889 158 867 q 217 924 196 911 q 295 965 256 947 q 381 986 335 982 q 481 987 429 992 q 572 967 533 982 q 601 955 586 961 q 628 940 615 949 q 650 917 640 931 q 664 883 660 904 q 643 817 672 840 q 622 808 636 810 q 594 809 608 807 q 569 817 581 811 q 557 835 558 824 q 542 866 551 850 q 521 892 533 882 q 494 866 506 882 q 474 832 482 850 q 460 797 465 814 q 450 769 454 781 m 393 538 q 383 394 381 460 q 403 253 386 329 l 403 254 q 422 208 411 231 q 443 163 432 186 q 483 209 469 182 q 501 268 496 236 q 507 333 507 300 q 507 399 507 367 q 498 439 507 415 q 474 484 489 463 q 438 521 458 506 q 393 538 417 536 z "},"7":{"ha":767,"x_min":18,"x_max":738,"o":"m 60 785 q 22 838 26 808 q 47 889 18 868 q 115 918 82 908 q 182 931 149 928 q 352 935 271 936 q 525 938 433 933 q 622 928 575 936 q 708 893 669 919 q 727 870 722 883 q 733 841 732 857 q 732 809 733 825 q 733 779 731 793 q 736 724 735 754 q 735 664 738 694 q 728 604 733 633 q 710 553 722 575 q 675 523 701 539 q 617 492 649 507 q 557 466 586 478 q 517 449 528 454 q 483 424 497 439 q 454 393 468 410 q 519 385 485 389 q 578 363 553 382 q 588 353 583 358 q 592 340 592 347 q 583 322 592 329 q 560 309 574 314 q 528 302 546 304 q 494 300 511 300 q 467 301 478 300 q 446 303 456 301 q 427 306 436 304 q 404 308 418 307 q 365 218 379 258 q 342 126 351 178 q 334 76 339 106 q 318 26 329 46 q 273 0 307 8 q 201 -6 239 -8 q 132 8 163 -4 q 100 42 101 19 q 105 108 97 71 q 125 186 113 146 q 151 264 138 226 q 176 331 165 301 q 153 335 168 332 q 120 342 138 339 q 85 350 103 346 q 56 358 68 354 q 35 378 40 364 q 53 396 31 392 q 91 402 68 401 q 137 402 114 403 q 179 400 160 401 q 208 399 199 399 q 257 473 233 444 q 321 529 281 501 q 343 558 342 544 q 347 597 344 572 q 349 637 349 611 q 351 691 350 663 q 352 747 351 719 q 354 792 353 775 q 309 794 329 792 q 271 798 289 796 q 234 801 253 800 q 193 803 215 803 q 202 790 197 799 q 209 772 207 781 q 208 757 211 764 q 194 749 206 750 q 151 747 168 746 q 119 751 133 747 q 91 763 104 756 q 60 785 78 771 z "},"8":{"ha":817,"x_min":31,"x_max":789,"o":"m 690 164 q 681 85 700 121 q 622 22 661 49 q 530 -20 583 -4 q 421 -40 476 -36 q 311 -35 365 -44 q 217 -1 257 -25 q 155 64 176 24 q 142 163 133 104 q 167 278 150 221 q 226 379 185 336 q 210 390 222 381 q 184 411 197 400 q 160 433 171 422 q 146 446 149 443 q 60 562 88 500 q 31 684 32 624 q 55 799 31 744 q 124 894 79 854 q 233 956 169 935 q 375 968 297 976 q 422 993 389 985 q 496 1001 454 1001 q 583 993 538 1001 q 668 969 628 985 q 739 931 708 954 q 781 879 769 908 q 786 865 783 872 q 789 851 789 858 q 774 793 789 825 q 746 739 758 761 q 690 649 715 685 q 639 585 665 614 q 582 526 613 556 q 510 458 551 497 q 550 385 522 421 q 607 315 578 350 q 660 242 636 279 q 690 164 683 206 m 524 879 q 478 826 501 853 q 435 771 454 799 q 417 728 422 753 q 413 678 411 704 q 421 627 414 653 q 440 581 428 601 q 494 637 467 604 q 538 704 521 669 q 554 794 560 749 q 524 879 549 839 m 353 268 q 339 222 347 250 q 338 143 331 193 q 351 96 340 119 q 382 61 361 72 q 420 85 401 69 q 433 126 439 101 q 403 201 425 165 q 353 268 381 236 z "},"9":{"ha":764,"x_min":21,"x_max":731,"o":"m 447 290 q 466 342 457 319 q 481 388 475 365 q 491 433 488 410 q 496 489 494 457 q 393 419 450 442 q 277 399 336 396 q 163 431 218 401 q 67 519 107 461 q 31 597 42 554 q 22 686 21 640 q 34 777 24 732 q 61 863 44 822 q 125 937 81 908 q 224 980 169 965 q 339 998 279 994 q 449 996 399 1001 q 601 931 540 986 q 693 792 661 875 q 722 678 713 743 q 729 543 731 614 q 715 399 728 472 q 681 260 703 326 q 624 140 658 194 q 546 53 590 86 q 461 10 506 24 q 327 -11 394 -11 q 200 6 260 -11 q 114 51 149 21 q 63 144 79 82 q 58 219 53 181 q 67 265 61 236 q 82 308 74 294 q 115 332 90 322 q 171 346 139 342 q 236 348 203 350 q 297 339 269 346 q 342 319 325 332 q 357 288 360 306 q 351 250 354 271 q 347 207 349 229 q 344 164 344 185 q 350 128 344 143 q 376 159 363 140 q 403 199 390 178 q 428 244 417 221 q 447 290 439 268 m 319 696 q 334 606 315 636 q 381 565 353 575 q 442 557 410 554 q 497 567 474 560 q 500 617 494 596 q 503 668 506 639 q 497 734 501 694 q 481 810 492 774 q 451 874 469 847 q 406 901 433 901 q 363 872 379 892 q 338 824 347 851 q 325 764 329 797 q 319 696 321 731 z "},"\u0000":{"ha":0,"x_min":0,"x_max":0,"o":""},"\r":{"ha":544,"x_min":0,"x_max":0,"o":""}," ":{"ha":408,"x_min":0,"x_max":0,"o":""},"%":{"ha":1594,"x_min":54,"x_max":1525,"o":"m 750 36 q 710 8 735 18 q 658 -7 686 -3 q 601 -10 629 -11 q 551 -7 574 -10 q 518 -1 538 -6 q 481 10 499 3 q 449 31 463 18 q 435 60 436 43 q 446 103 435 69 q 472 173 457 136 q 500 242 486 210 q 518 286 514 275 q 555 376 538 331 q 592 468 572 422 q 692 683 642 576 q 813 888 743 790 q 831 922 822 903 q 854 949 839 940 q 935 976 888 965 q 1033 985 983 986 q 1127 969 1082 983 q 1199 924 1172 956 q 1198 873 1213 907 q 1157 797 1183 839 q 1101 711 1131 756 q 1058 629 1072 667 q 969 449 1014 539 q 875 271 924 358 q 843 209 858 242 q 813 144 828 176 q 782 84 797 113 q 750 36 767 56 m 1354 458 q 1449 422 1411 453 q 1506 347 1488 392 q 1525 249 1525 303 q 1506 145 1525 196 q 1449 51 1486 94 q 1356 -17 1411 7 q 1280 -37 1314 -35 q 1201 -40 1246 -39 q 1085 -19 1142 -42 q 988 42 1029 3 q 926 136 947 82 q 917 253 906 190 q 942 324 924 286 q 988 396 961 361 q 1047 458 1015 431 q 1111 496 1079 485 q 1150 507 1129 503 q 1193 513 1171 511 q 1283 506 1239 515 q 1354 458 1328 497 m 556 953 q 669 876 643 933 q 679 733 696 818 q 649 648 671 689 q 592 582 628 607 q 522 545 567 558 q 426 528 478 532 q 318 531 374 525 q 215 552 263 536 q 131 593 167 568 q 83 654 96 618 q 61 739 68 696 q 68 825 54 782 q 117 924 86 883 q 206 988 147 964 q 286 1007 236 1000 q 388 1012 336 1014 q 486 996 440 1010 q 556 953 532 982 m 1281 365 q 1255 331 1268 349 q 1231 293 1242 313 q 1215 253 1221 274 q 1210 208 1208 232 q 1219 149 1211 175 q 1247 86 1226 122 q 1289 138 1271 110 q 1311 200 1307 167 q 1313 288 1318 242 q 1281 365 1308 333 m 394 714 q 394 669 392 690 q 413 638 397 649 q 442 670 429 649 q 464 717 456 692 q 474 770 472 743 q 471 818 476 797 q 469 831 469 824 q 467 845 468 839 q 460 855 465 851 q 446 857 456 858 q 411 789 422 818 q 394 714 400 760 z "},"&":{"ha":1036,"x_min":38,"x_max":1004,"o":"m 906 -126 q 844 -117 875 -129 q 785 -84 814 -104 q 730 -40 756 -64 q 685 3 704 -17 q 544 -34 614 -19 q 399 -46 474 -49 q 319 -40 365 -44 q 228 -23 274 -35 q 140 7 182 -11 q 74 54 99 25 q 42 121 46 85 q 47 193 38 157 q 77 263 57 229 q 118 324 97 296 q 158 371 131 339 q 219 437 186 403 q 281 500 251 471 q 324 538 310 529 q 287 628 307 575 q 254 737 267 681 q 243 846 242 793 q 274 935 244 899 q 315 977 294 961 q 360 1001 335 993 q 420 1008 386 1008 q 503 1004 454 1008 q 626 979 564 999 q 738 925 689 960 q 815 838 788 890 q 831 714 842 786 q 793 617 814 657 q 744 542 772 576 q 683 476 717 508 q 608 403 650 444 q 659 314 632 357 q 714 226 686 271 q 731 256 724 244 q 742 276 738 267 q 750 297 747 285 q 757 328 753 308 q 772 376 764 353 q 790 407 779 400 q 824 420 804 415 q 867 426 844 425 q 910 424 889 428 q 949 411 932 421 q 996 349 988 388 q 992 269 1004 310 q 965 210 983 239 q 923 156 946 182 q 874 110 900 131 q 825 74 849 89 q 869 17 847 44 q 915 -37 892 -11 q 933 -62 925 -47 q 943 -92 942 -78 q 936 -117 944 -107 q 906 -126 928 -128 m 579 121 q 528 188 553 154 q 478 256 503 221 q 453 218 465 239 q 433 175 440 197 q 428 131 425 153 q 450 90 431 108 q 478 85 463 83 q 510 94 493 88 q 544 108 526 100 q 579 121 563 115 m 507 833 q 503 869 507 850 q 485 894 499 888 q 475 865 478 883 q 472 824 472 846 q 473 783 471 803 q 479 750 475 763 q 499 785 492 764 q 507 833 507 807 z "},"'":{"ha":425,"x_min":71,"x_max":367,"o":"m 301 700 q 252 681 283 688 q 188 677 221 675 q 124 688 154 679 q 81 717 94 697 q 72 745 74 726 q 72 784 71 764 q 76 822 74 804 q 81 850 79 840 l 89 913 q 94 949 92 933 q 103 976 96 965 q 125 994 111 986 q 164 1006 139 1001 q 213 1011 185 1010 q 268 1010 240 1013 q 320 997 296 1007 q 360 968 344 988 q 366 942 365 960 q 365 903 367 924 q 360 866 363 883 q 356 842 357 849 q 350 806 354 826 q 340 765 346 785 q 324 727 333 744 q 301 700 314 710 z "},"(":{"ha":699,"x_min":69,"x_max":669,"o":"m 482 761 q 438 519 446 643 q 446 276 429 394 q 469 142 457 199 q 497 42 482 86 q 528 -36 511 -1 q 568 -106 546 -71 q 576 -163 590 -142 q 531 -187 561 -185 q 488 -192 511 -192 q 439 -190 464 -193 q 392 -178 414 -186 q 354 -157 369 -169 q 326 -130 339 -143 q 297 -103 313 -117 q 242 -51 265 -72 q 199 -6 218 -29 q 161 44 179 17 q 122 115 143 72 q 99 190 108 144 q 82 285 89 236 q 72 381 75 335 q 71 460 69 428 q 79 571 72 514 q 101 681 86 628 q 160 837 124 757 q 251 983 197 917 q 376 1091 306 1049 q 538 1133 447 1133 q 569 1132 551 1133 q 606 1126 588 1131 q 639 1115 624 1122 q 663 1094 654 1107 q 661 1069 669 1081 q 639 1049 653 1058 q 587 996 610 1029 q 545 923 564 963 q 511 841 526 883 q 482 761 496 799 z "},")":{"ha":668,"x_min":67,"x_max":611,"o":"m 226 1149 q 310 1129 272 1147 q 378 1082 347 1111 q 434 1016 410 1053 q 476 942 458 979 q 553 747 522 846 q 597 547 583 647 q 605 342 611 446 q 569 135 599 239 q 536 38 557 86 q 488 -55 515 -11 q 423 -135 460 -99 q 342 -197 386 -172 q 304 -206 329 -203 q 251 -210 279 -210 q 193 -208 222 -211 q 141 -197 164 -206 q 106 -175 118 -189 q 100 -140 94 -161 q 133 -72 111 -104 q 169 -4 154 -40 q 215 140 196 57 q 241 314 233 222 q 245 501 249 406 q 224 685 242 597 q 203 787 213 740 q 181 876 193 833 q 152 960 168 918 q 113 1051 136 1003 q 77 1074 88 1061 q 68 1097 67 1086 q 80 1118 69 1108 q 106 1135 90 1128 q 165 1148 136 1146 q 226 1149 193 1150 z "},"*":{"ha":706,"x_min":68,"x_max":636,"o":"m 69 953 q 78 969 71 964 q 96 979 86 975 q 148 990 122 990 q 199 983 174 990 q 248 963 224 975 q 294 938 272 951 q 317 963 306 950 q 343 988 329 976 q 378 1004 354 997 q 431 1014 403 1011 q 490 1015 460 1017 q 544 1008 521 1014 q 581 989 568 1001 q 590 958 594 976 q 556 900 582 926 q 510 843 529 874 q 539 844 518 843 q 582 842 560 844 q 620 833 604 840 q 635 811 636 826 q 626 796 633 801 q 611 788 618 790 q 583 781 600 783 q 549 776 567 778 q 513 772 531 774 q 486 769 496 771 q 510 749 497 760 q 538 732 524 739 q 578 718 556 724 q 613 694 600 713 q 615 677 619 685 q 603 664 611 669 q 561 649 586 651 q 510 648 536 646 q 458 657 483 650 q 414 672 432 664 q 370 635 392 650 q 318 613 349 619 q 272 607 303 608 q 208 609 240 606 q 152 624 176 613 q 128 657 128 635 q 137 678 128 663 q 158 710 146 693 q 183 744 171 728 q 199 768 194 760 q 105 781 136 768 q 74 808 74 793 q 106 835 74 824 q 203 844 139 846 q 165 876 188 863 q 120 903 142 890 q 83 927 99 915 q 69 953 68 939 z "},"+":{"ha":999,"x_min":60,"x_max":946,"o":"m 322 382 q 290 385 311 383 q 242 388 268 386 q 189 393 217 390 q 138 403 161 396 q 95 424 110 410 q 74 450 81 439 q 78 487 60 474 q 127 506 97 500 q 188 513 157 513 q 231 513 218 514 l 318 500 q 317 535 318 510 q 317 590 317 561 q 320 642 318 618 q 326 671 322 665 q 371 703 339 690 q 443 723 403 717 q 527 728 483 729 q 608 719 571 728 q 670 693 644 710 q 700 651 696 676 q 707 579 706 617 q 706 506 708 542 q 751 508 731 507 q 789 508 771 508 q 826 506 807 508 q 868 499 844 504 q 910 485 892 493 q 938 461 928 476 q 940 435 946 447 q 922 415 935 422 q 855 388 882 393 q 805 384 828 383 q 760 385 782 385 q 710 375 739 386 q 709 303 710 339 q 701 232 708 268 q 666 187 696 204 q 594 162 636 169 q 506 156 553 154 q 419 167 458 157 q 352 195 379 178 q 324 238 325 213 q 322 310 321 274 q 322 382 322 346 z "},",":{"ha":535,"x_min":69,"x_max":464,"o":"m 461 115 q 460 53 464 85 q 446 -9 457 21 q 416 -65 435 -39 q 371 -108 397 -90 q 343 -124 360 -118 q 308 -134 326 -131 q 271 -138 289 -137 q 239 -136 253 -139 q 224 -133 233 -135 q 206 -126 214 -131 q 193 -116 197 -122 q 194 -101 189 -110 q 213 -77 201 -90 q 235 -49 224 -64 q 254 -18 246 -35 q 265 17 263 -1 q 217 18 246 17 q 160 26 188 19 q 108 44 132 32 q 76 76 85 57 q 72 106 69 90 q 82 135 75 121 q 99 165 89 150 q 117 190 108 179 q 162 217 135 207 q 218 231 189 226 q 276 235 247 235 q 326 232 304 235 q 376 222 353 229 q 418 200 400 214 q 447 165 436 186 q 461 115 458 144 z "},"-":{"ha":719,"x_min":71,"x_max":660,"o":"m 119 401 q 86 421 99 407 q 72 449 74 435 q 81 477 71 464 q 115 496 92 490 q 198 515 149 508 q 300 525 247 522 q 402 526 353 528 q 488 517 451 524 q 527 509 496 515 q 590 492 558 503 q 640 463 621 481 q 642 422 660 446 q 600 393 628 403 q 478 368 540 369 q 358 379 417 367 q 306 385 336 383 q 244 387 276 386 q 180 390 213 388 q 119 401 147 393 z "},".":{"ha":585,"x_min":67,"x_max":515,"o":"m 515 126 q 487 63 515 88 q 415 24 458 38 q 319 9 372 11 q 219 16 267 7 q 133 43 171 25 q 81 88 94 61 q 73 146 67 114 q 103 196 79 178 q 203 247 144 232 q 317 247 263 261 q 376 234 342 240 q 441 216 410 228 q 494 183 472 204 q 515 126 515 161 z "},"/":{"ha":754,"x_min":19,"x_max":728,"o":"m 242 500 q 329 765 278 635 q 439 1021 381 894 q 501 1054 456 1043 q 594 1064 546 1065 q 683 1047 643 1063 q 726 1000 722 1031 q 717 965 728 993 q 694 908 706 936 q 631 706 658 808 q 572 503 604 604 q 528 354 550 428 q 478 206 506 281 q 449 144 467 174 q 414 84 431 114 q 385 24 397 54 q 372 -39 374 -7 q 354 -80 371 -62 q 310 -107 338 -97 q 246 -120 282 -117 q 172 -121 210 -124 q 108 -112 139 -118 q 57 -94 78 -106 q 28 -62 36 -82 q 29 -14 19 -43 q 83 124 53 56 q 144 258 114 193 q 201 385 175 324 q 242 500 226 446 z "},":":{"ha":533,"x_min":75,"x_max":465,"o":"m 79 317 q 92 351 83 335 q 113 374 100 367 l 140 389 q 200 403 160 399 q 284 406 240 408 q 367 392 328 403 q 425 360 406 381 q 449 324 439 344 q 462 283 458 304 q 458 242 465 261 q 432 208 451 222 q 367 183 407 192 q 285 175 328 175 q 203 183 242 175 q 139 208 164 192 q 112 228 125 218 q 90 251 99 239 q 78 280 82 264 q 79 317 75 296 m 114 704 q 183 728 140 721 q 271 735 225 736 q 360 725 317 735 q 431 697 403 715 q 449 677 444 688 q 453 656 454 667 q 448 632 453 644 q 438 607 443 619 q 414 568 428 585 q 381 549 400 551 q 342 538 367 542 q 288 532 318 533 q 227 533 258 531 q 169 541 196 535 q 123 558 142 547 q 100 586 104 569 q 92 617 96 600 q 87 649 88 633 q 92 679 86 665 q 114 704 97 693 z "},";":{"ha":525,"x_min":64,"x_max":456,"o":"m 403 132 q 357 51 385 85 q 281 -4 329 18 q 207 -24 247 -19 q 131 -18 167 -29 q 97 5 103 -11 q 119 28 92 21 q 158 47 143 40 q 185 74 174 54 q 213 124 201 101 q 228 176 225 147 q 188 183 214 178 q 135 196 161 188 q 91 217 110 204 q 72 250 72 231 q 75 292 72 271 q 78 333 78 313 q 85 351 78 343 q 103 364 93 358 q 125 374 114 369 q 144 381 136 378 q 201 395 171 390 q 263 400 232 400 q 324 394 294 400 q 381 376 354 388 q 430 328 418 360 q 438 261 442 297 q 423 190 435 225 q 403 132 411 154 m 78 688 q 115 717 88 704 q 176 735 142 729 q 251 742 211 742 q 328 735 292 742 q 396 714 365 728 q 443 678 426 700 q 451 658 449 671 q 454 631 453 644 q 456 603 456 617 q 456 582 456 590 q 428 540 456 557 q 360 515 401 524 q 271 505 319 506 q 181 512 222 504 q 110 535 139 519 q 79 575 82 550 q 70 633 76 603 q 78 688 64 664 z "},"<":{"ha":907,"x_min":71,"x_max":836,"o":"m 465 117 q 286 256 379 192 q 94 382 193 321 q 76 402 81 390 q 73 426 71 414 q 83 450 75 439 q 101 468 90 461 q 165 528 132 500 q 229 588 197 557 q 268 624 246 604 q 313 667 290 644 q 358 713 336 689 q 394 764 379 738 q 459 810 410 792 q 565 834 508 829 q 674 828 622 839 q 749 783 726 817 q 758 755 758 769 q 751 726 757 740 q 735 699 744 713 q 718 675 726 686 q 659 609 696 646 q 583 536 622 572 q 508 469 543 500 q 457 421 474 439 q 535 363 486 399 q 638 288 585 326 q 740 213 692 249 q 815 157 789 178 q 833 132 829 146 q 832 106 836 118 q 817 83 828 93 q 793 68 807 74 q 711 46 758 50 q 625 46 664 42 q 547 65 589 50 q 465 117 506 81 z "},"=":{"ha":860,"x_min":65,"x_max":813,"o":"m 292 203 q 209 203 254 203 q 128 210 164 203 q 93 228 107 214 q 75 260 79 243 q 78 297 71 278 q 104 328 85 315 q 126 344 115 336 q 149 357 136 351 q 181 367 163 363 q 228 372 200 371 q 338 376 274 375 q 467 376 403 376 q 589 377 532 376 q 676 381 646 378 q 743 369 711 383 q 794 331 775 354 q 811 281 813 308 q 779 232 810 254 q 723 211 760 218 q 640 201 686 204 q 543 197 594 197 q 444 199 492 197 q 356 201 396 200 q 292 203 315 203 m 285 525 q 222 524 251 525 q 167 526 193 522 q 121 541 142 529 q 85 579 100 553 q 78 640 65 613 q 125 676 92 668 q 244 708 179 701 q 376 713 310 715 q 505 707 443 711 q 613 706 567 703 q 719 688 676 710 q 775 635 761 665 q 771 577 789 606 q 696 540 753 549 q 588 530 649 533 q 469 525 528 526 q 360 524 410 524 q 285 525 311 525 z "},">":{"ha":833,"x_min":71,"x_max":765,"o":"m 96 731 q 75 753 79 740 q 74 780 71 767 q 88 804 78 793 q 114 821 99 815 q 219 844 167 839 q 335 840 272 850 q 382 826 360 835 q 421 806 404 818 q 514 743 460 775 q 619 674 568 711 q 710 593 671 638 q 761 494 750 549 q 760 453 765 472 q 747 415 756 435 q 727 383 743 407 q 691 333 711 360 q 653 283 671 307 q 628 253 635 260 q 558 181 593 217 q 488 108 522 146 q 447 72 468 88 q 396 50 425 56 q 341 44 379 46 q 263 49 303 43 q 194 69 224 54 q 167 110 164 83 q 181 141 168 121 q 206 181 194 161 q 263 281 229 221 q 339 396 296 340 q 370 439 357 418 q 383 482 383 460 q 361 535 383 513 q 315 578 339 558 q 207 659 261 622 q 96 731 153 696 z "},"?":{"ha":890,"x_min":38,"x_max":842,"o":"m 783 471 q 713 373 751 419 q 631 281 674 326 q 597 244 611 258 q 556 218 583 229 q 448 192 500 194 q 338 204 396 190 q 282 226 303 213 q 253 276 261 240 q 266 308 251 285 q 306 362 281 331 q 361 429 331 393 q 421 499 392 465 q 474 563 450 533 q 508 613 497 593 q 531 645 518 631 q 553 674 543 660 q 569 705 564 689 q 571 742 575 721 q 535 828 564 786 q 463 889 507 869 q 419 865 439 876 q 385 841 400 854 q 360 810 369 828 q 350 768 351 793 q 356 726 349 747 q 374 686 363 706 q 399 648 385 667 q 425 611 413 629 q 429 582 436 596 q 408 558 422 568 q 346 533 385 542 q 265 526 307 525 q 183 536 222 526 q 122 567 144 546 q 65 632 93 594 q 42 714 38 669 q 47 763 40 739 q 71 813 54 786 q 199 930 118 885 q 372 990 281 975 q 556 988 464 1004 q 719 921 649 971 q 799 833 768 885 q 835 718 829 781 q 832 597 842 660 q 783 471 822 533 m 546 122 q 595 86 590 106 q 586 51 600 67 q 551 26 572 36 q 521 19 529 17 q 499 15 518 21 q 451 1 479 8 q 388 -12 422 -7 q 319 -15 353 -17 q 255 1 285 -12 q 207 47 225 15 q 225 101 188 79 q 300 132 260 121 q 383 146 340 143 q 467 142 425 149 q 546 122 508 136 z "},"@":{"ha":1364,"x_min":50,"x_max":1313,"o":"m 242 431 q 238 272 226 350 q 297 129 249 194 q 394 48 343 76 q 501 6 446 19 q 615 -10 557 -8 q 733 -10 674 -11 q 919 21 825 -7 q 1101 89 1013 49 q 1132 97 1117 96 q 1163 99 1147 99 q 1195 94 1175 99 q 1231 81 1215 89 q 1252 64 1247 74 q 1239 43 1257 54 q 1048 -37 1147 -10 q 843 -79 949 -65 q 726 -89 785 -86 q 611 -86 668 -92 q 427 -58 521 -78 q 255 5 333 -37 q 123 117 176 47 q 58 294 69 188 q 69 453 50 374 q 136 615 92 540 q 250 749 181 690 q 334 808 290 782 q 426 853 378 833 q 888 913 651 943 q 995 891 940 906 q 1100 852 1050 876 q 1193 793 1150 828 q 1265 711 1236 758 q 1311 574 1310 640 q 1294 438 1313 508 q 1265 358 1283 397 q 1217 288 1246 318 q 1152 238 1189 257 q 1069 218 1115 218 q 974 224 1022 215 q 894 257 926 233 q 879 269 886 263 q 865 282 872 275 q 811 255 842 265 q 747 239 781 244 q 681 233 714 233 q 621 235 649 232 q 571 245 601 236 q 510 267 540 254 q 456 297 481 281 q 421 331 431 313 q 417 528 369 428 q 466 594 435 567 q 535 638 497 621 q 615 662 574 654 q 696 669 657 669 q 732 667 713 669 q 771 660 751 665 q 808 648 790 656 q 838 628 825 640 q 893 649 865 643 q 953 653 921 654 q 983 650 964 653 q 1024 642 1003 647 q 1061 629 1044 638 q 1082 608 1078 621 q 1094 553 1092 582 q 1096 494 1096 524 q 1097 436 1096 465 q 1103 379 1097 407 q 1138 469 1128 417 q 1141 578 1149 522 q 1107 687 1133 635 q 1032 772 1081 739 q 900 829 975 813 q 747 842 825 846 q 592 815 668 839 q 456 751 515 792 q 317 610 374 696 q 242 431 261 524 m 815 474 q 815 497 815 485 q 814 521 814 510 q 799 535 807 529 q 782 549 790 542 q 728 472 742 513 q 731 376 715 432 q 753 383 742 372 q 776 410 765 393 q 797 444 786 426 q 815 474 807 463 z "},"A":{"ha":965,"x_min":58,"x_max":894,"o":"m 400 254 q 406 210 401 239 q 415 149 411 181 q 423 90 419 118 q 426 50 426 63 q 394 9 426 24 q 315 -10 361 -6 q 219 -7 269 -14 q 135 17 169 0 q 106 53 110 29 q 96 100 101 78 q 63 382 68 240 q 85 663 58 524 q 147 811 100 744 q 261 924 194 878 q 366 971 304 956 q 493 984 428 986 q 621 965 558 982 q 728 915 683 947 q 808 832 775 881 q 861 728 842 783 q 890 576 886 653 q 893 419 893 500 q 893 340 893 383 q 894 253 893 297 q 894 165 894 208 q 894 82 894 121 q 892 52 894 67 q 874 32 890 38 q 773 -1 826 -3 q 671 28 719 0 q 643 63 647 42 q 642 107 639 83 l 642 303 q 518 314 579 303 q 390 325 457 325 l 400 254 m 386 390 q 440 398 407 397 q 510 397 474 399 q 581 393 547 396 q 639 390 615 390 q 632 514 635 449 q 618 643 629 579 q 580 763 607 707 q 500 860 553 819 q 438 758 461 815 q 401 640 414 701 q 386 514 389 578 q 386 390 383 450 z "},"B":{"ha":972,"x_min":71,"x_max":946,"o":"m 117 942 q 163 962 140 956 q 218 971 185 968 q 256 972 231 972 q 310 969 281 972 q 369 958 339 965 q 420 940 399 951 q 452 913 442 929 q 454 874 463 896 q 476 903 467 889 q 494 929 485 917 q 514 952 503 942 q 540 971 525 963 q 602 997 576 989 q 652 1004 628 1004 q 703 997 676 1004 q 767 979 729 989 q 849 941 808 968 q 903 868 889 914 q 913 811 911 843 q 912 749 915 779 q 899 690 908 718 q 875 646 889 663 q 829 600 853 619 q 781 564 806 581 q 730 531 756 547 q 676 497 704 515 q 789 445 738 483 q 876 356 840 407 q 928 249 911 306 q 937 141 946 192 q 891 52 928 90 q 783 1 854 14 q 719 -8 751 -4 q 656 -10 688 -12 q 533 15 592 -4 q 426 81 474 33 q 382 40 415 53 q 308 24 349 28 q 228 23 267 19 q 167 32 189 26 q 114 53 140 39 q 82 96 88 67 q 75 195 72 146 q 81 294 78 244 q 83 574 89 432 q 72 854 78 717 q 71 892 71 879 q 75 913 71 906 q 89 925 79 919 q 117 942 99 931 m 694 244 q 674 294 688 265 q 642 352 661 324 q 601 403 624 381 q 553 435 578 426 q 515 429 533 440 q 471 414 497 418 q 470 324 471 369 q 464 233 469 278 q 514 208 492 226 q 556 169 536 190 q 582 142 567 156 q 612 118 597 129 q 640 99 626 107 q 661 86 653 90 q 703 153 697 110 q 694 244 708 197 m 564 633 q 581 733 572 676 q 583 843 589 790 q 517 733 542 793 q 467 614 492 672 q 469 566 468 590 q 469 518 469 542 q 503 540 488 529 q 531 563 519 550 q 551 593 543 576 q 564 633 560 610 z "},"C":{"ha":950,"x_min":46,"x_max":931,"o":"m 579 386 q 603 433 576 415 q 667 457 629 450 q 748 463 706 464 q 821 451 790 461 q 873 420 850 442 q 897 368 896 399 q 886 322 899 343 q 854 286 874 301 q 828 174 843 226 q 769 76 814 121 q 613 -11 703 10 q 506 -21 563 -22 q 394 -7 450 -19 q 288 28 339 6 q 194 83 236 51 q 166 107 182 93 q 134 138 150 121 q 106 171 118 154 q 88 203 93 188 q 64 292 74 239 q 50 403 54 346 q 47 515 46 461 q 54 607 47 569 q 69 683 60 640 q 93 768 78 726 q 130 847 108 810 q 182 908 151 885 q 296 960 229 946 q 443 982 363 975 q 563 987 497 988 q 690 972 628 986 q 806 928 753 958 q 886 846 858 897 q 919 763 908 806 q 919 676 931 721 q 894 642 915 656 q 842 620 874 628 q 775 610 811 613 q 706 613 739 608 q 646 630 672 618 q 610 660 619 642 q 604 691 601 675 q 614 723 607 707 q 630 755 621 739 q 643 788 639 771 q 626 856 653 828 q 563 892 599 885 q 528 881 543 896 q 500 844 513 867 q 478 799 488 822 q 461 763 469 776 q 437 646 446 714 q 426 506 428 578 q 428 367 424 435 q 446 251 433 299 q 478 174 457 211 q 549 100 500 136 q 614 185 593 136 q 635 292 635 233 q 596 334 610 315 q 579 386 582 353 z "},"D":{"ha":1053,"x_min":69,"x_max":1010,"o":"m 403 156 q 395 110 393 133 q 397 65 397 88 q 379 31 397 44 q 337 11 361 18 q 288 2 313 4 q 247 0 263 0 q 208 3 229 0 q 165 12 186 6 q 126 28 144 18 q 99 54 108 39 q 84 115 88 71 q 81 211 81 160 q 82 310 81 263 q 83 383 83 358 q 83 513 82 449 q 83 642 85 576 q 78 770 82 707 q 69 899 75 833 q 94 938 69 922 q 156 963 118 954 q 238 972 193 971 q 322 967 282 974 q 392 947 363 960 q 431 913 422 933 q 440 881 436 900 q 446 840 443 861 q 451 799 449 819 q 454 764 453 778 q 488 830 469 796 q 529 892 506 864 q 544 910 538 901 q 560 929 551 919 q 639 967 592 961 q 728 965 686 974 q 810 942 769 957 q 878 893 850 928 q 972 718 940 815 q 1006 517 1003 621 q 986 312 1010 414 q 913 122 963 210 q 837 47 888 76 q 733 13 786 17 q 632 17 676 8 q 550 44 588 25 q 477 91 513 63 q 403 156 442 119 m 596 778 q 561 727 576 754 q 530 674 546 700 q 497 623 514 647 q 457 581 479 599 q 449 411 457 494 q 424 243 442 328 q 481 246 453 250 q 533 231 508 242 q 581 203 558 219 q 624 167 603 186 q 636 310 633 233 q 635 467 639 388 q 622 626 632 547 q 596 778 613 706 z "},"E":{"ha":874,"x_min":74,"x_max":849,"o":"m 689 118 q 728 117 710 117 q 763 117 746 118 q 796 110 779 115 q 829 90 813 104 q 840 76 835 86 q 847 53 844 65 q 847 30 849 42 q 840 10 846 18 q 806 -15 826 -8 q 764 -21 786 -21 q 717 -17 742 -21 q 671 -10 693 -12 q 615 -8 639 -6 q 569 -16 592 -11 q 524 -26 547 -21 q 468 -35 500 -32 q 378 -37 426 -39 q 284 -26 331 -35 q 197 -3 238 -18 q 132 33 157 11 q 89 92 101 58 q 76 156 78 121 q 74 227 74 190 q 78 299 75 264 q 82 367 82 335 q 81 431 82 385 q 78 538 79 478 q 80 665 78 599 q 88 790 82 732 q 105 890 93 849 q 136 942 117 932 q 194 965 167 957 q 250 974 222 972 q 307 975 278 976 q 368 972 336 974 q 462 969 415 969 q 556 964 508 968 q 604 959 574 963 q 669 953 635 956 q 736 947 703 950 q 796 944 769 944 q 828 933 819 944 q 833 908 836 922 q 819 882 831 894 q 790 868 807 869 q 744 863 760 865 q 715 860 728 861 q 685 857 701 858 q 635 854 668 856 q 549 856 592 854 q 482 854 506 857 q 473 765 476 810 q 468 675 469 721 q 466 597 467 635 q 468 518 465 558 q 534 515 493 518 q 619 507 575 513 q 706 492 664 501 q 775 471 747 483 q 793 439 799 460 q 765 408 788 418 q 718 393 742 399 q 667 389 694 388 q 611 394 635 390 q 565 404 588 399 q 520 415 543 410 q 469 422 497 419 q 466 352 468 392 q 461 271 464 313 q 459 191 460 226 q 465 124 458 156 q 510 114 483 115 q 568 114 538 113 q 630 117 599 115 q 689 118 661 119 z "},"F":{"ha":881,"x_min":64,"x_max":861,"o":"m 607 978 q 688 978 651 983 q 765 963 724 974 q 827 930 800 951 q 860 871 854 908 q 858 839 861 856 q 846 810 856 822 q 815 787 835 793 q 776 774 796 781 q 730 766 757 767 q 674 769 703 765 q 619 781 646 772 q 576 800 593 789 q 562 817 565 808 q 558 833 558 825 q 560 850 558 842 q 560 867 561 858 q 522 870 543 871 q 481 869 501 869 q 440 868 460 868 q 403 872 419 868 q 422 797 413 844 q 438 697 431 749 q 451 594 446 644 q 458 514 457 544 q 487 517 468 517 q 528 517 506 518 q 573 513 550 517 q 615 504 596 510 q 640 490 632 500 q 649 467 649 479 q 643 445 650 456 q 621 429 636 435 q 545 408 583 415 q 468 397 507 401 q 466 317 468 367 q 456 213 464 267 q 436 114 449 160 q 403 46 424 68 q 324 4 371 14 q 235 -4 276 -6 q 191 -2 215 -4 q 144 6 167 0 q 101 22 121 11 q 74 51 82 33 q 65 80 67 67 q 67 106 64 93 q 74 133 69 119 q 81 163 78 146 q 95 367 96 267 q 83 572 94 468 q 75 651 79 613 q 68 731 71 690 q 67 781 67 754 q 70 833 67 807 q 82 885 74 860 q 106 929 90 910 q 169 965 125 957 q 265 972 214 974 q 364 963 315 969 q 440 954 413 956 q 526 962 486 951 q 607 978 567 972 z "},"G":{"ha":894,"x_min":46,"x_max":850,"o":"m 461 721 q 452 608 457 674 q 445 472 447 542 q 447 338 443 403 q 464 228 450 274 q 481 180 469 206 q 507 140 493 154 q 536 131 521 126 q 565 175 551 136 q 588 268 581 219 q 611 365 596 317 l 611 367 q 558 374 589 368 q 504 396 528 381 q 485 428 483 408 q 515 449 488 449 q 592 453 550 458 q 669 450 633 447 q 712 451 683 450 q 769 449 740 451 q 821 436 799 446 q 846 406 843 426 q 847 348 847 382 q 845 278 847 314 q 842 210 843 243 q 840 157 840 178 q 840 133 840 150 q 837 99 839 117 q 832 66 835 81 q 826 49 829 51 q 774 24 807 29 q 715 25 742 18 q 561 -8 647 3 q 390 -6 475 -18 q 228 44 304 6 q 104 160 151 83 q 59 288 72 210 q 47 450 46 365 q 59 615 47 535 q 89 751 71 694 q 113 815 100 788 q 146 867 126 842 q 233 936 181 913 q 343 969 286 960 q 455 978 400 979 q 547 972 510 976 q 758 885 683 957 q 850 676 833 814 q 835 639 850 653 q 800 616 821 625 q 756 603 779 607 q 717 597 733 599 q 672 595 699 594 q 619 601 646 596 q 569 615 592 606 q 539 643 547 625 q 539 676 529 663 q 567 697 549 689 q 606 710 585 706 q 640 717 626 714 q 656 753 653 733 q 652 794 658 774 q 632 833 646 814 q 599 865 618 851 q 542 878 567 888 q 501 842 518 868 q 474 783 483 817 q 461 721 464 749 z "},"H":{"ha":1154,"x_min":81,"x_max":1082,"o":"m 474 429 q 476 392 475 415 q 475 339 476 368 q 471 280 474 310 q 465 224 468 250 q 467 173 463 199 q 474 122 471 147 q 474 73 478 96 q 453 32 471 50 q 385 -1 431 10 q 289 -12 339 -12 q 194 1 239 -11 q 126 39 149 14 q 115 60 121 46 q 105 92 110 75 q 96 124 100 108 q 89 151 92 140 q 81 217 82 178 q 81 299 81 257 q 85 382 82 342 q 88 453 88 422 q 87 505 88 467 q 85 594 86 543 q 83 699 83 644 q 83 802 82 754 q 85 883 83 850 q 93 924 88 917 q 142 963 115 949 q 199 985 169 978 q 261 994 229 993 q 325 993 293 994 q 365 988 342 992 q 412 974 389 983 q 451 951 435 965 q 468 915 467 936 q 470 831 471 874 q 471 746 469 788 q 472 626 472 686 q 475 507 472 567 q 580 505 526 513 q 683 503 633 497 q 685 655 689 578 q 686 807 682 732 q 682 844 688 825 q 672 881 676 863 q 670 915 668 899 q 689 944 672 931 q 737 981 713 971 q 800 996 761 990 q 893 997 846 1003 q 985 975 940 992 q 1033 942 1017 963 q 1056 889 1049 921 q 1077 765 1072 833 q 1080 627 1082 697 q 1072 491 1078 557 q 1063 375 1067 425 q 1058 328 1060 351 q 1054 282 1056 306 q 1053 185 1051 233 q 1049 89 1054 138 q 1024 48 1046 64 q 972 22 1001 32 q 913 8 943 13 q 863 4 882 4 q 783 8 821 3 q 708 31 746 14 q 682 48 693 38 q 669 76 671 58 q 668 240 667 160 q 678 404 669 321 q 572 415 622 403 q 474 429 522 426 z "},"I":{"ha":742,"x_min":19,"x_max":728,"o":"m 642 13 q 554 3 604 7 q 455 -3 504 -1 q 363 -3 406 -4 q 294 0 319 -3 q 253 4 278 1 q 202 10 228 7 q 151 17 176 13 q 106 28 125 21 q 86 40 94 32 q 75 58 78 49 q 76 77 72 68 q 92 93 79 86 q 138 108 111 106 q 183 113 164 110 q 203 235 197 171 q 208 363 208 299 q 203 492 208 428 q 192 617 197 556 q 181 717 186 667 q 175 818 175 768 q 119 810 150 807 q 67 826 89 813 q 31 866 42 843 q 24 909 19 889 q 47 942 28 929 q 100 953 65 956 q 176 971 146 965 q 232 978 207 976 q 283 978 257 979 q 344 975 308 976 q 431 965 386 972 q 521 963 476 958 q 613 953 563 963 q 697 919 663 944 q 720 891 713 908 q 715 856 728 874 q 684 830 704 840 q 641 813 664 819 q 594 803 618 807 q 553 800 571 800 q 556 788 554 797 q 559 769 558 779 q 561 749 560 758 q 563 736 563 739 q 581 581 572 657 q 594 431 590 506 q 595 281 599 357 q 576 126 592 206 q 622 121 599 125 q 669 108 646 117 q 703 84 696 99 q 705 55 711 69 q 681 28 699 40 q 642 13 664 17 z "},"J":{"ha":846,"x_min":17,"x_max":781,"o":"m 19 285 q 25 333 21 308 q 39 378 29 357 q 64 417 49 400 q 104 442 79 433 q 138 446 118 444 q 176 447 157 447 q 213 442 194 446 q 243 432 231 439 q 265 411 258 424 q 273 385 271 399 q 274 356 275 371 q 272 326 272 340 q 288 211 272 268 q 351 115 304 154 q 373 181 365 135 q 385 285 381 226 q 391 410 390 344 q 391 535 392 475 q 389 642 390 594 q 386 711 388 689 q 386 740 386 721 q 386 781 386 760 q 387 820 386 801 q 390 846 388 839 q 351 848 372 846 q 310 854 331 850 q 272 862 289 858 q 246 867 256 865 q 223 864 235 868 q 199 856 211 860 q 172 849 186 851 q 144 853 158 847 q 103 882 119 863 q 84 921 86 901 q 95 956 82 940 q 144 975 108 972 q 218 991 179 986 q 294 993 257 996 q 432 982 365 990 q 574 979 499 974 q 639 971 604 976 q 697 949 674 965 q 733 912 722 932 q 748 868 743 892 q 756 818 753 844 q 768 763 760 792 q 775 695 772 731 q 779 626 778 660 q 781 565 781 593 q 781 518 781 536 q 779 394 781 456 q 772 269 778 332 q 760 176 768 218 q 735 101 753 135 q 685 42 717 68 q 601 -3 653 17 q 503 -26 553 -21 q 400 -31 453 -32 q 283 -17 343 -29 q 169 22 224 -4 q 103 68 132 40 q 54 131 74 96 q 26 205 35 165 q 19 285 17 244 z "},"K":{"ha":907,"x_min":68,"x_max":886,"o":"m 796 949 q 838 951 819 956 q 866 935 856 947 q 878 905 876 922 q 869 869 879 888 q 820 765 851 818 q 753 660 789 711 q 678 563 717 610 q 610 478 640 515 q 704 438 665 465 q 765 376 736 414 q 819 292 794 339 q 845 213 836 254 q 864 136 854 171 q 873 99 868 121 q 881 58 878 78 q 873 8 886 26 q 832 -19 860 -11 q 789 -31 813 -26 q 742 -35 765 -35 q 698 -33 719 -36 q 661 -21 676 -29 q 614 18 633 -6 q 590 74 594 42 q 569 163 578 114 q 552 257 560 213 q 536 337 544 301 q 518 386 528 372 q 482 372 497 379 q 438 361 467 365 q 427 223 431 292 q 422 85 424 154 q 357 -1 435 15 q 292 -11 319 -8 q 239 -10 264 -14 q 190 1 214 -7 q 135 22 165 8 q 109 56 114 32 q 100 100 104 81 q 74 281 81 188 q 69 469 68 374 q 76 658 71 564 q 88 843 82 753 q 87 885 89 865 q 89 922 85 906 q 108 950 93 938 q 157 969 124 963 q 250 984 197 982 q 349 978 303 986 q 429 951 396 969 q 464 904 463 933 q 465 731 468 817 q 454 558 461 646 q 528 640 493 600 q 594 720 563 679 q 655 804 625 761 q 715 893 685 847 q 751 929 731 917 q 796 949 772 942 z "},"L":{"ha":842,"x_min":82,"x_max":824,"o":"m 186 957 q 228 967 204 964 q 275 969 251 969 q 319 966 299 968 q 354 961 340 964 q 417 940 390 954 q 460 914 444 925 q 476 879 478 900 q 475 839 474 858 q 465 610 469 724 q 457 381 461 496 q 455 262 454 326 q 449 146 456 197 q 496 142 471 149 q 545 128 521 135 q 592 121 569 122 q 631 133 614 119 q 648 156 635 147 q 678 169 661 165 q 715 173 696 174 q 751 168 735 172 q 802 140 781 160 q 824 97 824 121 q 817 59 824 81 q 800 22 811 38 q 722 -20 772 -10 q 613 -28 671 -31 q 501 -13 554 -25 q 418 3 447 -1 q 352 -22 390 -14 q 274 -31 314 -31 q 196 -22 233 -31 q 132 7 158 -12 q 108 51 113 21 q 100 101 103 81 q 92 183 96 129 q 87 304 89 238 q 83 442 85 371 q 82 577 82 514 q 82 689 82 640 q 83 757 82 738 q 87 822 86 789 q 93 886 88 854 q 106 914 96 903 q 128 933 115 925 q 157 946 142 940 q 186 957 172 951 z "},"M":{"ha":1281,"x_min":64,"x_max":1208,"o":"m 840 886 q 862 922 840 907 q 916 944 883 936 q 989 954 949 953 q 1066 949 1029 956 q 1133 931 1103 943 q 1175 899 1163 918 q 1195 830 1188 879 q 1206 718 1203 781 q 1208 585 1208 656 q 1208 453 1208 515 q 1205 345 1207 392 q 1203 282 1203 299 q 1203 222 1203 263 q 1201 140 1203 182 q 1195 60 1200 97 q 1181 11 1190 24 q 1126 -24 1161 -12 q 1051 -39 1092 -36 q 969 -36 1011 -42 q 894 -19 928 -31 q 844 10 867 -10 q 831 64 822 31 q 836 111 833 88 q 839 158 839 135 q 844 401 839 281 q 850 644 849 522 q 785 572 818 611 q 733 489 753 533 q 689 464 721 469 q 636 460 657 458 q 599 463 617 461 q 565 472 582 465 q 535 503 549 479 q 512 556 522 526 q 494 613 501 585 q 481 656 486 640 l 472 506 q 460 275 465 389 q 458 44 456 161 q 431 0 458 18 q 360 -27 403 -18 q 268 -35 318 -36 q 175 -25 218 -35 q 102 3 132 -15 q 71 49 72 21 q 69 244 64 146 q 81 440 75 343 q 91 657 86 549 q 103 874 96 765 q 126 913 104 897 q 182 938 149 929 q 256 949 215 947 q 338 945 297 950 q 411 929 378 940 q 464 901 444 918 q 537 875 506 896 q 592 823 568 854 q 633 753 615 792 q 665 678 650 715 q 757 760 714 722 q 840 850 800 799 l 840 886 z "},"N":{"ha":1215,"x_min":68,"x_max":1147,"o":"m 758 467 q 758 574 758 517 q 757 689 757 631 q 757 805 757 747 q 758 913 757 863 q 786 954 758 938 q 855 980 814 971 q 944 989 896 989 q 1035 980 993 989 q 1107 952 1078 971 q 1140 906 1136 933 q 1144 849 1143 881 q 1147 783 1146 817 q 1147 718 1147 750 q 1147 661 1147 686 q 1147 462 1147 561 q 1146 263 1146 363 l 1146 82 q 1103 30 1146 50 q 1001 3 1060 10 q 883 6 943 -3 q 790 40 824 15 q 746 81 761 63 q 718 124 731 100 q 692 181 706 147 q 650 267 678 214 q 596 382 615 333 q 561 474 576 431 q 528 563 546 518 q 479 669 511 608 q 478 606 479 654 q 476 492 478 557 q 472 356 474 428 q 466 222 469 285 q 458 117 463 160 q 447 65 453 74 q 401 33 433 46 q 328 14 369 19 q 243 10 288 8 q 161 22 199 13 q 99 49 124 32 q 71 93 74 67 q 71 131 68 111 q 75 169 74 151 q 88 403 83 286 q 90 528 89 461 q 92 662 92 594 q 93 796 93 729 q 93 921 93 863 q 121 963 93 946 q 190 989 149 981 q 281 997 232 997 q 372 988 329 997 q 443 961 414 979 q 474 915 472 943 q 476 889 475 901 q 476 863 476 876 q 526 810 499 846 q 581 735 553 775 q 634 656 608 694 q 676 593 660 617 q 718 528 697 565 q 758 467 739 492 z "},"O":{"ha":979,"x_min":42,"x_max":957,"o":"m 458 963 q 518 965 481 963 q 583 971 556 968 q 713 965 650 979 q 827 921 776 951 q 910 844 878 890 q 949 740 943 797 q 955 569 957 654 q 933 397 953 483 q 892 251 918 324 q 823 120 865 179 q 722 21 781 61 q 583 -28 663 -19 q 456 -24 519 -35 q 331 6 392 -14 q 195 72 261 28 q 94 185 129 115 q 64 275 75 229 q 46 368 53 321 q 42 445 42 400 q 46 540 42 490 q 59 640 50 589 q 81 736 68 692 q 108 813 88 778 q 156 874 128 847 q 216 921 183 901 q 282 951 249 940 q 363 963 321 964 q 458 963 406 963 m 457 250 q 512 135 482 174 q 585 83 542 97 q 663 144 628 108 q 722 225 697 181 q 761 320 746 269 q 781 424 776 371 q 775 561 788 493 q 731 689 763 629 q 690 758 711 729 q 640 802 669 786 q 572 822 611 818 q 479 818 533 826 q 461 763 468 794 q 449 695 454 732 q 440 619 443 658 q 435 542 436 579 q 431 395 428 467 q 457 250 433 324 z "},"P":{"ha":1092,"x_min":63,"x_max":1071,"o":"m 1035 489 q 906 336 992 388 q 711 278 819 285 q 598 283 656 276 q 488 308 540 289 q 486 181 488 246 q 474 54 485 117 q 465 30 471 39 q 446 14 460 21 l 417 -3 q 339 -19 393 -15 q 229 -17 285 -24 q 132 8 174 -11 q 92 60 90 26 q 102 330 97 194 q 99 600 107 465 q 89 747 94 674 q 82 894 83 821 q 78 944 63 922 q 128 981 93 967 q 213 1003 164 996 q 309 1006 261 1010 q 396 985 357 1001 q 451 939 435 969 q 465 893 464 915 q 469 844 467 871 q 524 908 497 881 q 582 952 551 935 q 649 978 613 969 q 732 988 685 988 q 822 972 775 988 q 910 932 868 957 q 985 874 951 907 q 1036 804 1019 840 q 1069 647 1071 731 q 1035 489 1067 563 m 668 456 q 699 558 690 501 q 709 673 708 614 q 707 789 710 732 q 703 892 704 846 l 701 893 q 634 835 665 868 q 576 764 603 801 q 526 686 549 726 q 485 607 504 646 q 488 522 488 564 q 489 438 488 481 q 548 440 519 444 q 599 433 576 436 q 640 432 622 429 q 668 456 657 435 z "},"Q":{"ha":949,"x_min":56,"x_max":911,"o":"m 707 65 q 765 -23 733 21 q 839 -99 797 -67 q 871 -110 860 -99 q 882 -133 882 -121 q 872 -156 882 -146 q 840 -167 861 -167 q 744 -154 786 -179 q 665 -85 701 -129 q 650 -65 660 -78 q 631 -38 640 -53 q 613 -10 621 -24 q 604 11 606 3 q 565 1 590 4 q 511 -2 539 -1 q 456 -2 483 -3 q 414 1 429 -1 q 330 19 372 7 q 250 50 288 31 q 181 99 213 69 q 129 168 150 128 q 81 299 99 224 q 60 453 64 374 q 65 608 56 532 q 97 744 75 685 q 150 838 117 796 q 227 911 183 881 q 322 958 271 942 q 429 974 374 975 q 474 967 453 971 q 518 961 496 964 q 567 959 543 957 q 618 954 592 961 q 786 857 715 928 q 858 757 829 814 q 899 638 888 700 q 903 513 911 576 q 865 394 896 450 q 845 304 857 350 q 815 215 833 258 q 769 134 796 172 q 707 65 743 96 m 433 517 q 435 393 433 446 q 449 297 438 340 q 485 212 460 253 q 558 124 510 171 q 549 161 554 139 q 540 206 543 183 q 535 250 536 229 q 539 286 535 271 q 556 301 542 296 q 586 306 569 306 q 618 301 603 306 q 638 289 633 297 q 647 261 644 278 q 651 232 649 244 q 688 315 676 272 q 701 403 699 358 q 701 492 704 447 q 694 582 699 538 q 669 682 688 633 q 622 772 651 731 q 552 844 593 813 q 460 896 511 876 q 433 805 440 849 q 426 717 426 761 q 430 624 426 672 q 433 517 433 575 z "},"R":{"ha":1028,"x_min":67,"x_max":1001,"o":"m 708 333 q 780 292 750 317 q 833 235 810 267 q 874 169 856 204 q 910 97 892 133 q 924 75 915 86 q 938 52 932 64 q 943 28 943 40 q 931 6 943 17 q 874 -25 913 -12 q 788 -40 835 -37 q 694 -36 742 -43 q 613 -8 647 -29 q 582 16 593 4 q 569 56 571 28 q 565 141 567 104 q 542 217 564 178 q 500 274 524 249 q 457 331 476 299 q 455 271 457 303 q 450 204 453 239 q 445 136 447 169 q 443 74 443 103 q 433 32 443 50 q 401 6 424 14 q 288 -22 343 -18 q 174 -8 232 -25 q 147 -1 161 -6 q 119 12 132 4 q 98 31 107 19 q 88 57 89 42 l 71 285 q 69 353 68 318 q 71 422 71 389 q 69 490 71 449 q 67 578 68 531 q 67 675 67 625 q 71 772 68 725 q 79 856 74 818 q 94 917 85 893 q 133 952 104 938 q 199 974 161 967 q 279 981 236 981 q 360 974 322 981 q 428 954 399 968 q 468 921 457 940 q 474 897 475 908 q 468 874 472 886 q 460 851 464 863 q 460 826 457 839 q 515 890 482 861 q 587 937 549 918 q 667 963 625 956 q 747 965 708 971 q 824 947 785 960 q 896 912 863 933 q 955 860 929 890 q 990 790 981 831 q 1001 703 1001 750 q 993 613 1001 657 q 971 527 985 568 q 939 456 957 486 q 897 406 922 428 q 840 367 871 383 q 774 343 808 351 q 708 333 740 335 m 458 631 q 458 552 458 590 q 457 474 457 514 q 483 476 467 476 q 517 472 500 475 q 551 466 535 469 q 578 460 568 463 q 616 556 600 510 q 639 658 632 601 q 645 758 646 710 q 642 854 644 806 q 540 751 583 811 q 458 631 497 692 z "},"S":{"ha":897,"x_min":26,"x_max":864,"o":"m 417 144 q 448 199 433 172 q 472 256 463 226 q 484 318 481 285 q 483 392 488 351 q 373 388 435 385 q 251 406 311 390 q 140 453 190 422 q 65 533 90 485 q 31 653 36 592 q 44 776 26 715 q 85 849 57 818 q 148 903 113 879 q 223 947 183 928 q 299 988 263 967 q 440 1020 365 1013 q 581 1017 515 1028 q 704 969 647 1004 q 804 879 761 933 q 860 749 856 813 q 836 640 864 686 q 781 600 818 611 q 701 590 743 589 q 622 599 660 590 q 563 615 583 607 q 526 636 538 625 q 514 660 515 647 q 518 688 513 672 q 532 725 524 704 q 559 778 543 754 q 585 831 575 803 q 588 873 593 853 q 568 908 582 893 q 535 931 554 922 q 494 939 515 939 q 457 933 478 939 q 418 918 436 928 q 388 893 400 908 q 376 858 376 878 q 388 806 378 833 q 401 751 397 778 q 408 693 407 719 q 413 642 410 667 q 423 594 415 617 q 447 546 431 571 q 566 535 503 539 q 683 507 629 531 q 728 476 708 496 q 760 433 747 457 q 783 382 774 410 q 800 328 793 354 q 808 256 808 293 q 797 182 807 218 q 769 113 788 146 q 722 54 750 79 q 674 22 703 35 q 613 1 646 10 q 542 -10 579 -7 q 471 -11 506 -12 q 351 6 408 -8 q 250 51 294 19 q 201 83 226 68 q 152 115 175 97 q 110 153 129 132 q 83 206 92 175 q 82 237 79 219 q 92 270 85 254 q 112 299 100 286 q 139 317 124 313 q 230 333 185 336 q 307 315 275 329 q 343 291 336 303 q 343 267 350 279 q 319 243 336 256 q 282 218 301 231 q 301 188 288 200 q 334 166 315 175 q 374 152 353 157 q 417 144 396 147 z "},"T":{"ha":1004,"x_min":25,"x_max":983,"o":"m 417 793 q 403 794 407 796 q 390 794 400 792 q 338 769 371 779 q 266 756 306 760 q 185 756 226 753 q 110 769 144 758 q 53 800 76 781 q 26 850 31 819 q 31 878 25 861 q 44 906 38 896 q 135 963 78 946 q 255 983 192 981 q 380 974 318 985 q 486 949 442 964 l 518 938 q 540 938 522 936 q 581 941 558 939 q 622 945 603 943 q 647 947 642 947 q 720 953 682 950 q 797 956 758 957 q 872 949 835 956 q 942 925 910 942 q 977 890 971 910 q 974 851 983 869 q 941 820 964 833 q 890 806 918 807 q 808 803 846 803 q 733 800 771 803 q 743 699 740 758 q 746 572 746 639 q 742 435 746 504 q 733 306 739 365 q 728 196 729 250 q 728 86 728 142 q 723 38 728 63 q 693 0 718 13 q 619 -26 664 -19 q 529 -31 575 -33 q 444 -14 483 -28 q 385 25 404 0 q 376 72 378 33 q 376 158 375 111 q 381 251 378 206 q 386 318 383 296 q 398 436 394 376 q 404 556 401 496 q 409 675 407 615 q 417 793 411 735 z "},"U":{"ha":1057,"x_min":72,"x_max":993,"o":"m 950 796 q 958 678 956 749 q 960 534 960 607 q 960 395 960 461 q 964 293 961 329 q 968 203 967 258 q 972 106 969 149 q 979 75 972 90 q 990 44 986 60 q 989 14 993 29 q 964 -15 985 -1 q 889 -40 936 -32 q 792 -42 842 -47 q 703 -15 743 -36 q 650 49 663 7 q 646 65 649 54 q 640 86 643 75 q 634 108 636 97 q 632 122 632 118 q 549 28 604 63 q 431 -15 494 -6 q 351 -22 392 -22 q 272 -11 310 -21 q 201 18 233 -1 q 147 68 168 38 q 116 130 126 97 q 99 196 106 163 q 88 264 93 229 q 76 332 83 299 q 74 449 72 378 q 79 595 75 519 q 88 742 83 671 q 94 863 92 814 q 110 926 97 899 q 160 961 124 953 q 224 978 192 974 q 293 982 257 983 q 353 976 321 981 q 415 961 386 972 q 472 922 451 950 q 476 857 492 893 q 473 779 474 818 q 469 703 472 740 l 457 411 q 448 336 456 374 q 432 262 440 299 q 416 188 424 225 q 407 113 408 150 q 476 186 446 144 q 531 276 507 228 q 572 374 554 324 q 604 475 589 425 q 600 568 600 521 q 599 662 600 615 q 596 755 599 708 q 585 847 593 801 q 625 928 574 903 q 667 945 647 939 q 706 953 686 951 q 747 955 725 956 q 796 953 768 954 q 865 938 832 950 q 919 901 899 925 q 940 856 935 886 q 950 796 946 825 z "},"V":{"ha":911,"x_min":33,"x_max":890,"o":"m 56 925 q 143 960 90 947 q 249 971 196 972 q 344 952 301 969 q 403 897 388 935 q 441 769 426 836 q 465 633 456 703 q 482 491 475 563 q 499 350 489 419 q 508 272 504 313 q 522 194 513 231 q 610 431 576 307 q 669 688 643 556 q 685 778 678 733 q 696 871 693 824 q 695 909 697 890 q 696 947 693 928 q 726 977 697 968 q 790 985 756 986 q 853 974 824 985 q 885 944 882 964 q 885 834 890 901 q 866 688 879 767 q 833 527 853 610 q 790 368 813 444 q 741 229 767 292 q 690 131 715 167 q 660 83 674 107 q 628 38 646 58 q 589 1 611 17 q 535 -21 567 -15 q 448 -28 493 -29 q 358 -19 403 -28 q 272 10 313 -10 q 200 58 231 29 q 185 72 193 65 q 172 88 178 78 q 148 150 158 111 q 130 231 138 189 q 117 314 122 274 q 108 383 111 354 q 81 604 94 496 q 40 832 68 713 q 36 852 39 840 q 33 878 33 864 q 38 904 33 892 q 56 925 43 917 z "},"W":{"ha":1306,"x_min":67,"x_max":1235,"o":"m 71 458 q 67 538 67 489 q 70 634 68 586 q 76 722 72 682 q 81 776 79 763 q 101 915 89 846 q 109 939 104 931 q 128 956 114 947 q 208 986 165 978 q 293 993 250 994 q 341 990 314 993 q 394 981 368 988 q 443 963 421 975 q 476 931 465 950 q 485 884 486 915 q 480 817 485 853 q 469 743 475 781 q 463 676 464 706 q 453 501 460 594 q 440 333 447 408 q 433 264 438 300 q 427 192 429 228 q 427 123 425 157 q 440 60 429 89 q 503 118 476 88 q 553 189 529 149 q 568 223 558 199 q 589 273 578 247 q 610 319 600 299 q 628 344 621 340 q 628 374 628 353 q 628 419 628 394 q 631 467 629 443 q 639 507 633 492 q 728 567 658 567 q 782 544 763 567 q 801 493 801 522 q 802 425 801 460 q 806 354 803 390 q 817 273 813 308 q 828 207 821 238 q 848 147 835 176 q 885 85 861 118 q 914 158 906 108 q 928 261 922 207 q 935 369 933 315 q 936 476 936 422 q 935 540 936 508 q 935 604 933 572 q 940 748 936 675 q 939 892 944 821 q 953 917 938 907 q 979 935 968 928 q 1078 960 1025 958 q 1181 939 1132 963 q 1215 921 1196 932 q 1235 889 1235 910 q 1233 757 1235 822 q 1229 625 1232 692 q 1230 544 1228 585 q 1232 463 1232 503 q 1229 382 1232 422 q 1214 303 1226 342 q 1187 222 1203 265 q 1147 136 1171 178 q 1090 60 1124 94 q 1010 8 1057 26 q 915 -11 965 -8 q 819 -1 865 -14 q 734 39 772 11 q 676 111 696 67 q 485 -18 600 7 q 433 -22 461 -24 q 376 -12 404 -19 q 321 7 347 -6 q 276 36 294 19 q 197 125 232 74 q 136 233 161 176 q 94 347 111 289 q 71 458 78 406 z "},"X":{"ha":863,"x_min":18,"x_max":842,"o":"m 29 71 q 64 139 42 101 q 110 212 86 176 q 153 275 133 247 q 182 315 174 303 l 282 471 q 245 566 261 517 q 212 664 229 615 q 171 758 194 713 q 110 840 147 803 q 90 857 103 847 q 65 878 76 867 q 49 901 54 889 q 53 926 44 914 q 85 952 64 944 q 125 964 106 960 q 235 969 181 976 q 337 940 289 963 q 425 879 385 917 q 494 794 465 842 q 551 875 524 835 q 607 957 579 915 q 626 973 614 968 q 650 981 639 978 q 685 983 658 982 q 736 979 711 983 q 778 965 761 975 q 785 935 794 954 q 739 858 765 897 q 683 781 713 819 q 624 703 654 742 q 571 629 594 665 q 639 442 603 535 q 703 254 675 350 q 714 219 707 240 q 729 177 721 199 q 747 138 738 156 q 768 110 757 119 q 794 93 779 99 q 819 78 808 88 q 833 42 842 58 q 800 14 824 26 q 772 2 788 7 q 742 -6 757 -3 q 672 -12 711 -11 q 592 -6 632 -12 q 518 14 553 0 q 461 50 483 28 q 428 88 442 69 q 400 133 414 107 q 372 208 381 168 q 349 283 364 247 q 289 208 321 244 q 228 133 257 172 q 209 107 218 121 q 189 79 200 93 q 162 47 175 63 q 135 18 149 32 q 98 0 121 4 q 56 2 75 -4 q 28 25 38 8 q 29 71 18 42 z "},"Y":{"ha":1039,"x_min":69,"x_max":969,"o":"m 533 -28 q 588 57 578 4 q 594 158 599 110 q 512 138 560 143 q 414 137 464 133 q 316 151 364 140 q 233 176 268 161 q 146 241 181 200 q 96 329 111 282 q 75 415 81 372 q 69 502 69 458 q 74 590 69 546 q 82 679 78 633 q 85 745 85 711 q 93 810 86 779 q 99 863 99 835 q 100 917 100 890 q 117 951 100 940 q 153 969 135 961 q 195 981 167 976 q 258 988 224 986 q 328 986 293 989 q 393 974 364 983 q 442 950 422 965 q 461 911 461 935 q 458 811 463 861 q 449 711 454 761 q 439 611 443 661 q 435 511 435 561 q 434 443 435 478 q 435 375 433 408 q 444 313 438 342 q 464 261 450 283 q 553 362 519 308 q 586 486 588 415 q 588 536 588 508 q 590 590 589 564 q 591 634 590 615 q 592 658 592 653 q 591 716 592 682 q 590 785 590 750 q 589 851 589 819 q 593 904 589 883 q 598 922 596 918 q 608 936 600 925 q 657 972 626 958 q 724 992 688 986 q 796 994 760 997 q 860 979 832 992 q 897 962 881 969 q 924 944 913 954 q 944 919 936 933 q 957 885 951 906 q 967 806 964 853 q 969 713 969 760 q 969 626 969 665 q 967 572 968 588 q 957 410 963 489 q 938 250 951 332 q 891 87 924 164 q 801 -57 858 10 q 737 -104 774 -85 q 660 -135 700 -124 q 578 -152 619 -147 q 501 -157 538 -157 q 359 -136 429 -156 q 226 -78 289 -117 q 186 -42 199 -61 q 177 -8 174 -24 q 203 19 181 8 q 268 33 225 31 q 328 35 297 36 q 385 24 360 33 q 424 -1 407 15 q 456 -28 440 -17 q 490 -43 472 -40 q 533 -28 508 -46 z "},"Z":{"ha":935,"x_min":11,"x_max":910,"o":"m 371 19 q 292 4 335 7 q 208 6 249 1 q 134 21 168 10 q 81 49 100 32 q 65 87 60 67 q 76 128 69 107 q 109 225 92 179 q 148 314 126 271 q 196 398 169 357 q 254 483 222 439 q 238 485 250 485 q 211 488 225 486 q 183 494 197 490 q 161 506 169 499 q 153 526 146 518 q 176 538 161 533 q 206 545 190 543 q 221 547 221 547 q 260 547 240 547 q 299 544 279 546 q 385 660 343 601 q 463 781 426 718 q 342 779 404 774 q 225 800 281 785 q 231 764 229 781 q 219 732 232 747 q 196 722 211 725 q 165 718 181 718 q 135 721 149 718 q 113 726 121 724 q 90 747 103 731 q 63 783 76 764 q 40 822 50 803 q 25 851 29 842 q 28 912 11 883 q 74 958 44 940 q 120 973 92 968 q 178 978 149 978 q 235 974 207 978 q 279 965 263 971 q 331 949 310 956 q 385 940 353 943 q 446 948 414 940 q 507 960 478 956 q 581 965 528 963 q 694 965 633 968 q 810 951 754 963 q 892 914 865 940 q 903 875 910 896 q 889 835 896 854 q 805 677 857 751 q 700 532 753 603 q 740 528 717 532 q 775 513 763 524 q 790 482 793 496 q 773 456 788 468 q 734 435 758 444 q 685 421 710 426 q 640 412 661 415 q 608 408 618 408 q 496 217 543 317 q 543 221 517 221 q 597 218 569 221 q 650 210 624 215 q 696 197 676 204 q 699 234 700 218 q 695 265 697 250 q 692 297 693 281 q 697 336 692 314 q 715 354 700 347 q 747 363 729 361 q 783 363 765 365 q 813 351 801 360 q 848 321 832 338 q 871 281 864 304 q 882 236 878 261 q 888 192 886 211 q 894 155 889 174 q 902 117 900 136 q 899 81 904 99 q 876 49 894 64 q 826 22 854 31 q 769 8 799 13 q 605 22 683 -3 q 460 88 526 47 q 422 49 442 68 q 371 19 403 31 z "},"[":{"ha":629,"x_min":88,"x_max":574,"o":"m 554 1135 q 570 1113 574 1128 q 546 1094 567 1097 q 517 1089 533 1090 q 487 1088 501 1088 q 460 1088 472 1088 q 443 1089 449 1089 q 444 1058 442 1076 q 448 1022 446 1040 q 452 984 450 1003 q 454 950 454 965 q 449 701 453 825 q 444 453 444 578 q 444 320 444 386 q 443 188 443 254 q 447 110 447 151 q 444 29 447 68 q 436 -42 442 -10 q 425 -90 431 -74 q 463 -97 440 -93 q 506 -109 486 -101 q 535 -128 525 -117 q 533 -156 544 -140 q 481 -184 521 -174 q 391 -197 440 -194 q 292 -192 342 -199 q 208 -168 242 -185 q 143 -104 164 -146 q 106 -19 122 -62 q 101 57 100 18 q 99 135 103 96 q 95 201 96 168 q 93 268 94 235 q 91 601 88 435 q 111 933 94 767 q 119 986 114 961 q 128 1039 125 1011 q 153 1113 133 1085 q 200 1155 172 1140 q 263 1173 228 1169 q 335 1175 299 1176 q 451 1161 393 1172 q 554 1135 510 1150 z "},"\\":{"ha":778,"x_min":19,"x_max":764,"o":"m 19 1001 q 39 1040 19 1024 q 89 1064 58 1056 q 157 1074 119 1072 q 231 1070 194 1076 q 297 1051 267 1064 q 342 1017 326 1038 q 392 917 375 971 q 429 811 408 863 q 506 626 468 718 q 576 438 543 533 q 597 379 586 411 q 618 313 607 347 q 641 247 629 279 q 664 188 653 214 q 701 104 682 146 q 739 21 721 63 q 748 1 743 13 q 757 -24 753 -11 q 763 -49 761 -36 q 758 -69 764 -61 q 725 -94 747 -86 q 685 -107 703 -103 q 631 -113 664 -111 q 562 -111 597 -115 q 497 -96 526 -107 q 456 -64 468 -85 l 419 7 q 381 74 400 40 q 347 143 363 107 q 287 303 315 222 q 228 465 258 385 q 182 590 204 528 q 132 715 160 653 q 89 824 108 769 q 54 936 69 878 q 45 955 51 947 q 33 969 39 963 q 24 983 28 975 q 19 1001 19 990 z "},"]":{"ha":624,"x_min":68,"x_max":557,"o":"m 119 1147 q 173 1160 144 1154 q 233 1164 201 1167 q 342 1147 293 1158 q 433 1106 390 1135 q 480 1060 463 1085 q 508 1005 497 1035 q 523 940 518 975 q 532 864 528 904 q 542 744 538 803 q 547 622 547 685 q 544 490 547 556 q 535 357 540 424 q 531 297 532 326 q 533 238 531 268 q 549 89 542 158 q 546 -54 557 19 q 534 -106 542 -81 q 513 -153 526 -132 q 478 -190 500 -175 q 426 -208 457 -204 q 335 -229 378 -225 q 236 -226 293 -233 q 200 -223 221 -225 q 158 -218 179 -221 q 117 -210 136 -215 q 86 -194 97 -204 q 72 -178 76 -187 q 75 -158 68 -169 q 97 -140 82 -146 q 126 -131 113 -133 q 168 -125 147 -125 q 210 -128 189 -125 q 211 -85 207 -108 q 215 -42 215 -62 q 211 45 217 1 q 199 131 206 89 q 188 217 193 174 q 185 304 183 260 q 191 434 186 369 q 200 564 196 499 q 208 833 208 697 q 219 958 208 896 q 235 1083 231 1019 q 216 1095 226 1094 q 192 1092 206 1096 q 161 1085 179 1089 q 119 1085 143 1082 q 97 1094 104 1086 q 89 1113 89 1103 q 97 1133 89 1124 q 119 1147 104 1143 z "},"^":{"ha":886,"x_min":57,"x_max":835,"o":"m 506 503 q 483 458 497 481 q 451 413 469 435 q 413 374 433 392 q 372 346 393 356 q 327 333 357 338 q 263 327 297 328 q 191 331 228 326 q 124 344 154 335 q 76 369 94 353 q 57 407 57 385 q 67 432 57 422 q 88 449 76 442 q 155 546 119 500 q 226 632 190 592 q 294 708 261 672 q 354 772 326 743 q 433 799 388 790 q 524 802 478 807 q 610 778 569 797 q 675 726 651 760 q 706 665 690 706 q 735 583 721 624 q 763 490 751 531 q 797 404 775 449 q 800 357 835 383 q 767 341 786 346 q 726 335 747 336 q 685 335 706 333 q 649 343 664 338 q 553 406 596 361 q 506 503 511 450 z "},"_":{"ha":939,"x_min":57,"x_max":876,"o":"m 203 -282 q 148 -278 175 -282 q 94 -268 121 -275 q 63 -245 69 -261 q 65 -211 57 -229 q 89 -178 72 -193 q 125 -160 106 -164 q 196 -154 163 -153 q 265 -154 229 -156 q 399 -153 347 -153 q 499 -154 451 -153 q 605 -156 547 -156 q 757 -156 663 -157 q 822 -169 793 -156 q 864 -201 850 -182 q 868 -235 876 -221 q 839 -260 860 -250 q 790 -277 818 -271 q 735 -285 763 -283 q 606 -287 674 -287 q 470 -286 539 -287 q 333 -283 401 -285 q 203 -282 265 -282 z "},"`":{"ha":594,"x_min":69,"x_max":531,"o":"m 519 800 q 523 771 531 785 q 503 749 515 757 q 456 728 483 735 q 397 719 428 721 q 338 721 367 718 q 286 729 308 724 q 238 749 258 736 q 196 782 217 763 q 169 806 186 790 q 133 840 151 822 q 98 876 114 858 q 76 907 82 894 q 71 924 72 914 q 76 942 69 935 q 115 969 92 958 q 167 984 139 979 q 223 989 194 989 q 276 985 251 989 q 360 949 328 978 q 411 897 393 921 q 440 875 424 888 q 471 849 456 863 q 499 823 486 836 q 519 800 511 810 z "},"a":{"ha":813,"x_min":32,"x_max":785,"o":"m 435 650 q 406 648 422 647 q 374 645 389 649 q 351 632 360 642 q 344 601 342 622 q 349 560 347 582 q 353 519 350 539 q 352 488 365 501 q 311 464 339 474 q 247 451 283 454 q 178 451 211 447 q 119 466 144 454 q 90 500 94 478 q 81 536 86 519 q 73 569 75 553 q 73 603 71 586 q 86 639 75 619 q 131 683 100 664 q 203 714 163 701 q 288 733 243 726 q 376 742 333 740 q 457 744 419 744 q 519 740 494 743 q 622 714 572 733 q 701 651 671 694 q 735 569 729 613 q 750 481 740 525 q 777 281 769 381 q 772 76 785 181 q 747 40 769 54 q 696 18 725 26 q 638 8 667 10 q 593 6 610 6 q 521 13 563 6 q 456 39 479 21 q 350 6 404 14 q 240 4 296 -1 q 97 52 144 14 q 40 140 49 90 q 60 240 32 189 q 144 328 88 292 q 210 355 172 346 q 291 367 249 364 q 376 368 333 371 q 456 360 419 365 q 467 401 460 381 q 481 442 474 422 q 493 483 488 463 q 499 525 499 503 q 490 624 500 592 q 435 650 479 657 m 356 207 q 350 172 351 188 q 355 145 349 156 q 378 133 361 135 q 429 142 394 131 q 435 213 432 178 q 440 283 438 247 q 403 284 418 288 q 380 270 389 281 q 365 243 371 260 q 356 207 360 226 z "},"b":{"ha":978,"x_min":72,"x_max":949,"o":"m 126 963 q 209 977 161 974 q 301 976 257 981 q 381 958 346 971 q 429 922 417 944 q 446 865 440 901 q 453 790 451 829 q 456 715 456 751 q 456 653 456 678 q 499 697 475 679 q 549 725 524 715 q 601 738 575 735 q 650 739 626 740 q 775 702 719 735 q 878 617 831 669 q 920 549 904 592 q 942 457 936 506 q 947 361 949 408 q 936 281 944 314 q 912 213 928 247 q 874 147 896 178 q 824 92 851 117 q 763 56 796 68 q 674 26 721 36 q 578 16 626 15 q 485 30 531 17 q 400 72 439 43 q 396 34 397 51 q 375 1 394 17 q 314 -20 356 -12 q 228 -25 272 -28 q 151 -8 185 -22 q 115 39 117 7 q 116 108 113 74 q 124 176 119 142 q 131 246 128 211 q 133 317 135 281 q 126 377 132 347 q 112 436 119 407 q 97 494 104 465 q 88 554 89 524 q 83 694 82 625 q 81 833 83 763 q 76 872 79 853 q 74 909 72 892 q 88 940 76 926 q 126 963 99 954 m 565 572 q 501 485 529 531 q 440 396 472 440 q 432 297 433 347 q 422 199 431 247 q 460 199 444 201 q 491 191 476 197 q 519 175 506 185 q 551 151 533 165 q 567 361 563 256 q 565 572 572 467 z "},"c":{"ha":792,"x_min":32,"x_max":761,"o":"m 419 351 q 442 236 419 289 q 504 135 464 183 q 529 156 515 140 q 553 188 543 171 q 569 222 564 206 q 571 247 575 239 q 551 271 564 260 q 535 285 539 282 q 511 317 511 303 q 527 342 511 332 q 570 358 543 353 q 628 363 597 364 q 672 356 650 361 q 713 340 694 350 q 744 315 732 331 q 757 281 757 300 q 749 215 758 246 q 723 156 739 183 q 686 102 707 128 q 644 53 665 76 q 565 17 611 28 q 470 6 519 7 q 372 10 421 4 q 285 24 324 17 q 167 74 217 36 q 88 163 118 111 q 44 278 57 215 q 35 406 32 342 q 58 532 39 471 q 110 643 76 593 q 167 705 133 679 q 240 747 201 731 q 321 770 279 763 q 403 778 363 778 q 562 760 492 778 q 696 681 632 743 q 745 603 729 647 q 754 510 761 558 q 731 457 750 474 q 679 432 713 440 q 614 425 651 425 q 554 433 576 425 q 528 454 538 439 q 518 487 519 469 q 525 521 517 504 q 553 547 533 538 q 572 553 561 551 q 592 554 582 554 q 554 649 594 611 q 483 604 510 638 q 442 527 456 571 q 424 436 428 483 q 419 351 419 389 z "},"d":{"ha":1057,"x_min":26,"x_max":979,"o":"m 586 724 q 581 785 583 754 q 576 846 579 815 q 572 875 575 861 q 569 904 569 889 q 610 954 568 936 q 708 977 651 972 q 824 973 765 982 q 918 943 883 964 q 937 926 931 936 q 947 905 943 917 q 953 881 951 893 q 958 857 956 869 q 976 693 972 781 q 977 517 979 606 q 969 342 975 428 q 960 183 964 256 q 959 150 960 172 q 957 105 958 128 q 953 62 956 82 q 946 35 950 42 q 911 6 935 18 q 860 -12 888 -6 q 806 -20 833 -18 q 758 -22 778 -22 q 708 -19 736 -22 q 654 -10 681 -17 q 606 8 628 -4 q 572 40 583 19 q 564 70 561 60 q 567 101 567 81 q 512 50 539 76 q 451 8 485 24 q 394 -7 428 -3 q 333 -10 360 -11 q 217 11 275 -8 q 118 74 158 31 q 83 110 100 93 q 53 151 65 126 q 30 238 33 189 q 32 338 26 286 q 51 442 38 390 q 79 536 64 493 q 107 604 90 568 q 153 661 124 640 q 260 720 207 700 q 383 751 314 740 q 492 751 439 760 q 586 724 546 743 m 490 674 q 458 556 476 611 q 428 429 439 500 q 419 287 417 358 q 425 144 422 215 q 465 180 447 164 q 500 210 483 196 q 534 238 517 224 q 575 267 551 251 q 582 417 578 342 q 589 568 586 492 q 570 603 582 585 q 544 636 558 621 q 515 662 529 651 q 490 674 500 672 z "},"e":{"ha":749,"x_min":29,"x_max":726,"o":"m 461 140 q 485 162 474 149 q 509 189 497 175 q 533 216 521 203 q 561 239 546 229 q 608 261 590 256 q 661 263 626 267 q 696 253 681 260 q 718 226 711 247 q 715 179 726 204 q 685 132 704 154 q 642 92 665 110 q 600 64 618 74 l 557 44 q 437 14 497 21 q 314 15 376 7 q 238 33 276 21 q 167 67 200 46 q 108 117 133 88 q 68 188 82 147 q 33 344 38 258 q 50 510 29 429 q 117 656 71 590 q 232 750 163 721 q 277 765 250 758 q 334 777 304 772 q 394 784 364 782 q 449 782 424 786 q 506 774 476 778 q 565 761 536 769 q 619 740 593 753 q 665 706 644 726 q 694 642 685 681 q 701 560 703 603 q 687 477 699 517 q 653 413 675 438 q 600 373 632 388 q 533 351 568 358 q 464 342 499 343 q 400 344 429 340 q 415 238 403 286 q 461 140 428 190 m 450 600 q 413 510 422 557 q 400 413 403 464 q 433 412 417 413 q 465 411 449 411 q 483 445 478 421 q 488 498 489 469 q 477 555 486 526 q 450 600 468 583 z "},"f":{"ha":586,"x_min":8,"x_max":564,"o":"m 432 753 q 516 738 485 753 q 550 706 547 724 q 526 670 553 688 q 435 647 499 653 q 439 588 436 618 q 443 528 442 557 q 447 354 447 440 q 440 181 446 268 q 440 115 438 149 q 438 49 443 81 q 390 1 432 17 q 294 -16 347 -15 q 192 -3 240 -17 q 125 36 143 10 q 116 70 121 42 q 108 131 111 99 q 101 190 104 164 q 99 221 99 217 q 97 297 94 258 q 101 372 100 335 q 100 505 103 439 q 97 638 97 571 q 54 647 78 640 q 19 671 31 654 q 18 697 8 686 q 45 714 28 707 q 81 724 63 721 q 106 731 99 728 q 182 926 122 835 q 242 978 207 958 q 315 1008 276 999 q 395 1017 354 1018 q 474 1003 436 1015 q 516 985 497 996 q 554 956 535 975 q 563 938 564 946 q 553 926 561 931 q 535 918 546 921 q 517 915 525 915 q 474 919 493 915 q 435 929 454 924 q 427 892 429 915 q 426 844 425 869 q 428 794 426 819 q 432 753 429 769 z "},"g":{"ha":1011,"x_min":29,"x_max":946,"o":"m 508 -318 q 424 -314 468 -318 q 338 -298 379 -310 q 260 -267 296 -286 q 199 -215 224 -247 q 179 -169 183 -197 q 199 -125 175 -140 q 252 -106 219 -108 q 313 -110 285 -103 q 358 -134 339 -117 q 393 -171 378 -151 q 426 -197 406 -186 q 471 -212 446 -207 q 523 -217 496 -218 q 575 -210 550 -217 q 560 -154 569 -182 q 543 -98 551 -126 q 528 -40 535 -69 q 525 21 522 -10 q 444 -8 482 -4 q 358 -10 406 -11 q 279 -1 319 -8 q 202 22 239 7 q 133 59 165 36 q 79 114 101 82 q 58 156 68 131 q 42 211 49 182 q 33 268 36 240 q 29 315 29 296 q 37 422 29 372 q 63 515 44 472 q 115 594 82 558 q 199 660 149 631 q 234 672 211 667 q 288 685 257 678 q 431 693 358 700 q 568 654 503 686 q 601 697 572 681 q 672 722 631 714 q 760 729 713 731 q 847 718 807 728 q 915 690 888 708 q 943 647 942 672 q 942 583 946 615 q 935 519 938 551 q 919 322 926 421 q 910 124 911 222 q 910 102 910 118 q 912 65 911 86 q 913 22 913 44 q 914 -21 914 -1 q 915 -58 915 -42 q 912 -88 914 -74 q 905 -118 910 -103 q 894 -153 900 -133 q 822 -253 875 -212 q 701 -303 768 -294 q 599 -317 646 -315 q 508 -318 551 -318 m 471 592 q 429 478 440 538 q 415 353 418 418 q 422 251 414 301 q 449 154 429 201 q 470 172 461 164 q 488 188 479 179 q 505 206 496 196 q 525 226 514 215 q 538 391 528 310 q 553 556 547 472 q 515 574 540 563 q 471 592 490 585 z "},"h":{"ha":1065,"x_min":71,"x_max":1001,"o":"m 794 735 q 934 649 878 713 q 996 497 990 586 q 992 323 1001 408 q 976 149 982 238 q 978 115 975 133 q 981 80 981 97 q 975 48 981 63 q 951 24 969 33 q 870 -8 908 0 q 783 -14 832 -15 q 731 -10 763 -14 q 669 3 700 -7 q 616 28 639 13 q 590 71 593 44 q 588 130 588 90 q 592 219 589 169 q 599 320 594 268 q 607 417 603 372 q 616 487 611 460 q 628 534 621 514 q 646 574 636 554 q 669 626 656 594 q 610 558 638 594 q 559 485 583 522 q 512 409 535 447 q 464 333 489 371 q 463 310 464 331 q 460 258 463 289 q 456 192 458 228 q 449 124 453 156 q 440 66 444 92 q 429 32 435 40 q 364 -8 413 6 q 260 -19 315 -21 q 157 -4 206 -18 q 90 38 108 10 q 75 92 79 54 q 71 179 71 131 q 74 282 71 228 q 83 385 78 336 q 92 475 88 435 q 99 535 96 515 q 110 676 106 606 q 114 818 114 746 q 110 864 114 840 q 108 908 107 888 q 120 947 110 929 q 158 975 131 964 q 222 992 185 986 q 298 997 258 997 q 376 988 338 996 q 442 967 414 981 q 471 944 463 956 q 483 915 479 932 q 486 877 486 899 q 490 828 486 856 q 492 758 492 794 q 491 687 492 721 q 489 624 490 653 q 486 578 488 594 q 550 656 517 621 q 621 712 583 690 q 701 740 658 733 q 794 735 744 747 z "},"i":{"ha":568,"x_min":92,"x_max":488,"o":"m 125 686 q 194 712 151 704 q 283 717 238 719 q 372 705 329 715 q 442 675 414 694 q 468 649 460 663 q 479 618 476 635 q 483 581 482 601 q 486 536 483 561 q 488 440 488 492 q 486 340 488 389 q 482 251 485 292 q 478 189 479 211 q 476 153 476 179 q 474 104 476 128 q 459 56 471 74 q 415 25 447 39 q 351 12 388 15 q 275 10 314 8 q 200 17 236 13 q 138 29 164 22 q 112 45 118 35 q 105 70 106 56 q 106 102 104 85 q 104 138 108 119 q 99 198 101 168 q 97 260 97 228 q 97 303 97 268 q 97 386 97 339 q 97 485 97 433 q 97 575 97 536 q 94 613 97 597 q 92 641 92 629 q 99 663 93 653 q 125 686 106 674 m 118 914 q 146 951 121 936 q 206 972 171 965 q 283 978 242 979 q 358 970 324 978 q 416 947 393 963 q 440 908 439 931 q 444 866 442 888 q 435 825 446 844 q 397 797 424 808 q 336 780 369 785 q 266 776 303 775 q 198 785 229 778 q 144 809 167 793 q 118 849 122 825 q 115 881 115 864 q 118 914 115 899 z "},"j":{"ha":529,"x_min":-121,"x_max":465,"o":"m 99 -179 q 103 -110 104 -147 q 99 -33 103 -72 q 89 45 94 7 q 82 117 83 83 q 78 251 78 183 q 75 385 78 318 q 71 520 72 453 q 69 656 69 588 q 90 690 69 676 q 126 711 110 704 q 190 728 156 722 q 262 732 225 733 q 333 724 299 731 q 396 706 368 718 q 431 685 415 697 q 450 649 447 672 q 458 528 457 588 q 461 407 460 468 q 464 289 463 349 q 458 171 465 229 q 450 117 456 143 q 442 63 444 90 q 436 1 438 32 q 431 -60 435 -29 q 419 -119 428 -90 q 394 -176 411 -149 q 343 -234 375 -207 q 279 -275 311 -261 q 192 -299 238 -293 q 103 -302 147 -304 q 19 -291 60 -300 q -54 -271 -22 -282 q -97 -246 -79 -262 q -117 -212 -114 -229 q -108 -181 -121 -196 q -64 -161 -96 -167 q 99 -179 17 -143 m 360 793 q 299 779 340 783 q 215 780 258 775 q 139 799 172 785 q 103 843 106 814 q 103 860 103 850 q 107 883 104 871 q 113 905 110 894 q 121 921 117 915 q 173 952 136 940 q 253 965 210 964 q 336 958 296 967 q 397 929 376 950 q 416 894 413 914 q 413 853 419 874 q 393 817 407 833 q 360 793 379 800 z "},"k":{"ha":839,"x_min":71,"x_max":808,"o":"m 431 500 q 485 552 458 525 q 535 608 511 579 q 574 658 554 633 q 615 706 593 683 q 644 720 624 714 q 688 728 665 726 q 729 725 710 729 q 757 708 749 721 q 764 683 765 696 q 756 658 763 671 q 742 633 750 646 q 729 610 735 621 q 635 491 692 547 q 528 388 578 435 q 592 364 556 381 q 663 325 628 347 q 727 277 699 303 q 769 225 756 251 q 796 147 789 189 q 806 64 803 106 q 808 24 807 44 q 788 -7 808 4 q 729 -27 765 -19 q 655 -35 693 -35 q 583 -24 617 -35 q 533 11 550 -14 q 524 35 528 19 q 519 68 521 50 q 517 106 518 86 q 514 143 515 126 q 490 226 508 183 q 429 300 471 269 q 422 231 426 278 q 408 137 417 185 q 388 49 400 89 q 360 -1 376 8 q 307 -21 340 -14 q 236 -29 274 -28 q 163 -24 199 -31 q 100 -3 126 -18 q 75 26 79 10 q 74 62 71 43 q 83 100 78 81 q 86 138 89 119 q 99 415 100 276 q 88 693 99 554 q 80 799 83 746 q 79 906 76 853 q 105 942 81 928 q 165 964 129 957 q 243 970 201 971 q 320 962 285 969 q 381 938 356 954 q 407 900 406 922 q 419 700 414 800 q 431 500 425 600 z "},"l":{"ha":524,"x_min":68,"x_max":457,"o":"m 454 861 q 455 687 457 774 q 447 513 453 600 q 431 353 443 433 q 410 194 419 274 q 404 132 406 163 q 399 69 403 101 q 374 36 396 50 q 319 15 351 22 q 250 9 288 8 q 181 17 213 10 q 126 38 149 24 q 100 75 103 53 q 92 162 93 118 q 88 249 92 206 q 74 387 81 318 q 71 525 68 456 q 76 593 72 558 q 78 661 79 628 q 75 715 78 676 q 72 795 72 753 q 76 877 72 838 q 93 936 81 917 q 149 972 107 960 q 242 988 192 985 q 344 982 293 990 q 426 956 394 974 q 449 935 443 946 q 456 913 454 925 q 456 888 457 900 q 454 861 454 875 z "},"m":{"ha":1428,"x_min":69,"x_max":1363,"o":"m 464 251 q 464 207 464 236 q 462 146 464 178 q 456 86 460 114 q 444 49 453 58 q 372 6 424 19 q 262 -6 319 -7 q 152 10 204 -6 q 79 56 100 26 q 70 80 71 67 q 72 107 69 93 q 78 296 83 200 q 74 486 72 392 q 75 542 74 514 q 74 597 76 569 q 74 649 71 622 q 97 696 78 676 q 169 729 122 719 q 266 738 215 739 q 363 726 317 738 q 432 699 408 715 q 451 674 446 688 q 458 644 457 660 q 458 613 458 629 q 458 581 457 596 q 497 651 472 618 q 551 708 521 685 q 618 742 582 731 q 693 747 654 753 q 813 710 756 739 q 901 622 871 681 q 926 649 911 635 q 957 675 940 663 q 990 697 974 688 q 1022 711 1007 707 q 1163 722 1092 731 q 1292 665 1235 714 q 1346 581 1335 628 q 1354 479 1357 533 q 1353 365 1350 421 q 1360 251 1357 310 q 1362 183 1361 217 q 1363 115 1363 149 q 1361 90 1363 103 q 1351 65 1360 76 q 1278 23 1331 36 q 1167 10 1225 10 q 1056 27 1108 11 q 983 72 1004 43 q 976 101 978 81 q 973 145 974 122 q 972 190 972 168 q 971 224 972 213 q 967 275 969 246 q 964 335 965 304 q 963 394 963 365 q 964 444 963 424 q 967 482 965 463 q 968 519 969 501 q 941 481 953 501 q 917 442 929 461 q 911 280 910 361 q 899 119 913 199 q 878 58 893 88 q 826 15 864 29 q 790 5 807 8 q 753 -1 772 1 q 713 -2 736 -3 q 667 2 690 -1 q 622 12 643 6 q 586 29 600 18 q 563 49 571 40 q 551 70 556 58 q 544 97 547 82 q 538 133 542 111 q 536 197 538 165 q 535 260 535 228 q 540 361 536 311 q 549 463 544 411 q 505 350 525 404 q 464 251 485 296 z "},"n":{"ha":1042,"x_min":69,"x_max":972,"o":"m 468 263 q 463 151 468 204 q 446 40 457 97 q 403 -7 440 11 q 317 -31 367 -25 q 213 -30 267 -36 q 122 -4 160 -24 q 82 29 94 10 q 72 81 69 49 l 81 264 q 79 453 83 360 q 79 643 75 547 q 109 686 81 669 q 179 711 138 703 q 269 719 221 719 q 360 709 318 718 q 430 681 401 700 q 460 636 458 663 l 464 540 q 508 592 488 568 q 554 644 529 617 q 609 692 585 678 q 669 713 633 706 q 767 713 717 718 q 856 689 817 708 q 899 663 882 675 q 935 626 915 650 q 962 561 954 601 q 971 478 969 521 q 969 392 972 435 q 964 321 967 350 q 960 253 961 286 q 960 185 960 219 q 962 117 960 150 q 967 49 964 83 q 946 10 968 26 q 887 -15 924 -6 q 806 -25 850 -24 q 722 -21 763 -26 q 647 -2 681 -15 q 601 33 614 11 q 590 65 594 44 q 584 106 586 85 q 581 149 582 128 q 581 183 581 171 q 585 338 579 261 q 592 492 592 414 q 562 447 579 476 q 526 382 544 417 q 492 315 508 347 q 468 263 476 282 z "},"o":{"ha":772,"x_min":35,"x_max":721,"o":"m 76 139 q 48 210 57 164 q 36 306 39 257 q 35 361 36 339 q 37 404 35 383 q 44 448 39 425 q 60 506 49 471 q 131 621 81 574 q 240 700 181 668 q 290 719 263 713 q 348 726 318 725 q 408 725 378 728 q 463 718 438 722 q 533 714 499 722 q 599 688 567 706 q 682 606 657 654 q 711 504 707 558 q 718 369 715 438 q 710 235 721 301 q 667 127 700 174 q 585 51 633 81 q 480 9 538 21 q 364 6 422 -3 q 285 15 325 6 q 206 40 244 24 q 135 82 168 57 q 76 139 101 107 m 407 585 q 398 473 407 528 q 392 360 389 418 q 394 299 393 331 q 399 238 394 268 q 415 181 404 208 q 444 128 425 153 q 491 156 474 136 q 518 199 508 175 q 533 250 528 224 q 542 299 538 276 q 551 355 546 324 q 558 419 556 386 q 560 482 561 451 q 550 536 558 513 q 532 576 540 557 q 512 610 524 594 q 482 634 500 625 q 435 646 464 643 q 414 619 421 638 q 407 585 407 600 z "},"p":{"ha":1051,"x_min":72,"x_max":982,"o":"m 449 79 q 438 -70 440 4 q 443 -219 436 -144 q 436 -281 446 -251 q 390 -322 426 -311 q 331 -338 364 -333 q 262 -342 297 -343 q 192 -335 226 -342 q 133 -318 158 -329 q 101 -297 113 -308 q 85 -272 90 -286 q 80 -242 81 -258 q 79 -207 79 -226 q 76 -5 72 -104 q 90 196 79 94 q 106 394 100 292 q 97 596 113 497 q 90 629 94 613 q 85 662 85 646 q 92 691 85 678 q 122 714 100 704 q 185 734 149 728 q 263 739 222 740 q 342 729 303 738 q 411 708 382 721 q 447 676 439 696 q 463 629 456 656 q 471 585 468 607 q 476 540 474 563 q 510 594 493 567 q 550 644 528 621 q 585 681 568 663 q 622 713 603 700 q 665 734 642 726 q 718 740 688 742 q 806 732 764 740 q 882 706 849 724 q 938 658 915 688 q 969 588 961 629 q 981 492 979 543 q 979 404 982 440 l 968 249 q 956 167 964 200 q 931 107 949 133 q 884 59 914 81 q 806 11 854 38 q 746 -5 786 1 q 665 -11 706 -11 q 554 9 608 -11 q 449 79 500 29 m 628 526 q 583 453 603 492 q 545 376 564 415 q 507 299 526 338 q 465 225 488 260 q 533 172 500 201 q 600 114 567 142 q 619 320 611 218 q 628 526 626 422 z "},"q":{"ha":1014,"x_min":33,"x_max":949,"o":"m 324 721 q 438 710 383 726 q 543 667 492 694 q 581 703 551 690 q 644 721 610 715 q 713 726 679 726 q 768 725 747 726 q 888 676 839 717 q 942 553 936 636 q 946 444 949 500 q 940 336 943 389 q 940 222 938 278 q 938 108 942 167 q 926 -29 932 39 q 914 -167 919 -97 q 913 -194 914 -172 q 910 -242 913 -217 q 906 -290 908 -268 q 897 -318 903 -312 q 860 -342 883 -333 q 812 -356 838 -351 q 760 -360 786 -360 q 715 -358 735 -361 q 659 -345 689 -356 q 613 -312 629 -335 q 603 -277 607 -307 q 597 -206 600 -247 q 593 -115 594 -164 q 590 -22 592 -67 q 588 58 589 22 q 586 110 586 94 q 543 67 572 89 q 483 31 514 44 q 382 6 433 8 q 272 8 331 3 q 200 26 233 11 q 138 65 167 42 q 88 119 110 89 q 49 181 65 149 q 35 290 33 233 q 43 400 38 346 q 63 511 50 454 q 107 617 76 568 q 150 665 125 646 q 204 695 175 683 q 264 713 233 707 q 324 721 294 718 m 431 171 q 472 221 451 192 q 510 283 492 250 q 543 348 528 315 q 569 408 558 381 q 570 465 571 436 q 567 522 569 494 q 521 560 543 542 q 474 594 499 578 q 447 509 458 558 q 429 408 436 460 q 424 345 425 375 q 423 287 422 315 q 426 230 424 258 q 431 171 428 201 z "},"r":{"ha":865,"x_min":71,"x_max":842,"o":"m 189 8 q 159 18 175 13 q 129 32 143 24 q 105 52 115 40 q 92 82 94 64 q 72 374 72 229 q 71 665 71 518 q 97 706 71 689 q 164 731 124 722 q 251 739 204 739 q 338 730 297 739 q 407 703 379 721 q 438 660 435 686 l 440 596 q 453 614 444 603 q 472 637 463 625 q 492 659 482 649 q 507 675 501 669 q 540 695 519 688 q 583 708 560 703 q 632 713 607 713 q 679 711 657 714 q 764 681 724 704 q 825 617 804 658 q 841 550 840 586 q 826 481 842 514 q 780 426 811 449 q 701 399 749 403 q 602 407 649 394 q 525 456 556 419 q 480 408 503 444 q 443 315 457 371 q 444 223 440 268 q 453 131 449 178 q 444 63 456 94 q 393 19 432 32 q 344 7 371 13 q 291 -1 318 1 q 238 -1 264 -3 q 189 8 211 1 z "},"s":{"ha":807,"x_min":18,"x_max":785,"o":"m 347 113 q 392 162 374 129 q 410 228 410 194 q 390 285 411 261 q 315 310 368 310 q 207 326 261 310 q 125 369 153 342 q 62 494 68 426 q 79 639 56 563 q 132 737 96 692 q 221 801 168 782 q 356 833 279 825 q 499 838 433 842 q 562 828 535 835 q 612 809 589 821 q 656 782 635 797 q 701 747 678 767 q 725 717 715 733 q 738 681 735 700 q 735 642 740 663 q 713 600 729 622 q 685 585 704 589 q 647 583 665 581 q 617 597 628 586 q 614 631 606 608 q 613 663 619 647 q 594 690 607 678 q 564 713 581 703 q 532 728 547 722 q 488 683 506 706 q 459 635 469 661 q 445 577 449 610 q 446 500 442 544 q 526 410 460 451 q 689 342 592 369 q 728 324 711 333 q 758 301 746 315 q 776 265 769 286 q 783 210 782 243 q 775 158 785 185 q 751 108 765 131 q 685 35 724 63 q 601 -8 646 8 q 510 -29 557 -24 q 418 -36 463 -35 q 383 -35 400 -37 q 349 -32 367 -32 q 264 -22 308 -31 q 176 1 219 -14 q 97 40 133 17 q 33 92 60 63 q 24 131 18 108 q 51 164 31 154 q 114 186 81 179 q 190 168 147 193 q 228 139 211 156 q 261 110 244 122 q 298 97 278 99 q 347 113 318 94 z "},"t":{"ha":640,"x_min":17,"x_max":619,"o":"m 114 674 q 88 672 107 672 q 51 676 68 671 q 25 693 33 682 q 18 715 17 704 q 30 736 19 726 q 58 750 40 746 q 92 750 75 754 q 117 749 110 746 q 118 778 117 758 q 120 821 119 799 q 119 862 121 843 q 111 889 117 881 q 105 910 104 897 q 113 931 106 924 q 186 973 142 960 q 278 986 231 986 q 372 975 326 986 q 450 943 418 964 q 476 918 471 929 q 486 883 481 907 q 497 808 493 851 q 494 733 501 764 q 583 722 551 736 q 617 692 615 708 q 589 660 619 675 q 490 646 558 646 q 478 508 482 576 q 463 371 475 440 q 446 250 451 311 q 432 129 440 189 q 471 140 447 135 q 515 140 494 144 q 551 125 540 136 q 560 100 561 114 q 549 72 560 86 q 522 46 539 58 q 453 10 490 24 q 376 -7 415 -3 q 297 -5 336 -11 q 222 18 257 1 q 136 84 169 43 q 93 192 103 125 q 88 339 82 267 q 100 479 93 411 q 106 576 104 528 q 114 674 108 625 z "},"u":{"ha":1064,"x_min":65,"x_max":1006,"o":"m 499 13 q 427 -26 468 -17 q 342 -31 386 -36 q 257 -7 299 -25 q 182 36 215 11 q 156 58 165 49 q 138 78 146 67 q 125 103 131 89 q 114 143 119 118 q 80 283 94 222 q 72 396 65 343 q 78 447 76 424 q 79 494 79 471 q 79 541 79 517 q 79 594 79 565 q 82 642 79 625 q 94 682 85 660 q 153 720 111 707 q 247 735 196 733 q 349 730 297 738 q 435 704 400 722 q 458 684 451 696 q 467 659 465 672 q 467 631 468 646 q 465 601 465 617 q 463 511 465 556 q 460 421 461 467 q 453 348 458 385 q 444 275 449 311 q 439 204 440 239 q 446 136 438 169 q 497 217 472 168 q 542 321 521 267 q 581 428 563 375 q 617 524 600 482 q 614 594 614 560 q 614 665 614 629 q 634 702 614 688 q 687 726 654 717 q 759 737 719 735 q 838 735 799 739 q 910 722 876 732 q 964 699 944 713 q 985 669 981 686 q 978 635 990 653 q 985 419 978 526 q 990 204 993 313 q 993 135 989 171 q 994 67 997 100 q 992 27 1006 44 q 951 -1 979 10 q 884 -16 922 -11 q 807 -19 846 -21 q 734 -8 768 -17 q 681 18 700 1 q 656 61 665 31 q 642 127 647 92 q 633 195 636 163 q 629 243 631 228 q 578 117 610 178 q 499 13 546 57 z "},"v":{"ha":746,"x_min":40,"x_max":722,"o":"m 172 36 q 113 118 135 67 q 81 228 92 169 q 65 345 69 286 q 57 450 60 404 q 52 507 54 479 q 47 563 50 535 q 43 590 46 575 q 41 617 40 604 q 47 643 42 631 q 64 665 51 656 q 138 698 90 689 q 235 703 185 707 q 331 685 286 700 q 394 646 375 669 q 409 619 407 631 q 414 589 411 607 q 425 497 422 543 q 431 406 428 451 q 438 315 433 360 q 451 224 442 269 q 492 360 476 290 q 522 499 507 429 q 540 593 533 546 q 556 686 546 640 q 588 713 561 706 q 644 719 614 721 q 699 708 675 718 q 722 683 722 699 q 715 603 721 654 q 699 491 710 553 q 674 363 689 429 q 642 234 660 296 q 606 122 625 172 q 564 44 586 72 q 504 -1 540 15 q 431 -22 468 -18 q 293 -19 360 -31 q 172 36 226 -8 z "},"w":{"ha":1167,"x_min":72,"x_max":1122,"o":"m 765 69 q 791 129 781 96 q 808 200 801 163 q 819 276 815 238 q 828 351 824 315 q 826 464 835 419 q 804 542 817 508 q 784 607 792 576 q 788 678 776 638 q 835 726 796 711 q 924 744 875 742 q 1018 735 972 746 q 1088 706 1064 724 q 1114 651 1106 690 q 1121 561 1122 613 q 1110 452 1119 510 q 1086 342 1101 394 q 1031 190 1064 264 q 951 68 997 117 q 862 6 914 28 q 754 -12 810 -15 q 653 17 701 -10 q 581 93 604 43 q 536 38 561 65 q 476 -3 511 10 q 378 -23 428 -21 q 283 -18 329 -25 q 132 79 181 1 q 94 173 104 121 q 76 275 83 225 q 74 358 72 317 q 79 442 76 400 q 83 525 82 483 q 79 608 85 567 q 75 633 78 621 q 72 657 72 646 q 79 680 72 668 q 103 703 86 692 q 165 724 128 717 q 244 731 203 732 q 328 723 286 731 q 403 699 369 715 q 432 670 424 688 q 443 631 440 653 q 449 519 451 578 q 441 401 447 461 q 428 283 435 342 q 421 174 421 225 q 449 224 433 196 q 480 279 464 251 q 513 331 496 307 q 546 371 529 356 q 581 399 560 389 q 626 411 603 410 q 669 404 649 413 q 700 375 689 396 q 706 344 706 365 q 707 299 707 324 q 707 251 707 275 q 710 214 707 228 q 728 138 717 174 q 765 69 740 103 z "},"x":{"ha":792,"x_min":22,"x_max":763,"o":"m 497 600 q 530 647 513 624 q 564 693 547 669 q 582 718 575 708 q 597 733 589 728 q 616 742 604 739 q 647 746 628 744 q 677 744 656 746 q 719 738 699 743 q 751 724 739 733 q 751 699 763 714 q 662 577 708 636 q 568 458 615 518 q 574 441 569 454 q 584 409 578 428 q 597 369 590 390 q 610 326 603 347 q 630 258 621 289 q 649 200 639 228 q 671 144 658 172 q 703 82 683 115 q 748 31 750 61 q 701 -18 746 1 q 647 -32 675 -29 q 590 -35 618 -35 q 501 -22 540 -35 q 419 17 463 -8 q 357 80 379 40 q 321 163 335 119 q 290 129 313 151 q 238 83 267 107 q 176 37 208 60 q 113 0 143 14 q 63 -12 85 -12 q 32 -2 42 -12 q 27 28 22 8 q 57 74 32 47 q 114 141 81 104 q 179 211 147 178 q 238 271 211 244 q 272 308 264 297 q 246 391 258 349 q 215 474 233 433 q 193 522 204 497 q 167 567 182 546 q 134 605 153 589 q 89 629 115 621 q 69 639 79 632 q 47 664 58 646 q 43 691 38 679 q 63 713 49 703 q 135 738 90 731 q 221 739 181 744 q 299 725 260 733 q 375 701 339 717 q 442 662 411 686 q 497 600 474 638 z "},"y":{"ha":986,"x_min":69,"x_max":915,"o":"m 581 111 q 535 44 565 71 q 466 3 504 18 q 385 -15 428 -11 q 304 -12 343 -18 q 190 22 238 -4 q 103 104 142 47 q 76 193 83 133 q 69 321 69 253 q 72 454 69 389 q 75 558 75 519 q 74 588 75 567 q 74 631 74 608 q 75 672 74 653 q 81 696 76 690 q 144 737 100 725 q 240 749 189 749 q 339 738 290 749 q 414 708 388 726 q 439 660 432 696 q 448 583 446 625 q 448 501 450 540 q 444 440 446 461 q 444 282 440 361 q 457 117 449 203 q 520 181 493 143 q 569 263 547 218 q 570 333 569 288 q 572 431 571 379 q 576 536 574 483 q 582 628 579 589 q 599 692 586 672 q 636 717 611 711 q 694 729 661 725 q 763 733 728 733 q 830 727 797 733 q 886 708 863 721 q 908 688 903 700 q 915 663 914 676 q 913 635 915 650 q 911 607 911 621 q 911 458 914 532 q 901 310 908 385 q 901 213 897 261 q 910 115 906 164 q 914 17 914 67 q 901 -82 914 -32 q 850 -194 886 -142 q 763 -283 814 -246 q 660 -324 725 -310 q 523 -340 596 -337 q 379 -335 450 -343 q 257 -308 308 -326 q 215 -283 232 -300 q 194 -249 199 -267 q 201 -217 190 -232 q 244 -199 213 -203 q 276 -191 260 -193 q 308 -189 293 -189 q 351 -195 333 -189 q 388 -209 369 -201 q 433 -224 407 -217 q 499 -232 458 -231 q 567 -177 550 -217 q 586 -87 585 -137 q 582 16 588 -37 q 581 111 576 69 z "},"z":{"ha":760,"x_min":22,"x_max":735,"o":"m 589 153 q 622 143 608 150 q 650 129 635 136 q 674 108 667 122 q 678 77 682 93 q 660 48 675 61 q 619 29 646 35 q 546 15 586 19 q 462 9 506 11 q 373 8 418 7 q 286 10 328 8 q 233 9 260 10 q 181 10 207 8 q 130 16 156 11 q 79 32 104 21 q 42 57 54 43 q 26 88 29 71 q 26 124 22 104 q 38 168 29 144 q 64 213 42 182 q 117 283 86 243 q 183 367 147 322 q 251 453 218 411 q 312 530 285 494 q 353 588 339 565 q 291 595 326 588 q 219 613 256 603 q 198 597 204 606 q 176 581 192 588 q 148 572 164 574 q 114 575 132 571 q 80 587 96 579 q 51 607 64 594 q 35 632 40 617 q 40 660 31 647 q 79 688 51 675 q 132 707 107 700 q 253 720 190 722 q 376 717 317 718 q 449 719 407 717 q 534 722 490 722 q 620 717 578 722 q 694 696 663 713 q 728 658 721 682 q 719 608 735 633 q 676 519 704 567 q 616 424 647 471 q 553 335 585 378 q 500 261 522 292 q 449 198 476 228 q 401 132 421 168 q 447 132 425 128 q 490 142 468 136 q 537 153 513 149 q 589 153 561 157 z "},"{":{"ha":714,"x_min":81,"x_max":671,"o":"m 651 1089 q 667 1063 671 1079 q 646 1043 663 1047 q 626 1042 636 1040 q 606 1045 615 1043 q 590 1047 597 1047 q 578 1039 582 1046 q 563 1001 567 1019 q 560 963 560 983 q 560 919 560 942 q 558 868 561 896 q 558 799 556 838 q 564 721 561 761 q 568 642 567 681 q 564 575 569 604 q 537 490 556 529 q 464 418 518 450 q 519 346 500 388 q 539 256 539 304 q 536 174 542 215 q 529 90 531 133 q 526 2 526 46 q 540 -83 526 -42 q 559 -87 547 -83 q 582 -96 571 -90 q 606 -129 608 -108 q 585 -161 603 -150 q 542 -180 565 -175 q 494 -187 518 -185 q 415 -189 454 -190 q 336 -172 375 -187 q 290 -154 308 -162 q 258 -137 272 -146 q 229 -114 243 -128 q 199 -78 215 -100 q 179 -19 185 -51 q 173 46 174 13 q 175 113 172 79 q 182 175 178 146 q 194 249 188 215 q 203 322 200 282 q 204 352 204 335 q 207 381 204 369 q 192 385 203 382 q 170 390 182 388 q 147 396 158 393 q 126 403 135 399 q 93 422 106 410 q 81 449 81 435 q 92 475 81 463 q 132 496 104 488 q 203 507 164 506 q 213 665 218 583 q 208 825 208 746 q 217 904 208 864 q 244 981 226 944 q 288 1047 261 1017 q 349 1094 314 1076 q 416 1115 376 1108 q 499 1119 456 1121 q 582 1110 542 1118 q 651 1089 622 1103 z "},"|":{"ha":514,"x_min":92,"x_max":432,"o":"m 113 1076 q 135 1110 113 1096 q 190 1131 157 1124 q 261 1138 222 1138 q 334 1132 300 1139 q 392 1110 368 1125 q 421 1071 417 1094 q 431 933 432 1004 q 428 793 431 861 l 418 396 q 419 319 418 372 q 423 200 421 267 q 426 62 425 133 q 428 -72 428 -10 q 424 -181 428 -135 q 413 -239 421 -226 q 393 -256 406 -249 q 366 -269 381 -264 q 336 -277 351 -274 q 311 -282 321 -281 q 217 -281 264 -287 q 129 -249 169 -275 q 115 -228 118 -240 q 108 -203 111 -217 q 106 -147 106 -175 q 107 -90 106 -118 q 103 44 107 -22 q 99 181 100 113 q 94 317 97 249 q 97 513 92 415 q 106 708 103 610 l 113 1076 l 113 1076 z "},"}":{"ha":692,"x_min":67,"x_max":619,"o":"m 213 994 q 178 993 199 993 q 138 997 158 993 q 99 1009 117 1001 q 74 1029 82 1017 q 71 1049 67 1040 q 85 1065 75 1058 q 106 1076 94 1072 q 126 1082 118 1081 q 212 1093 167 1090 q 301 1089 257 1096 q 384 1063 344 1082 q 453 1011 424 1044 q 503 938 486 971 q 527 871 521 904 q 530 799 533 838 q 519 713 526 761 q 511 540 507 626 q 586 525 546 539 q 610 509 601 519 q 619 488 619 499 q 610 466 619 476 q 583 451 601 456 q 526 433 557 440 q 479 422 494 426 q 483 374 481 399 q 489 325 485 349 q 508 227 496 288 q 527 102 521 167 q 526 -20 533 38 q 486 -107 519 -78 q 379 -167 438 -151 q 256 -179 321 -182 q 238 -177 246 -179 q 219 -175 229 -175 q 160 -172 193 -175 q 106 -153 126 -169 q 93 -137 97 -146 q 96 -118 89 -129 q 132 -96 106 -103 q 179 -87 158 -89 q 197 -53 192 -74 q 204 -8 203 -32 q 204 42 206 17 q 203 88 203 67 q 190 168 199 124 q 176 257 182 213 q 172 344 171 301 q 186 421 172 388 q 203 442 189 431 q 225 461 218 454 q 217 470 224 464 q 203 483 211 476 q 187 499 194 490 q 175 517 179 508 q 165 577 165 540 q 169 653 165 614 q 179 730 174 693 q 188 790 185 767 q 196 842 189 815 q 209 894 203 868 q 217 945 215 919 q 213 994 219 971 z "},"~":{"ha":969,"x_min":61,"x_max":908,"o":"m 894 885 q 901 840 908 861 q 872 799 893 818 q 822 765 851 781 q 761 740 792 750 q 572 724 661 707 q 406 803 482 740 q 393 785 397 793 q 383 772 389 778 q 370 760 378 765 q 349 749 363 754 q 225 726 283 722 q 121 750 167 729 q 78 782 96 761 q 79 832 61 803 q 102 867 88 853 q 150 899 117 881 q 338 951 239 946 q 529 906 438 956 q 560 888 540 899 q 586 869 579 878 q 638 928 615 911 q 699 950 661 944 q 757 950 726 954 q 815 937 788 946 q 865 914 843 928 q 894 885 886 900 z "},"":{"ha":1035,"x_min":47,"x_max":1007,"o":"m 624 128 q 650 175 638 151 q 674 225 663 199 q 685 260 682 242 q 692 296 689 278 q 702 330 696 314 q 722 361 708 346 q 759 383 738 378 q 804 386 781 388 q 871 372 850 385 q 896 338 892 360 q 894 286 900 317 q 881 218 888 256 q 868 147 874 178 q 842 81 863 117 q 778 18 818 40 q 692 -12 739 -4 q 597 -18 646 -21 q 508 -4 549 -15 q 456 9 483 3 q 406 28 429 15 q 312 83 353 54 q 235 161 271 113 q 189 264 201 207 q 169 375 176 321 q 120 378 146 378 q 72 389 94 378 q 56 398 65 392 q 47 414 47 404 q 63 436 47 429 q 99 445 79 443 q 138 447 118 447 q 167 446 158 446 q 165 500 167 474 q 161 553 164 526 l 160 554 q 129 558 143 556 q 104 564 115 561 q 71 578 83 567 q 57 603 58 590 q 67 628 56 617 q 106 640 79 639 q 161 636 128 642 q 185 768 161 701 q 276 882 210 835 q 333 917 307 904 q 381 939 358 931 q 428 953 404 947 q 479 968 451 960 q 610 986 539 985 q 747 971 681 988 q 870 917 814 954 q 960 819 926 881 q 972 793 965 810 q 984 759 978 776 q 994 725 990 742 q 1001 697 999 708 q 981 653 1007 669 q 920 630 956 638 q 848 622 885 622 q 794 624 811 621 q 743 636 767 628 q 694 660 719 644 q 675 683 681 668 q 679 711 669 697 q 642 803 667 756 q 589 882 617 851 q 557 844 565 872 q 546 782 549 817 q 542 710 543 747 q 536 644 542 674 q 606 633 576 643 q 629 621 622 631 q 635 601 636 611 q 626 581 635 590 q 603 568 617 571 q 575 564 590 565 q 540 561 560 563 q 543 519 542 540 q 547 478 544 499 q 583 485 563 482 q 623 487 603 488 q 662 482 643 486 q 694 468 681 478 q 706 448 707 460 q 693 429 704 436 q 663 417 681 422 q 624 407 644 411 q 585 399 604 403 q 551 393 565 396 q 556 316 553 350 q 568 251 560 282 q 590 190 576 219 q 624 128 604 161 z "},"":{"ha":489,"x_min":68,"x_max":425,"o":"m 410 225 q 381 164 399 197 q 342 99 363 131 q 299 42 321 68 q 261 4 278 17 q 217 -10 246 -7 q 161 -8 188 -12 q 119 6 135 -4 q 114 32 103 17 q 158 90 138 63 q 197 150 178 117 q 131 169 165 154 q 82 214 97 183 q 70 246 72 233 q 74 279 68 258 q 103 333 82 311 q 155 368 125 356 q 219 385 185 381 q 284 388 253 390 q 342 376 315 385 q 383 353 368 367 q 417 295 408 329 q 410 225 425 261 z "},"":{"ha":954,"x_min":31,"x_max":931,"o":"m 144 96 q 172 178 163 136 q 183 265 182 221 q 183 361 186 314 q 181 457 181 408 q 133 456 161 454 q 78 465 106 458 q 42 483 54 471 q 31 510 31 496 q 42 536 31 524 q 76 553 53 549 q 131 567 103 564 q 182 571 160 571 q 195 636 188 610 q 213 683 203 663 q 234 723 222 704 q 260 765 246 742 q 287 819 272 790 q 319 874 301 847 q 357 924 338 901 q 399 961 376 947 q 496 1000 444 990 q 599 1005 547 1010 q 700 982 650 1000 q 793 935 750 964 q 840 897 819 918 q 881 853 860 876 q 906 813 897 835 q 922 767 915 790 q 923 727 931 743 q 897 700 915 711 q 853 683 879 689 q 799 674 828 676 q 738 672 769 671 q 678 677 706 672 q 627 691 650 682 q 593 714 604 700 q 565 756 575 736 q 551 796 556 775 q 542 840 546 817 q 535 893 539 864 q 479 783 486 842 q 485 687 472 736 q 514 585 499 638 q 588 588 554 585 q 663 581 622 592 q 697 569 681 576 q 724 546 713 563 q 715 506 739 521 q 654 483 692 490 q 579 472 617 475 q 529 469 542 469 q 543 306 544 394 q 522 143 542 218 q 477 47 515 85 q 388 -11 439 8 q 243 -38 321 -37 q 100 -11 165 -39 q 81 -3 92 -7 q 63 8 71 1 q 49 22 54 14 q 44 39 43 29 q 78 87 49 76 q 143 96 108 97 l 146 101 l 144 96 l 144 96 z "},"":{"ha":885,"x_min":68,"x_max":821,"o":"m 410 225 q 381 164 399 197 q 342 99 363 131 q 299 42 321 68 q 261 4 278 17 q 217 -10 246 -7 q 161 -8 188 -12 q 119 6 135 -4 q 114 32 103 17 q 158 90 138 63 q 197 150 178 117 q 131 169 165 154 q 82 214 97 183 q 70 246 72 233 q 74 279 68 258 q 103 333 82 311 q 155 368 125 356 q 219 385 185 381 q 284 388 253 390 q 342 376 315 385 q 383 353 368 367 q 417 295 408 329 q 410 225 425 261 m 806 225 q 776 164 794 197 q 738 99 758 131 q 695 42 717 68 q 657 4 674 17 q 613 -10 642 -7 q 557 -8 583 -12 q 515 6 531 -4 q 510 32 499 17 q 553 90 533 63 q 593 150 574 117 q 527 169 561 154 q 478 214 493 183 q 466 246 468 233 q 469 279 464 258 q 499 333 478 311 q 551 368 521 356 q 615 385 581 381 q 680 388 649 390 q 738 376 711 385 q 779 353 764 367 q 813 295 804 329 q 806 225 821 261 z "},"":{"ha":824,"x_min":54,"x_max":786,"o":"m 186 39 q 235 46 211 43 q 269 50 260 49 q 265 153 264 100 q 267 257 267 207 q 266 453 267 356 q 263 649 265 550 l 261 649 q 194 646 232 644 q 119 653 156 647 q 70 674 86 658 q 55 708 54 690 q 73 740 56 725 q 125 757 90 754 q 197 772 160 768 q 256 776 233 776 q 255 819 254 799 q 258 858 256 839 q 263 888 261 872 q 270 916 265 903 q 284 940 275 929 q 310 957 293 951 q 382 979 340 972 q 467 985 424 986 q 550 974 511 983 q 613 947 589 964 q 637 911 636 931 q 632 865 638 892 q 633 801 631 835 q 636 753 635 768 q 682 747 660 751 q 728 733 704 742 q 756 715 739 729 q 771 688 772 701 q 753 660 769 671 q 717 641 738 649 q 674 630 696 633 q 640 626 653 626 q 639 438 640 531 q 638 249 638 344 q 638 213 638 239 q 638 159 638 188 q 637 107 638 131 q 635 78 636 83 q 674 74 646 78 q 728 63 703 71 q 770 40 754 54 q 772 4 786 26 q 746 -17 764 -8 q 706 -31 728 -25 q 663 -40 685 -36 q 628 -44 642 -43 q 620 -165 621 -104 q 618 -286 619 -225 q 609 -306 618 -297 q 592 -322 600 -315 q 531 -346 568 -339 q 453 -352 493 -353 q 377 -342 414 -351 q 317 -317 340 -333 q 297 -290 303 -303 q 288 -261 290 -276 q 284 -228 285 -246 q 279 -190 283 -211 q 275 -111 276 -153 q 274 -50 274 -69 l 219 -42 q 176 -37 201 -46 q 138 -14 151 -28 q 131 15 124 0 q 186 39 139 31 z "},"":{"ha":686,"x_min":54,"x_max":635,"o":"m 410 797 q 376 757 393 776 q 338 722 358 738 q 276 701 317 708 q 192 694 236 693 q 112 707 149 696 q 61 743 75 718 q 56 760 57 750 q 61 779 54 771 q 108 835 88 807 q 150 894 129 863 q 169 925 160 911 q 194 950 179 939 q 240 974 214 964 q 294 988 265 983 q 353 992 324 993 q 410 985 383 990 q 475 963 444 976 q 529 921 506 950 q 552 882 543 903 q 569 840 561 861 q 587 799 578 819 q 613 763 596 779 q 633 724 632 743 q 599 701 635 704 q 572 697 585 699 q 554 696 560 696 q 499 703 519 696 q 465 725 479 711 q 440 758 451 739 q 410 797 428 776 z "},"":{"ha":2197,"x_min":50,"x_max":2129,"o":"m 1167 826 q 1140 783 1153 806 q 1113 738 1128 761 q 1051 626 1079 685 q 996 511 1024 568 q 906 328 950 419 q 801 156 863 238 q 781 117 789 138 q 765 76 774 96 q 746 38 757 56 q 714 10 735 19 q 673 -3 696 1 q 627 -8 650 -7 q 583 -10 604 -10 q 549 -7 563 -10 q 515 -1 535 -6 q 478 10 496 3 q 448 30 461 18 q 433 60 435 42 q 443 104 432 72 q 468 172 454 136 q 496 240 482 208 q 515 285 510 272 l 594 472 q 665 637 629 551 q 751 797 700 722 q 799 875 776 835 q 853 949 821 915 q 913 971 876 963 q 991 981 950 979 q 1073 978 1032 983 q 1147 961 1114 974 q 1185 935 1175 951 q 1195 901 1196 919 q 1186 863 1194 882 q 1167 826 1178 843 m 1038 0 q 974 49 1000 18 q 932 121 947 81 q 913 210 914 169 q 922 287 911 250 q 958 357 933 324 q 1015 426 982 390 q 1058 467 1035 447 q 1108 496 1081 486 q 1211 512 1156 511 q 1311 492 1267 513 q 1335 479 1322 486 q 1351 458 1347 472 q 1456 415 1417 453 q 1511 322 1496 376 q 1517 206 1526 268 q 1475 90 1508 143 q 1385 -1 1442 36 q 1247 -42 1328 -37 q 1140 -33 1197 -44 q 1038 0 1083 -22 m 551 953 q 618 930 588 946 q 665 878 649 914 q 683 807 682 842 q 676 733 685 772 q 616 607 658 651 q 517 544 574 563 q 392 528 460 525 q 257 542 325 531 q 205 554 232 546 q 153 576 178 563 q 108 608 128 589 q 81 654 89 628 q 58 738 67 694 q 65 825 50 782 q 115 924 85 883 q 203 988 144 964 q 283 1007 233 1000 q 384 1011 332 1014 q 482 995 436 1008 q 551 953 528 982 m 2115 347 q 2128 285 2126 318 q 2123 219 2129 253 q 2103 151 2117 185 q 2074 89 2090 118 q 1968 -6 2033 21 q 1826 -32 1903 -33 q 1710 -7 1765 -29 q 1611 60 1654 15 q 1563 138 1575 97 q 1554 221 1550 179 q 1574 305 1558 263 q 1610 388 1590 347 q 1636 440 1622 413 q 1681 476 1650 467 q 1778 492 1726 492 q 1875 472 1829 493 q 1913 474 1894 474 q 1950 472 1931 475 q 2053 434 2010 461 q 2115 346 2096 407 l 2115 347 m 1207 233 q 1208 183 1207 203 q 1212 149 1208 164 q 1222 120 1215 135 q 1243 85 1229 106 q 1293 151 1276 117 q 1311 229 1310 185 q 1306 303 1314 265 q 1278 365 1299 340 q 1255 335 1267 350 q 1232 303 1243 319 q 1214 270 1221 288 q 1207 233 1207 253 m 1842 242 q 1843 171 1838 207 q 1864 113 1849 135 q 1897 169 1888 142 q 1914 235 1907 196 q 1916 308 1919 271 q 1889 368 1913 344 q 1863 306 1878 332 q 1842 242 1847 279 m 396 753 q 394 735 397 747 q 390 708 392 724 q 392 674 389 693 q 408 638 394 656 q 450 692 436 661 q 468 761 464 722 q 469 792 468 775 q 468 824 469 810 q 461 849 467 839 q 443 857 456 858 q 416 808 426 832 q 396 753 406 783 z "},"":{"ha":671,"x_min":64,"x_max":604,"o":"m 435 543 q 485 274 406 401 q 524 215 507 238 q 574 172 542 192 q 591 154 585 165 q 598 131 597 143 q 592 108 599 119 q 574 92 586 97 q 505 67 546 75 q 421 60 464 58 q 338 71 378 61 q 272 101 299 81 q 181 191 222 140 q 112 300 139 242 q 74 422 85 358 q 76 550 64 486 q 127 700 93 633 q 213 810 161 767 q 335 873 265 854 q 494 882 406 892 q 521 878 506 881 q 551 869 536 875 q 577 856 565 864 q 596 838 589 847 q 597 810 604 824 q 579 790 590 797 q 483 680 517 749 q 435 543 449 611 z "},"":{"ha":1279,"x_min":26,"x_max":1264,"o":"m 1061 -6 q 938 -4 999 -8 q 814 18 876 0 q 758 37 786 26 q 708 67 731 47 q 578 2 643 17 q 431 -4 513 -12 q 206 82 300 10 q 56 271 113 154 q 44 305 49 286 q 38 339 40 324 q 27 456 26 394 q 40 581 28 518 q 73 703 51 643 q 128 813 94 763 q 218 910 168 875 q 344 961 268 944 q 510 971 431 979 q 650 913 589 963 q 674 938 661 921 q 710 960 688 954 q 760 970 732 968 q 816 970 788 972 q 872 961 844 968 q 924 944 900 954 q 985 949 956 949 q 1046 949 1014 949 q 1102 947 1068 949 q 1168 939 1136 946 q 1203 923 1190 935 q 1215 897 1215 911 q 1204 871 1215 883 q 1169 851 1193 858 q 1124 844 1150 846 q 1072 844 1099 843 q 1020 848 1046 846 q 975 851 994 850 q 983 695 981 772 q 985 539 985 618 q 1019 544 999 543 q 1062 546 1039 546 q 1108 543 1085 546 q 1153 535 1132 540 q 1187 515 1175 529 q 1200 487 1199 501 q 1190 459 1201 472 q 1157 440 1179 446 q 1113 426 1138 432 q 1065 419 1089 421 q 1020 417 1042 417 q 985 419 999 417 q 981 347 983 383 q 979 274 978 310 q 987 202 981 238 q 1011 136 993 167 q 1063 162 1029 156 q 1122 167 1097 168 q 1163 163 1144 167 q 1200 153 1182 158 q 1235 126 1218 147 q 1258 80 1253 104 q 1254 33 1264 56 q 1210 6 1244 11 q 1169 -1 1186 1 q 1135 -3 1151 -3 q 1102 -5 1119 -4 q 1061 -6 1085 -6 m 413 542 q 410 425 413 485 q 413 309 407 365 q 437 201 418 253 q 497 111 456 150 q 599 256 565 179 q 635 433 632 332 q 634 507 636 475 q 627 567 632 539 q 613 623 622 596 q 589 683 603 650 q 553 753 574 719 q 517 822 532 786 q 472 753 489 785 q 445 689 456 721 q 428 622 435 657 q 413 542 421 588 z "},"":{"ha":456,"x_min":60,"x_max":418,"o":"m 310 838 q 358 817 332 835 q 396 779 385 799 q 408 709 418 739 q 368 659 397 679 q 297 630 339 639 q 212 623 254 621 q 133 639 169 625 q 78 679 96 653 q 63 730 60 706 q 74 782 65 754 q 97 847 83 818 q 128 901 110 876 q 171 944 146 925 q 232 978 196 963 q 274 986 243 983 q 331 986 304 989 q 367 969 365 983 q 349 938 368 956 q 338 915 344 929 q 324 887 331 901 q 314 859 318 872 q 310 838 310 846 z "},"":{"ha":489,"x_min":68,"x_max":425,"o":"m 410 854 q 381 793 399 826 q 342 728 363 760 q 299 672 321 697 q 261 633 278 646 q 217 619 246 622 q 161 621 188 617 q 119 635 135 625 q 114 661 103 646 q 158 719 138 692 q 197 779 178 746 q 131 798 165 783 q 82 843 97 813 q 70 875 72 863 q 74 908 68 888 q 103 963 82 940 q 155 997 125 985 q 219 1015 185 1010 q 284 1017 253 1019 q 342 1005 315 1014 q 383 982 368 996 q 417 924 408 958 q 410 854 425 890 z "},"":{"ha":856,"x_min":50,"x_max":811,"o":"m 300 838 q 349 817 322 835 q 386 779 375 799 q 398 709 408 739 q 358 659 388 679 q 287 630 329 639 q 202 623 244 621 q 123 639 160 625 q 68 679 86 653 q 53 730 50 706 q 64 782 56 754 q 87 847 74 818 q 118 901 100 876 q 161 944 136 925 q 222 978 186 963 q 264 986 233 983 q 321 986 294 989 q 357 969 356 983 q 339 938 358 956 q 328 915 335 929 q 315 887 321 901 q 304 859 308 872 q 300 838 300 846 m 703 838 q 751 817 725 835 q 789 779 778 799 q 801 709 811 739 q 761 659 790 679 q 690 630 732 639 q 605 623 647 621 q 526 639 563 625 q 471 679 489 653 q 456 730 453 706 q 467 782 458 754 q 490 847 476 818 q 521 901 503 876 q 564 944 539 925 q 625 978 589 963 q 667 986 636 983 q 724 986 697 989 q 760 969 758 983 q 742 938 761 956 q 731 915 738 929 q 717 887 724 901 q 707 859 711 872 q 703 838 703 846 z "},"":{"ha":863,"x_min":50,"x_max":810,"o":"m 392 854 q 363 793 381 826 q 324 728 344 760 q 281 672 303 697 q 243 633 260 646 q 199 619 228 622 q 143 621 169 617 q 101 635 117 625 q 96 661 85 646 q 140 719 119 692 q 179 779 160 746 q 113 798 147 783 q 64 843 79 813 q 52 875 54 863 q 56 908 50 888 q 85 963 64 940 q 137 997 107 985 q 201 1015 167 1010 q 266 1017 235 1019 q 324 1005 297 1014 q 365 982 350 996 q 399 924 390 958 q 392 854 407 890 m 794 854 q 765 793 783 826 q 726 728 747 760 q 684 672 706 697 q 646 633 663 646 q 601 619 631 622 q 546 621 572 617 q 503 635 519 625 q 499 661 488 646 q 542 719 522 692 q 582 779 563 746 q 516 798 550 783 q 467 843 482 813 q 455 875 457 863 q 458 908 453 888 q 488 963 467 940 q 540 997 510 985 q 603 1015 569 1010 q 669 1017 638 1019 q 726 1005 700 1014 q 768 982 753 996 q 801 924 793 958 q 794 854 810 890 z "},"":{"ha":760,"x_min":49,"x_max":717,"o":"m 704 547 q 717 499 717 525 q 709 445 717 472 q 688 394 701 418 q 660 353 675 369 q 537 277 614 303 q 378 253 460 251 q 220 282 296 254 q 99 364 144 310 q 63 430 76 390 q 49 504 49 469 q 101 638 49 589 q 231 705 154 686 q 394 716 308 724 q 549 681 481 708 q 639 628 601 660 q 704 547 676 597 z "},"":{"ha":911,"x_min":35,"x_max":874,"o":"m 626 514 q 701 508 656 515 q 790 501 747 501 q 840 487 819 501 q 867 453 861 472 q 864 414 874 433 q 822 386 854 394 q 783 372 803 378 q 743 361 764 365 q 688 356 715 357 q 632 354 660 354 q 545 354 600 354 q 426 354 490 354 q 294 356 361 354 q 171 363 226 358 q 81 385 115 367 q 41 428 47 404 q 60 475 35 451 q 150 513 85 499 q 221 519 183 519 q 294 517 258 519 q 363 510 331 514 q 422 510 396 507 q 524 513 474 514 q 626 514 574 511 z "},"":{"ha":1178,"x_min":43,"x_max":1140,"o":"m 133 386 q 65 410 86 390 q 44 453 43 431 q 69 497 46 476 q 135 522 92 518 q 223 528 179 528 q 310 527 267 528 q 398 527 354 526 q 486 532 442 528 q 610 535 542 535 q 750 531 679 535 q 890 520 821 528 q 1018 500 960 513 q 1094 472 1065 490 q 1132 435 1124 454 q 1126 397 1140 415 q 1074 368 1113 378 q 977 349 1031 353 q 879 358 924 344 q 782 375 838 371 q 665 379 726 379 q 538 377 604 379 q 410 375 472 375 q 338 380 369 379 q 274 381 306 381 q 210 381 243 381 q 133 386 176 382 z "},"":{"ha":701,"x_min":46,"x_max":658,"o":"m 186 767 q 170 748 188 754 q 131 741 153 742 q 87 745 108 740 q 60 761 65 750 q 47 806 49 782 q 53 853 46 831 q 74 897 61 876 q 106 932 88 918 q 174 963 136 951 q 251 976 211 974 q 328 969 290 978 q 399 943 367 961 q 448 908 426 926 q 493 867 469 890 q 507 898 501 882 q 521 929 513 914 q 551 955 532 949 q 590 956 569 961 q 626 938 610 951 q 650 901 643 924 q 647 845 658 876 q 610 768 636 814 q 568 729 596 742 q 472 713 524 711 q 371 732 421 715 q 277 777 321 749 q 204 840 233 806 q 186 767 182 810 z "},"":{"ha":1294,"x_min":22,"x_max":1244,"o":"m 815 853 q 815 815 815 833 q 818 776 815 796 q 826 715 821 746 q 826 654 831 685 q 820 640 825 644 q 808 629 815 635 q 754 612 792 618 q 679 607 717 606 q 612 621 642 608 q 579 660 582 633 q 574 727 576 693 q 568 794 571 761 q 566 833 567 813 q 569 874 565 854 q 581 913 572 894 q 606 942 589 931 q 640 956 622 953 q 678 963 658 960 q 715 966 693 965 q 757 960 736 967 q 851 925 811 943 q 929 869 892 907 q 977 907 953 889 q 1029 936 1001 925 q 1081 949 1051 944 q 1140 948 1111 953 q 1193 928 1169 943 q 1226 888 1217 914 q 1237 836 1235 864 q 1239 779 1239 808 q 1239 722 1239 750 q 1242 667 1239 693 q 1232 635 1244 646 q 1204 619 1219 625 q 1151 611 1179 611 q 1099 622 1122 611 q 1071 645 1082 631 q 1069 682 1060 660 q 1076 730 1072 703 q 1083 783 1081 757 q 1085 832 1085 810 q 1083 865 1086 854 q 1025 817 1054 844 q 965 783 996 790 q 899 782 929 774 q 857 809 878 786 q 815 853 836 832 m 192 890 q 144 866 175 867 q 85 875 114 865 q 40 901 57 885 q 31 928 22 917 q 95 956 47 949 q 199 965 143 964 q 306 963 254 965 q 383 963 358 961 q 433 963 407 964 q 482 953 460 963 q 513 918 514 938 q 483 896 513 899 q 437 886 460 889 q 394 883 414 883 q 410 838 403 871 q 422 758 418 804 q 424 735 422 751 q 428 702 426 719 q 431 670 431 685 q 426 651 431 656 q 374 622 408 632 q 301 613 339 613 q 228 624 263 614 q 178 656 194 635 q 173 671 175 660 q 169 695 171 682 q 168 720 168 708 q 168 738 168 732 q 172 783 168 758 q 181 828 176 807 q 190 867 186 850 q 192 890 193 883 z "},"":{"ha":639,"x_min":67,"x_max":569,"o":"m 213 343 q 209 575 239 465 q 104 788 179 685 q 69 825 72 807 q 84 858 67 843 q 134 881 101 872 q 206 890 167 889 q 288 881 246 890 q 364 851 329 872 q 386 834 374 844 q 411 811 399 824 q 435 786 424 799 q 454 764 446 774 q 540 618 511 701 q 569 450 569 535 q 563 372 569 417 q 541 281 556 326 q 505 194 526 235 q 454 126 483 153 q 338 74 406 82 q 210 82 271 67 q 181 91 196 85 q 153 108 165 97 q 138 132 142 118 q 142 163 133 146 q 190 268 174 225 q 213 343 206 311 z "},"":{"ha":1269,"x_min":25,"x_max":1240,"o":"m 974 122 q 999 138 982 125 q 1022 158 1015 151 l 1028 164 q 1086 193 1049 185 q 1158 198 1124 201 q 1213 179 1192 194 q 1219 136 1233 164 q 1119 33 1186 67 q 975 -6 1053 0 q 819 8 897 -11 q 686 64 742 26 q 631 13 664 35 q 560 -22 597 -8 q 485 -40 524 -35 q 417 -44 447 -46 q 250 -22 331 -47 q 173 8 206 -10 q 117 51 140 26 q 77 110 93 76 q 49 188 61 143 q 28 358 25 271 q 60 529 29 457 q 144 649 90 601 q 274 719 199 696 q 443 742 350 742 q 499 740 469 742 q 556 731 528 738 q 608 710 583 724 q 649 675 632 697 q 669 667 658 672 q 686 656 679 663 q 798 713 736 700 q 926 725 860 725 q 1001 717 961 725 q 1080 692 1042 708 q 1151 651 1118 675 q 1207 594 1185 626 q 1226 561 1215 583 q 1235 526 1236 539 q 1238 509 1235 518 q 1240 488 1240 500 q 1236 463 1240 476 q 1218 436 1232 450 q 1157 392 1192 408 q 1084 367 1122 375 q 1006 355 1046 358 q 931 350 967 351 l 928 350 q 931 292 929 325 q 939 226 933 258 q 953 165 944 193 q 974 122 961 138 m 592 289 q 588 374 589 329 q 596 456 586 418 q 578 517 589 485 q 543 590 567 549 q 528 588 536 589 q 514 588 521 588 q 460 529 478 550 q 433 489 442 508 q 422 444 425 469 q 411 375 418 419 q 409 299 408 339 q 415 224 410 260 q 432 156 421 188 q 460 104 443 125 q 506 133 485 113 q 543 178 526 153 q 572 233 560 204 q 592 289 585 263 m 972 586 q 943 511 950 551 q 932 426 936 471 q 968 433 947 428 q 1006 447 989 438 q 1033 472 1024 457 q 1035 510 1043 488 q 1008 553 1022 540 q 972 586 994 567 z "},"":{"ha":533,"x_min":67,"x_max":469,"o":"m 218 -319 q 181 -315 204 -319 q 133 -300 157 -310 q 92 -276 110 -290 q 74 -243 75 -261 q 69 -79 67 -162 q 74 85 71 4 q 73 162 72 128 q 76 226 74 196 q 83 286 78 257 q 94 350 88 315 q 123 390 97 374 q 186 413 149 406 q 267 421 224 421 q 349 412 311 421 q 413 386 386 403 q 444 344 440 369 q 462 224 454 282 q 463 99 469 165 l 460 -74 l 454 -246 q 440 -276 454 -264 q 407 -298 426 -289 q 367 -312 388 -307 q 332 -318 346 -317 q 306 -319 324 -319 q 272 -319 289 -319 q 239 -319 254 -319 q 218 -319 224 -319 m 82 557 q 74 576 76 563 q 72 603 72 589 q 73 630 72 617 q 74 650 74 643 q 84 678 74 667 q 109 697 94 689 q 140 711 124 706 q 169 719 157 717 q 237 729 197 726 q 317 726 276 732 q 391 707 357 721 q 442 667 425 693 q 451 622 454 646 q 443 574 447 597 q 388 506 435 526 q 282 485 340 485 q 167 505 224 486 q 82 557 111 524 z "},"":{"ha":810,"x_min":51,"x_max":760,"o":"m 400 822 q 399 860 399 833 q 401 910 399 886 q 406 943 404 932 q 428 961 407 954 q 491 971 453 971 q 553 960 529 971 q 575 937 572 950 q 571 900 578 924 q 552 846 564 874 q 536 806 540 818 q 549 800 540 804 q 568 791 558 796 q 586 781 578 786 q 597 774 594 776 q 638 739 618 757 q 671 701 657 721 q 691 660 685 682 q 690 611 697 638 q 670 583 686 594 q 637 569 654 572 q 603 573 619 567 q 583 599 588 579 q 568 651 576 629 q 528 692 560 672 q 491 646 507 675 q 465 581 475 617 q 449 506 454 546 q 444 429 444 467 q 447 353 444 382 q 455 303 449 325 q 475 260 461 282 q 513 203 489 238 q 562 283 551 239 q 576 381 572 328 q 587 413 579 400 q 614 433 594 426 q 654 442 632 440 q 697 438 676 443 q 733 423 718 433 q 753 397 749 413 q 759 353 758 378 q 757 304 760 329 q 749 255 754 279 q 738 211 743 231 q 709 160 728 183 q 665 122 690 138 q 588 90 629 100 q 504 74 546 79 q 508 53 507 63 q 514 33 510 44 q 518 8 518 22 q 494 -17 518 -7 q 458 -26 479 -24 q 415 -28 438 -29 q 371 -22 392 -26 q 335 -7 350 -17 q 319 15 317 4 q 325 38 322 26 q 333 64 328 49 q 336 81 338 79 q 307 88 321 83 q 278 96 293 92 q 134 178 183 124 q 65 332 85 233 q 55 413 58 371 q 60 497 51 456 q 75 575 68 540 q 94 641 82 610 q 129 703 107 672 q 190 769 151 733 q 233 796 208 786 q 285 811 257 806 q 343 819 314 817 q 400 822 372 821 z "},"":{"ha":908,"x_min":60,"x_max":881,"o":"m 743 860 q 772 755 775 813 q 728 653 768 697 q 700 639 719 644 q 661 633 681 633 q 630 640 642 633 q 626 663 618 647 q 641 690 633 676 q 649 717 649 703 q 640 783 654 753 q 601 842 625 814 q 553 722 569 789 q 528 569 536 656 q 551 572 536 572 q 585 569 567 572 q 621 563 603 567 q 654 556 639 560 q 683 542 675 551 q 688 522 690 532 q 673 504 685 513 q 643 494 661 496 q 579 493 615 492 q 522 492 543 494 q 516 397 519 440 q 506 313 513 354 q 490 229 500 271 q 465 140 481 188 l 546 124 q 574 175 574 139 q 563 243 575 211 q 553 272 558 256 q 547 303 549 288 q 551 330 546 318 q 572 347 557 342 q 624 360 592 358 q 683 360 656 363 q 757 338 728 356 q 821 299 786 321 q 851 263 840 286 q 868 219 863 240 q 867 133 881 169 q 824 69 854 96 q 753 27 794 43 q 667 3 713 11 q 578 -4 622 -4 q 501 1 535 -4 q 441 16 468 8 q 382 35 414 24 q 301 0 350 13 q 197 -12 251 -14 q 104 3 143 -11 q 75 23 85 10 q 63 53 65 36 q 60 86 60 69 q 64 117 61 103 q 83 176 69 149 q 103 233 96 203 q 115 300 111 268 q 122 365 119 332 q 127 431 125 397 q 133 503 129 464 q 113 511 126 506 q 88 524 99 517 q 74 545 72 533 q 90 560 75 557 q 114 565 101 564 q 138 565 126 567 q 146 628 140 592 q 161 703 151 665 q 183 776 171 742 q 211 832 196 811 q 231 858 222 847 q 256 879 240 868 q 360 939 300 915 q 482 967 419 963 q 639 945 574 974 q 743 860 704 917 z "},"":{"ha":874,"x_min":44,"x_max":835,"o":"m 390 790 q 468 791 428 796 q 540 779 508 786 q 556 796 549 786 q 569 814 563 806 q 622 849 593 840 q 685 856 650 858 q 740 849 711 854 q 786 821 769 844 q 788 802 793 811 q 775 786 783 793 l 649 700 q 732 635 699 674 q 783 551 765 597 q 803 454 800 506 q 793 350 806 403 q 779 300 786 322 q 761 260 772 278 q 733 227 750 242 q 689 199 715 213 q 747 152 721 176 q 807 107 774 128 q 833 72 831 92 q 811 36 835 51 q 765 20 793 24 q 708 19 738 17 q 653 26 679 21 q 614 38 628 32 q 587 56 599 43 q 565 84 575 68 q 547 117 554 100 q 533 146 539 133 q 475 140 504 142 q 417 140 446 139 q 403 98 410 117 q 385 58 396 79 q 340 29 374 39 q 267 19 306 19 q 193 27 228 18 q 149 56 158 36 q 144 72 146 63 q 149 88 143 81 q 166 108 156 96 q 188 132 176 119 q 210 156 199 144 q 231 174 222 167 q 144 215 183 193 q 74 279 106 238 q 49 345 54 306 q 49 426 44 385 q 63 508 53 468 q 82 575 72 547 q 106 619 90 596 q 140 665 121 643 q 181 706 160 688 q 219 738 201 725 q 199 757 210 749 q 178 774 189 765 q 158 791 168 782 q 142 815 149 800 q 145 849 132 835 q 184 869 158 863 q 242 877 210 876 q 305 872 275 878 q 357 851 335 865 q 382 817 379 838 q 390 790 383 803 m 450 267 q 528 343 508 290 q 547 457 547 396 q 538 538 547 499 q 500 613 528 578 q 453 538 469 574 q 432 449 438 501 q 429 351 426 392 q 450 267 432 310 z "},"":{"ha":840,"x_min":42,"x_max":792,"o":"m 182 94 q 155 103 161 96 q 151 118 149 110 q 165 133 154 126 q 189 142 175 140 q 230 149 208 147 q 265 149 251 150 q 265 165 265 153 q 265 192 265 178 q 265 217 265 206 q 263 231 264 228 l 185 244 q 158 258 165 249 q 153 275 151 267 q 165 290 156 283 q 188 297 174 297 q 224 299 206 301 q 263 297 243 297 q 263 317 263 301 q 263 349 263 332 q 263 381 263 367 q 265 399 264 396 q 213 417 238 408 q 167 437 189 425 q 126 465 146 449 q 89 508 107 481 q 60 575 71 536 q 46 656 50 614 q 42 738 42 697 q 47 811 43 779 q 54 847 50 829 q 60 883 58 865 q 83 928 63 914 q 128 953 104 943 q 179 962 150 960 q 240 962 208 964 q 301 953 271 960 q 354 935 331 946 q 385 901 381 922 q 383 856 390 879 q 376 787 379 822 q 374 715 374 751 q 381 608 374 657 q 422 513 388 558 q 464 597 444 551 q 497 689 483 642 q 518 784 511 736 q 525 878 525 832 q 526 916 525 897 q 549 944 528 935 q 590 960 567 954 q 638 965 613 965 q 686 958 663 964 q 728 939 710 951 q 766 910 747 926 q 783 867 785 893 q 789 811 786 843 q 792 756 792 779 q 785 699 792 735 q 764 621 778 663 q 731 538 750 579 q 686 467 711 496 q 631 428 661 444 q 576 407 600 413 q 579 360 576 383 q 581 314 582 338 q 628 304 604 307 q 675 290 651 301 q 695 278 685 286 q 706 258 706 269 q 690 235 706 243 q 653 225 674 228 q 613 223 633 222 q 583 225 593 224 q 584 194 583 210 q 585 164 585 179 q 607 163 592 164 q 641 160 622 163 q 679 155 660 158 q 714 146 699 151 q 736 131 731 140 q 738 112 742 121 q 725 95 735 103 q 703 85 715 88 q 635 83 668 78 q 585 85 603 88 l 585 21 q 561 -15 585 0 q 503 -35 538 -29 q 426 -41 468 -42 q 350 -33 385 -40 q 292 -10 315 -25 q 268 26 268 4 l 268 78 q 244 86 253 83 q 226 90 235 89 q 208 92 218 92 q 182 94 199 93 z "},"":{"ha":542,"x_min":69,"x_max":475,"o":"m 140 954 q 271 978 201 982 q 406 943 340 975 q 439 915 424 935 q 444 876 454 896 q 442 851 442 867 q 443 817 442 835 q 446 782 444 799 q 449 756 447 765 q 467 610 460 678 q 464 471 475 543 q 446 413 458 442 q 401 372 433 383 q 341 356 375 361 q 270 350 307 350 q 194 356 233 350 q 119 375 156 361 q 78 414 86 388 q 85 468 69 440 q 94 513 92 492 q 96 561 97 535 q 88 631 94 588 q 77 724 82 675 q 73 819 72 772 q 86 900 74 867 q 106 933 96 924 q 140 954 117 943 m 82 171 q 101 207 86 196 q 139 226 117 218 q 273 247 200 250 q 408 222 346 243 q 456 184 440 211 q 460 125 471 157 q 456 49 457 88 q 456 -28 456 10 q 453 -105 456 -67 q 446 -181 451 -143 q 446 -231 453 -210 q 423 -267 439 -251 q 384 -292 407 -282 q 336 -307 361 -301 q 247 -314 289 -318 q 161 -290 206 -310 q 128 -274 146 -283 q 100 -249 110 -265 q 94 -227 96 -240 q 93 -201 93 -214 q 92 -174 93 -187 q 89 -150 92 -161 q 81 -104 82 -126 q 78 -58 81 -82 q 74 3 75 -25 q 72 58 72 31 q 75 112 72 85 q 82 171 78 139 z "},"":{"ha":703,"x_min":75,"x_max":622,"o":"m 528 1079 q 565 1046 550 1067 q 588 1002 579 1025 q 600 956 597 979 q 601 917 603 933 q 583 893 599 901 q 548 885 567 885 q 515 896 529 886 q 503 926 500 906 q 495 974 506 950 q 465 1019 485 999 q 453 983 458 1006 q 444 935 447 961 q 442 881 442 908 q 449 832 443 854 q 480 743 461 779 q 520 672 499 707 q 563 598 542 638 q 600 500 585 558 q 616 420 610 465 q 619 331 622 375 q 599 248 617 286 q 544 189 582 210 q 608 93 594 151 q 608 -25 622 35 q 556 -135 594 -85 q 465 -207 518 -185 q 397 -232 433 -219 q 325 -247 360 -244 q 262 -246 300 -249 q 188 -232 224 -243 q 125 -200 151 -221 q 99 -146 99 -179 q 102 -124 97 -135 q 114 -106 107 -114 q 166 -66 136 -75 q 238 -67 196 -57 q 260 -81 253 -69 q 267 -107 267 -92 q 289 -165 267 -142 q 323 -151 308 -162 q 340 -111 338 -139 q 332 -54 344 -78 q 301 -10 319 -31 q 263 31 282 11 q 231 78 243 51 q 139 222 176 149 q 93 379 101 296 q 90 449 90 411 q 97 525 90 488 q 119 595 104 563 q 164 651 135 628 q 113 749 138 701 q 81 857 88 797 q 87 940 75 900 q 122 1012 99 979 q 176 1068 144 1044 q 244 1103 208 1092 q 388 1123 315 1126 q 528 1079 461 1119 m 306 379 q 373 321 338 346 q 440 261 408 296 q 424 361 444 324 q 358 439 403 399 q 324 474 343 454 q 288 513 306 494 q 254 547 269 532 q 233 569 239 563 q 251 468 232 521 q 306 379 271 415 z "},"":{"ha":836,"x_min":32,"x_max":789,"o":"m 343 949 q 387 922 367 939 q 407 878 407 906 q 385 824 407 846 q 331 791 364 803 q 256 776 297 779 q 176 779 215 774 q 106 799 138 785 q 57 833 74 813 q 47 854 50 843 q 40 876 43 865 q 47 933 32 910 q 90 971 61 957 q 157 989 119 985 q 231 990 194 993 q 298 976 268 988 q 343 949 328 965 m 788 856 q 768 815 789 832 q 714 790 747 799 q 641 780 681 781 q 566 788 601 779 q 505 813 531 796 q 474 856 479 829 q 479 920 465 893 q 519 964 493 947 q 578 988 544 981 q 645 995 613 996 q 705 985 678 994 q 744 960 732 976 q 774 912 763 936 q 788 856 785 888 z "},"":{"ha":986,"x_min":49,"x_max":943,"o":"m 918 617 q 925 565 918 589 q 937 518 932 542 q 942 469 942 494 q 931 417 943 444 q 840 301 901 350 q 701 224 779 251 q 535 190 622 196 q 365 200 447 183 q 212 258 282 217 q 100 365 142 299 q 51 511 54 438 q 77 651 49 585 q 160 774 106 718 q 283 866 214 829 q 428 918 351 903 q 579 919 506 933 q 645 907 618 913 q 694 894 672 901 q 733 876 715 886 q 772 851 751 867 q 826 804 800 831 q 872 748 851 778 q 904 685 892 718 q 918 617 917 651 m 356 267 q 437 248 394 251 q 520 250 479 244 q 599 269 561 256 q 671 303 638 283 q 758 377 718 332 q 822 474 799 422 q 839 526 833 497 q 844 586 844 556 q 833 646 843 617 q 806 699 824 675 q 699 801 753 767 q 574 856 646 836 q 464 856 521 869 q 356 817 407 842 q 305 778 338 807 q 241 708 272 749 q 188 622 210 668 q 168 535 165 576 q 222 370 175 439 q 356 267 269 301 m 526 472 q 580 492 554 485 q 638 501 606 500 q 681 495 661 503 q 711 476 701 488 q 717 449 721 464 q 692 419 714 433 q 593 378 654 390 q 469 374 532 367 q 352 409 406 382 q 276 485 299 436 q 263 551 263 515 q 279 617 264 586 q 377 722 314 688 q 515 757 440 756 q 558 755 536 757 q 602 748 581 753 q 642 734 624 743 q 672 713 661 725 q 688 683 688 696 q 680 661 689 669 q 655 651 671 653 q 619 658 639 650 q 586 668 599 667 q 566 667 574 669 q 552 656 558 664 q 536 639 546 649 q 510 602 521 624 q 495 558 499 581 q 499 512 492 535 q 526 472 506 489 z "},"":{"ha":950,"x_min":53,"x_max":901,"o":"m 729 485 q 736 398 726 443 q 765 311 746 353 q 813 233 785 269 q 875 172 842 197 q 894 156 888 167 q 900 132 900 144 q 894 108 900 119 q 875 92 888 97 q 806 67 847 75 q 722 60 765 58 q 640 71 679 61 q 574 101 600 81 q 482 191 524 140 q 413 300 440 242 q 376 422 386 358 q 378 550 365 485 q 410 658 389 607 q 463 753 431 710 q 540 827 496 796 q 643 875 585 858 q 688 881 660 879 q 748 883 717 883 q 810 877 779 882 q 865 864 842 872 q 888 848 879 858 q 899 826 897 838 q 896 804 901 815 q 875 788 890 793 q 770 650 804 728 q 729 485 736 572 m 386 211 q 409 198 400 207 q 420 178 418 189 q 416 158 422 168 q 393 142 410 147 q 323 130 357 129 q 261 139 289 131 q 176 187 213 153 q 113 265 139 221 q 74 360 88 310 q 57 457 60 411 q 63 560 53 515 q 94 642 74 604 q 144 717 115 681 q 210 794 174 753 q 236 812 219 806 q 272 820 253 818 q 311 820 292 822 q 344 814 331 818 q 363 804 358 810 q 368 792 368 799 q 365 776 368 785 q 356 758 361 768 q 317 683 335 717 q 287 617 299 650 q 270 547 275 583 q 269 467 265 511 q 279 396 274 429 q 297 332 285 363 q 331 272 310 301 q 386 211 353 242 z "},"":{"ha":1108,"x_min":44,"x_max":1065,"o":"m 651 464 q 538 458 607 461 q 396 454 469 456 q 252 454 322 453 q 135 463 182 456 q 75 488 97 468 q 49 530 53 507 q 62 573 44 553 q 121 599 79 593 q 218 606 172 604 q 308 608 264 607 q 399 610 353 608 q 497 619 446 613 l 614 628 q 676 632 633 629 q 769 635 718 635 q 874 633 819 636 q 971 621 928 631 q 1040 594 1014 611 q 1063 547 1065 576 q 1055 510 1060 524 q 1045 483 1050 496 q 1038 456 1040 471 q 1038 414 1035 440 q 1042 373 1040 390 q 1046 343 1044 356 q 1030 300 1049 318 q 983 270 1011 282 q 924 253 956 258 q 871 249 893 247 q 806 252 840 250 q 741 263 771 254 q 688 288 711 271 q 660 335 665 304 q 652 399 653 367 q 651 464 651 431 z "},"":{"ha":679,"x_min":53,"x_max":642,"o":"m 101 472 q 68 492 81 478 q 54 520 56 506 q 63 548 53 535 q 97 567 74 561 q 180 586 131 579 q 282 596 229 593 q 384 597 335 599 q 469 588 433 594 q 509 580 478 586 q 572 563 540 574 q 622 534 603 551 q 624 493 642 517 q 582 464 610 474 q 460 439 522 440 q 340 450 399 438 q 288 456 318 454 q 226 458 258 457 q 162 461 194 458 q 101 472 129 464 z "},"":{"ha":949,"x_min":32,"x_max":925,"o":"m 492 897 q 552 903 518 904 q 619 895 586 901 q 683 879 653 889 q 732 860 713 869 q 845 766 807 819 q 903 635 883 713 q 901 461 925 539 q 824 326 878 383 q 692 235 769 269 q 530 189 615 200 q 359 192 444 178 q 203 246 274 206 q 93 349 132 286 q 43 482 54 411 q 47 625 32 553 q 100 758 63 697 q 194 861 138 818 q 324 917 251 904 q 410 919 363 924 q 492 897 458 915 m 310 840 q 256 785 279 813 q 214 721 232 757 q 179 621 192 676 q 172 503 167 565 q 188 437 175 469 q 220 374 200 404 q 267 320 240 344 q 326 279 294 296 q 424 254 372 256 q 526 267 476 253 q 621 308 576 281 q 697 369 665 335 q 751 451 731 404 q 776 549 771 499 q 772 647 782 599 q 733 736 761 696 q 651 811 701 782 q 542 844 600 840 q 517 835 526 835 q 463 844 489 835 q 410 859 436 853 q 358 864 383 865 q 310 840 333 863 m 481 725 q 536 749 510 739 q 596 756 563 760 q 693 723 661 747 q 725 667 725 699 q 694 604 725 636 q 603 551 663 572 q 648 508 628 532 q 692 460 668 483 q 702 433 708 444 q 681 417 696 422 q 647 410 665 411 q 619 414 629 410 q 583 438 600 422 q 551 472 567 454 q 518 506 535 489 q 483 536 501 524 q 481 505 481 521 q 482 472 482 489 q 481 440 482 456 q 472 410 479 424 q 442 388 463 393 q 403 379 421 382 q 371 379 392 378 q 329 385 350 381 q 293 399 308 389 q 278 424 278 408 q 281 577 276 501 q 286 731 286 653 q 302 754 286 747 q 331 765 318 761 q 392 770 358 774 q 453 757 425 767 q 472 749 464 753 q 481 725 481 744 m 610 665 q 604 687 613 676 q 585 704 596 697 q 528 663 549 689 q 483 611 508 636 l 483 588 q 523 590 501 585 q 563 607 544 596 q 594 633 582 618 q 610 665 607 649 z "},"":{"ha":667,"x_min":46,"x_max":628,"o":"m 568 925 q 614 897 600 914 q 625 863 628 881 q 602 828 622 844 q 546 801 582 811 q 498 792 525 794 q 441 788 471 789 q 382 789 411 788 q 328 793 353 790 q 281 786 311 789 q 218 784 251 783 q 152 790 185 785 q 96 808 119 796 q 66 833 79 817 q 49 867 53 849 q 54 901 46 885 q 86 925 63 917 q 135 943 108 936 q 190 953 163 950 q 385 956 289 960 q 568 925 482 953 z "},"":{"ha":590,"x_min":50,"x_max":558,"o":"m 349 981 q 453 959 410 982 q 522 899 497 936 q 552 817 546 863 q 546 727 558 771 q 501 646 533 683 q 419 588 469 608 q 359 572 392 576 q 297 565 326 567 q 251 567 276 564 q 202 578 226 571 q 156 596 178 585 q 117 621 133 607 q 60 718 69 663 q 67 832 50 774 q 89 897 76 868 q 119 949 101 926 q 165 984 138 971 q 233 1000 192 997 q 293 999 264 1003 q 349 981 322 996 m 293 665 q 333 721 321 694 q 344 783 344 747 q 342 819 344 799 q 334 857 340 839 q 315 889 328 875 q 282 906 303 903 q 266 850 272 885 q 257 778 260 815 q 266 708 254 740 q 293 665 278 676 z "},"":{"ha":943,"x_min":39,"x_max":918,"o":"m 336 624 q 274 618 307 621 q 207 616 240 615 q 141 621 174 617 q 81 638 108 625 q 53 655 67 644 q 39 682 39 665 q 53 708 39 699 q 82 725 68 718 q 136 738 100 733 q 212 746 172 743 q 287 750 251 749 q 339 753 322 751 q 343 816 342 783 q 360 875 344 849 q 396 904 369 893 q 456 921 422 915 q 528 926 490 926 q 600 918 565 925 q 662 899 635 911 q 700 868 689 886 q 709 843 706 858 q 714 811 713 828 q 715 778 715 794 q 715 751 715 763 q 833 731 789 746 q 892 700 875 717 q 907 668 910 683 q 884 639 904 653 q 829 618 864 625 q 776 611 806 613 q 713 614 746 610 q 713 597 713 610 q 714 567 714 585 q 713 528 714 549 q 711 489 713 508 q 708 453 710 468 q 703 429 707 439 q 690 412 699 419 q 667 396 682 404 q 585 368 632 376 q 490 363 538 360 q 402 382 443 367 q 339 426 361 397 q 331 466 332 435 q 331 531 331 497 q 334 593 332 565 q 336 624 336 621 m 138 269 q 176 281 156 276 q 215 290 196 286 q 251 295 235 293 q 278 299 267 297 q 503 306 390 311 q 728 300 615 300 q 793 293 760 300 q 857 275 826 286 q 883 260 869 269 q 904 240 897 251 q 905 200 918 217 q 867 172 892 183 q 815 156 842 161 q 774 149 788 150 q 672 146 722 146 q 571 149 622 146 q 466 154 518 151 q 364 154 414 157 q 278 151 322 153 q 189 153 233 150 q 137 167 164 154 q 97 197 110 179 q 90 235 83 215 q 138 269 96 254 z "},"":{"ha":517,"x_min":26,"x_max":468,"o":"m 449 889 q 411 851 428 872 q 378 809 394 831 q 345 766 363 788 q 307 728 328 744 q 247 703 286 713 q 167 695 208 694 q 89 707 125 696 q 38 742 53 718 q 35 767 26 757 q 53 789 43 778 q 85 829 71 808 q 117 869 100 850 q 133 888 122 875 q 154 913 143 900 q 176 938 165 926 q 193 953 188 949 q 239 971 213 964 q 293 980 265 978 q 348 981 321 982 q 396 974 375 979 q 422 964 407 971 q 450 949 438 957 q 467 919 468 936 q 449 889 465 901 z "},"":{"ha":1028,"x_min":69,"x_max":960,"o":"m 568 236 q 565 360 568 299 q 558 492 561 422 q 557 533 557 508 q 560 584 557 558 q 568 633 563 610 q 585 669 574 656 q 654 711 607 697 q 755 726 701 725 q 858 715 808 726 q 933 683 907 704 q 946 669 939 678 q 956 652 953 661 q 958 634 960 643 q 949 618 957 625 q 944 547 943 592 q 947 451 944 503 q 953 343 950 399 q 956 238 956 288 q 951 151 956 189 q 935 96 947 113 q 907 67 922 79 q 875 44 892 56 q 785 3 828 11 q 688 -1 743 -4 q 560 44 611 3 q 464 143 508 85 q 460 -23 464 60 q 468 -189 457 -106 q 474 -224 471 -204 q 468 -260 478 -244 q 422 -294 453 -282 q 356 -312 392 -307 q 286 -317 321 -318 q 228 -314 251 -317 q 182 -305 207 -311 q 135 -287 157 -299 q 97 -257 113 -275 q 82 -211 82 -239 q 74 -129 75 -175 q 72 -36 72 -83 q 74 53 72 11 q 75 125 75 96 q 74 258 76 192 q 70 390 71 324 q 73 523 69 457 q 89 654 76 589 q 115 694 93 683 q 204 725 154 717 q 303 731 254 733 q 395 718 353 729 q 461 689 438 707 q 485 655 482 674 q 467 614 489 636 q 458 478 460 547 q 460 342 457 408 q 478 310 464 326 q 509 278 492 293 q 543 253 526 264 q 568 236 560 242 z "},"":{"ha":1138,"x_min":32,"x_max":1111,"o":"m 631 944 q 676 938 654 938 q 722 940 699 939 q 774 979 735 967 q 860 992 814 992 q 945 981 906 993 q 997 946 985 969 q 1038 947 1011 946 q 1086 942 1065 949 q 1110 910 1111 933 q 1094 871 1110 888 q 1065 861 1082 864 q 1032 858 1049 858 q 1001 858 1015 857 q 981 858 988 858 q 987 667 983 763 q 983 475 990 571 q 972 274 976 375 q 967 72 967 174 q 964 -75 967 -3 q 964 -221 961 -147 q 960 -260 965 -242 q 931 -285 954 -278 q 856 -297 900 -297 q 778 -285 811 -296 q 753 -269 761 -279 q 743 -248 746 -260 q 740 -223 740 -236 q 739 -197 740 -210 q 724 5 729 -96 q 706 207 719 106 q 708 451 703 329 q 707 696 713 574 q 703 769 706 732 q 703 842 700 806 q 676 841 689 840 q 651 842 664 842 q 648 735 650 789 q 647 628 646 681 q 640 525 649 576 q 631 422 632 474 l 626 13 q 617 -83 625 -36 q 610 -178 610 -129 q 612 -207 610 -192 q 613 -235 614 -222 q 603 -259 611 -249 q 575 -274 594 -269 q 507 -281 546 -283 q 438 -267 468 -278 q 406 -242 413 -258 q 397 -201 400 -225 q 392 -140 393 -174 q 390 -74 390 -107 q 389 -11 389 -42 q 390 42 389 19 q 267 62 324 33 q 167 140 211 90 q 93 254 124 190 q 44 382 63 318 q 42 520 32 443 q 80 672 51 597 q 155 812 108 747 q 264 913 201 876 q 346 947 301 935 q 439 964 390 960 q 536 963 488 968 q 631 944 585 958 z "},"":{"ha":653,"x_min":57,"x_max":615,"o":"m 182 -136 q 122 -130 151 -136 q 93 -103 93 -124 q 114 -24 94 -75 q 156 76 133 28 l 294 68 q 269 -4 279 31 q 333 0 297 0 q 408 -6 369 0 q 483 -22 446 -11 q 550 -53 521 -33 q 597 -100 579 -72 q 615 -165 615 -128 q 597 -233 615 -206 q 549 -278 578 -260 q 487 -306 521 -296 q 422 -322 453 -315 q 347 -334 386 -331 q 265 -337 307 -337 q 183 -332 224 -336 q 106 -321 142 -328 q 70 -306 83 -317 q 57 -282 57 -294 q 72 -257 57 -269 q 124 -237 88 -244 q 233 -228 160 -231 q 250 -173 244 -200 q 249 -121 256 -146 q 219 -133 231 -129 q 182 -136 208 -136 z "},"":{"ha":663,"x_min":54,"x_max":618,"o":"m 496 511 q 532 506 511 510 q 572 499 553 503 q 604 482 593 494 q 617 456 615 469 q 608 430 618 442 q 576 414 597 418 q 528 403 556 407 q 474 396 501 399 q 422 392 447 393 q 378 390 396 392 q 243 385 311 388 q 110 404 175 383 q 65 441 63 419 q 94 474 67 463 q 121 478 106 478 q 149 483 136 479 q 147 540 144 503 q 153 620 149 578 q 161 703 157 663 q 165 768 165 743 l 165 808 q 153 803 161 807 q 133 796 144 800 q 110 789 122 792 q 88 786 97 786 q 71 792 79 786 q 58 804 63 797 q 55 818 54 811 q 64 829 56 825 q 88 841 74 833 q 117 859 103 849 q 142 881 131 869 q 158 904 153 893 q 158 917 156 911 q 164 929 161 922 q 218 978 178 964 q 306 990 258 992 q 400 975 354 989 q 471 940 446 961 q 500 891 490 924 q 513 818 510 858 q 513 733 515 778 q 507 645 511 688 q 499 567 503 603 q 496 511 496 532 z "},"":{"ha":971,"x_min":68,"x_max":904,"o":"m 179 663 q 159 701 171 681 q 137 738 147 721 q 117 769 126 756 q 104 788 108 782 q 70 825 72 807 q 85 857 68 843 q 135 880 103 871 q 208 889 168 889 q 288 881 247 889 q 364 851 329 872 q 386 834 374 844 q 411 811 399 824 q 435 786 424 799 q 454 764 446 774 q 540 617 511 700 q 569 450 569 535 q 562 373 569 417 q 540 284 554 329 q 504 198 525 239 q 457 129 483 157 q 392 89 432 103 q 210 82 304 58 q 163 100 188 88 q 136 138 139 113 q 140 158 135 144 q 153 188 146 172 q 187 259 175 233 q 205 309 199 285 q 215 364 211 333 q 225 450 219 394 q 223 509 225 482 q 215 560 221 536 q 201 610 210 585 q 179 663 193 635 m 592 835 q 656 851 617 850 q 722 846 694 853 q 762 827 743 840 q 797 796 781 814 q 828 758 814 778 q 851 721 842 739 q 894 598 883 661 q 899 471 904 535 q 875 344 894 407 q 829 222 856 281 q 781 183 817 194 q 706 173 744 172 q 638 186 668 174 q 606 219 607 199 q 610 240 606 225 q 622 272 615 254 q 636 305 629 289 q 646 328 643 321 q 676 513 678 419 q 643 697 675 607 q 622 742 635 721 q 593 783 608 764 q 579 809 585 794 q 592 835 574 824 z "},"":{"ha":894,"x_min":56,"x_max":860,"o":"m 114 219 q 185 317 146 271 q 267 410 224 364 q 300 447 286 432 q 342 472 314 461 q 449 498 397 496 q 560 486 501 500 q 615 464 594 478 q 644 414 636 450 q 632 383 647 406 q 592 328 617 360 q 536 261 567 297 q 476 191 506 225 q 424 127 447 157 q 389 78 400 97 q 366 44 378 60 q 344 15 354 29 q 328 -15 333 0 q 326 -51 322 -31 q 362 -137 333 -96 q 435 -199 390 -179 q 477 -175 457 -186 q 513 -151 497 -164 q 537 -120 528 -137 q 547 -78 546 -103 q 524 4 549 -35 q 472 79 499 43 q 468 108 461 94 q 489 132 475 122 q 551 157 511 149 q 633 165 590 165 q 714 154 675 164 q 775 124 753 144 q 832 58 804 96 q 856 -24 860 21 q 850 -72 857 -49 q 826 -122 843 -96 q 697 -240 778 -194 q 525 -299 617 -285 q 341 -297 433 -314 q 178 -231 249 -281 q 99 -142 129 -194 q 63 -28 68 -90 q 65 94 56 31 q 114 219 75 157 m 351 568 q 302 604 307 585 q 311 639 297 624 q 347 664 325 654 q 376 671 368 674 q 399 676 379 669 q 447 690 418 682 q 510 702 475 697 q 578 705 544 707 q 642 688 613 703 q 690 643 671 674 q 672 589 710 611 q 597 558 638 569 q 515 544 557 547 q 431 548 472 542 q 351 568 389 554 z "},"$":{"ha":954,"x_min":53,"x_max":917,"o":"m 339 753 q 301 698 317 729 q 283 635 286 667 q 292 578 281 604 q 335 538 303 551 q 406 512 374 519 q 467 500 438 504 q 531 493 497 496 q 607 483 564 490 q 689 465 647 476 q 768 439 731 454 q 838 403 806 424 q 889 357 869 383 q 912 303 907 333 q 910 242 917 272 q 868 149 897 188 q 799 85 839 110 q 713 45 760 60 q 614 24 665 31 q 617 -28 617 0 q 610 -79 617 -56 q 570 -122 603 -108 q 495 -140 538 -136 q 408 -136 453 -143 q 333 -117 364 -129 q 302 -86 310 -106 q 297 -43 294 -67 q 303 -1 300 -22 q 300 42 307 21 q 206 75 253 60 q 124 122 160 90 q 84 156 103 140 q 63 200 65 172 q 92 240 68 225 q 149 263 115 256 q 221 270 182 271 q 297 265 260 269 q 365 251 333 260 q 417 231 397 242 q 438 214 426 225 q 460 194 449 203 q 483 185 472 186 q 503 197 494 183 q 529 247 518 217 q 532 296 540 278 q 476 351 514 333 q 393 381 439 369 q 299 401 347 392 q 211 432 250 411 q 140 474 174 450 q 86 528 107 497 q 59 598 65 560 q 68 683 53 636 q 103 761 82 729 q 153 817 125 793 q 217 857 181 840 q 297 888 253 874 q 290 924 290 906 q 292 963 289 943 q 299 1003 294 985 q 322 1035 303 1021 q 383 1060 347 1051 q 456 1072 418 1069 q 530 1068 494 1074 q 590 1049 565 1063 q 610 1039 600 1043 q 628 1028 619 1035 q 641 1014 636 1022 q 644 993 646 1006 q 642 965 643 982 q 640 931 642 947 q 638 903 639 915 q 638 889 638 890 q 701 869 667 882 q 765 835 735 856 q 817 789 794 815 q 847 731 840 763 q 858 694 851 713 q 853 657 864 675 q 804 624 838 636 q 733 610 771 613 q 661 613 696 608 q 608 631 626 618 q 581 652 593 642 q 565 688 568 663 q 535 758 561 731 q 476 795 510 786 q 404 794 442 804 q 339 753 367 783 z "},"":{"ha":804,"x_min":44,"x_max":768,"o":"m 399 632 q 438 672 418 651 q 481 708 458 692 q 547 736 504 726 q 632 745 589 746 q 712 733 675 744 q 761 697 749 722 q 759 671 768 682 q 738 650 750 660 q 700 615 725 642 q 647 556 675 588 q 592 494 618 524 q 553 450 565 464 q 633 363 597 411 q 704 269 668 314 q 735 226 729 251 q 704 183 742 200 q 642 167 672 169 q 582 168 613 165 q 531 183 550 171 q 495 213 511 194 q 464 253 479 231 q 425 299 449 275 q 381 242 406 274 q 329 189 356 210 q 285 168 313 176 q 228 157 258 160 q 167 156 197 154 q 113 164 138 157 q 65 189 85 174 q 56 233 44 204 q 72 258 61 246 q 93 282 82 269 q 175 378 135 329 q 256 476 215 428 q 215 528 231 507 q 184 569 199 550 q 153 606 169 588 q 110 649 136 625 q 90 669 99 660 q 78 682 81 679 q 82 710 71 699 q 110 728 93 721 q 145 740 126 736 q 174 744 164 743 q 223 746 197 747 q 268 738 249 744 q 307 719 290 731 q 338 692 324 707 q 367 662 353 678 q 399 632 382 646 z "},"":{"ha":1213,"x_min":54,"x_max":1194,"o":"m 636 590 q 623 659 611 624 q 661 729 635 694 q 718 796 688 764 q 761 854 749 828 q 703 912 746 897 q 610 913 661 926 q 553 891 582 906 q 498 854 524 876 q 451 801 472 832 q 422 732 431 771 q 407 553 401 639 q 424 383 413 468 q 444 209 435 297 q 439 24 453 121 q 413 -17 435 -1 q 361 -40 390 -32 q 302 -51 332 -49 q 253 -53 272 -53 q 206 -50 233 -53 q 153 -41 179 -47 q 107 -23 128 -35 q 78 8 86 -11 q 65 78 64 43 q 64 150 67 114 q 58 340 63 243 q 58 529 54 438 q 78 703 61 621 q 136 846 94 785 q 222 920 165 889 q 344 970 278 951 q 479 997 411 989 q 601 1003 547 1006 q 661 999 624 1003 q 742 987 699 994 q 828 967 785 979 q 906 940 872 956 q 960 903 940 924 q 976 857 981 882 q 960 812 972 833 q 931 770 947 790 q 896 732 914 750 q 864 699 878 714 q 850 633 833 665 q 914 589 867 601 q 975 567 936 583 q 1052 529 1014 551 q 1121 481 1090 507 q 1160 426 1151 454 q 1180 363 1175 397 q 1189 293 1185 328 q 1174 180 1194 233 q 1117 83 1154 126 q 1033 7 1081 39 q 938 -42 985 -25 q 828 -60 888 -57 q 710 -53 768 -64 q 604 -12 653 -42 q 526 68 556 17 q 506 135 506 106 q 518 204 507 164 q 529 243 522 221 q 550 276 536 265 q 599 294 567 289 q 661 293 632 299 q 706 272 690 288 q 704 228 721 256 q 690 110 664 161 q 782 24 715 60 q 862 95 833 42 q 892 215 890 149 q 869 352 894 282 q 790 475 844 422 q 753 506 774 493 q 713 531 733 518 q 672 557 692 543 q 636 590 651 571 z "},"":{"ha":1042,"x_min":69,"x_max":1031,"o":"m 743 97 q 667 92 707 92 q 590 99 628 93 q 519 117 553 106 q 458 143 485 128 q 458 119 458 135 q 456 84 457 103 q 454 46 456 65 q 451 10 453 26 q 441 -33 450 -19 q 404 -58 432 -46 q 334 -76 375 -71 q 251 -80 293 -82 q 172 -67 210 -78 q 113 -36 135 -56 q 94 -9 100 -24 q 87 22 89 6 q 85 54 85 38 q 81 86 85 71 q 72 278 69 182 q 72 471 75 374 q 72 680 72 575 q 71 889 71 785 q 91 924 71 911 q 128 944 111 938 q 191 963 156 957 q 263 967 226 968 q 334 960 299 967 q 397 940 369 953 q 440 910 426 926 q 456 871 453 893 q 458 781 458 832 q 460 689 457 731 q 519 753 485 731 q 595 784 554 775 q 679 790 636 793 q 763 778 722 788 q 843 751 803 769 q 917 707 883 733 q 975 644 951 681 q 1007 565 999 608 q 1022 404 1031 482 q 979 247 1013 326 q 878 146 939 185 q 743 97 818 107 m 596 638 q 558 584 574 615 q 527 519 542 553 q 497 453 513 485 q 461 396 482 421 l 461 313 q 533 307 497 315 q 603 283 569 299 q 628 369 619 322 q 635 463 636 415 q 625 555 635 510 q 596 638 615 600 z "},"":{"ha":1147,"x_min":53,"x_max":1094,"o":"m 94 939 q 185 963 131 957 q 292 963 240 968 q 384 944 344 958 q 431 907 424 929 q 441 853 439 881 q 444 799 443 826 q 444 742 444 771 q 447 688 444 714 q 473 738 457 710 q 509 794 489 767 q 552 843 529 821 q 596 876 575 865 q 717 911 647 901 q 853 911 786 921 q 977 872 921 901 q 1061 789 1033 842 q 1077 749 1072 769 q 1086 706 1082 728 q 1093 617 1092 676 q 1090 490 1094 558 q 1076 356 1086 422 q 1046 246 1065 289 q 989 160 1025 197 q 908 96 953 122 q 810 56 863 69 q 703 43 758 42 q 554 65 629 44 q 421 133 479 86 q 414 103 418 122 q 403 63 410 83 q 388 25 397 42 q 369 3 379 8 l 342 -11 q 274 -26 321 -21 q 180 -26 228 -31 q 97 -5 132 -21 q 63 43 61 11 q 67 118 64 81 q 72 193 69 156 q 75 295 76 246 q 74 396 74 344 q 65 601 74 500 q 57 807 57 703 q 55 844 57 825 q 54 881 53 863 q 64 913 56 899 q 94 939 72 928 m 461 468 q 458 394 458 432 q 456 319 458 357 q 513 303 488 314 q 562 279 539 293 q 606 249 585 265 q 653 215 628 233 q 667 278 660 249 q 682 340 675 308 q 694 406 689 371 q 700 486 699 440 q 703 569 701 531 q 705 640 706 607 q 699 703 704 674 q 682 763 694 733 q 628 697 653 739 q 577 610 603 656 q 523 526 551 565 q 461 468 494 486 z "},"":{"ha":897,"x_min":18,"x_max":881,"o":"m 301 646 q 256 640 278 638 q 221 651 233 642 q 210 678 208 661 q 235 714 211 694 q 260 739 246 726 q 288 763 275 751 q 313 783 301 774 q 331 796 325 792 q 302 827 319 810 q 264 861 285 844 q 222 894 243 878 q 185 921 201 910 q 173 934 176 926 q 176 951 169 942 q 199 968 183 963 q 233 976 214 974 q 271 976 251 978 q 306 971 290 975 q 394 933 351 957 q 478 883 438 910 q 576 921 518 906 q 682 940 633 936 q 727 931 706 942 q 757 905 749 919 q 757 878 765 890 q 713 868 749 867 q 681 863 699 868 q 644 851 663 858 q 606 834 625 843 q 571 819 586 825 q 630 774 599 801 q 692 713 661 746 q 752 645 724 681 q 804 575 781 610 q 865 418 850 503 q 864 250 881 333 q 808 107 849 171 q 697 -1 767 43 q 546 -65 632 -43 q 372 -83 460 -86 q 202 -50 283 -79 q 65 39 121 -21 q 42 76 50 54 q 28 118 35 99 q 24 188 18 153 q 45 256 29 224 q 85 317 61 289 q 133 367 108 346 q 179 397 156 385 q 228 422 203 410 q 340 469 285 450 q 458 500 396 488 q 444 559 449 535 q 435 606 440 583 q 419 651 429 628 q 389 708 410 675 q 346 674 363 692 q 301 646 329 657 m 378 94 q 435 156 408 113 q 474 246 461 200 q 483 322 482 283 q 482 399 485 360 q 437 376 461 390 q 390 342 413 363 q 349 298 367 322 q 325 244 332 274 q 328 161 315 204 q 378 94 342 118 z "},"":{"ha":1371,"x_min":22,"x_max":1346,"o":"m 403 508 q 415 469 424 486 q 377 440 406 451 q 308 423 349 428 q 226 421 267 418 q 151 437 186 424 q 101 474 117 450 q 97 497 96 482 q 101 527 97 511 q 110 558 104 543 q 119 581 115 572 q 193 667 144 635 q 300 715 242 699 q 420 736 358 732 q 535 738 482 740 q 778 675 665 731 q 929 710 844 708 q 1089 693 1014 713 q 1181 661 1138 681 q 1264 604 1224 642 q 1296 569 1281 589 q 1323 528 1311 550 q 1340 483 1335 507 q 1343 438 1346 460 q 1326 393 1340 414 q 1293 355 1313 372 q 1251 325 1274 338 q 1206 307 1228 313 q 1063 299 1135 290 q 921 324 992 307 q 947 252 933 283 q 977 197 960 221 q 1019 153 994 172 q 1081 117 1044 133 q 1109 131 1094 122 q 1139 150 1124 140 q 1171 168 1154 160 q 1207 181 1188 176 q 1247 179 1228 185 q 1277 163 1265 174 q 1290 137 1289 151 q 1278 107 1292 122 q 1169 32 1229 58 q 1027 5 1101 3 q 882 21 953 7 q 847 -4 871 6 q 797 -19 824 -14 q 743 -27 769 -25 q 699 -29 717 -29 q 628 -24 661 -29 q 564 -4 596 -19 q 531 14 544 7 q 510 46 518 21 q 399 10 465 21 q 266 5 333 -1 q 140 35 199 11 q 50 103 81 58 q 28 149 35 124 q 28 200 22 175 q 78 285 39 253 q 171 329 118 318 q 332 357 247 346 q 506 347 417 368 q 516 485 507 417 q 515 622 525 554 q 471 619 489 629 q 440 590 453 608 q 419 548 428 571 q 403 508 410 525 m 1124 465 q 1105 505 1121 486 q 1068 538 1089 524 q 1026 563 1047 553 q 992 581 1006 574 q 958 545 972 567 q 935 499 944 524 q 922 448 926 474 q 917 400 918 422 q 953 403 928 404 q 1005 397 978 401 q 1056 389 1032 393 q 1089 386 1081 385 q 1117 421 1107 400 q 1124 465 1126 442 m 365 208 q 358 180 363 196 q 358 154 353 164 l 358 156 l 360 153 q 390 161 369 156 q 435 172 411 167 q 479 181 458 176 q 510 183 500 185 l 506 275 q 417 276 454 286 q 365 208 379 265 z "},"":{"ha":728,"x_min":44,"x_max":694,"o":"m 363 818 q 416 776 383 786 q 474 782 449 765 q 515 835 508 806 q 510 894 521 864 q 509 925 503 911 q 529 947 515 939 q 597 962 561 967 q 664 936 633 957 q 683 906 679 925 q 689 872 686 888 q 669 792 694 831 q 607 733 644 753 q 501 701 558 710 q 381 696 443 693 q 217 723 297 699 q 75 808 136 747 q 47 873 49 835 q 65 943 44 911 q 119 975 81 965 q 203 985 158 985 q 290 974 249 985 q 353 946 332 964 q 363 921 364 935 q 356 896 363 907 q 349 858 347 883 q 363 818 351 833 z "},"":{"ha":447,"x_min":26,"x_max":401,"o":"m 338 949 q 381 922 361 939 q 401 878 401 906 q 380 824 401 846 q 325 791 358 803 q 251 776 292 779 q 171 779 210 774 q 100 799 132 785 q 51 833 68 813 q 41 854 44 843 q 35 876 38 865 q 41 933 26 910 q 85 971 56 957 q 151 989 114 985 q 226 990 189 993 q 292 976 263 988 q 338 949 322 965 z "},"":{"ha":594,"x_min":38,"x_max":556,"o":"m 356 667 q 235 672 296 660 q 127 710 174 683 q 59 781 81 738 q 57 883 38 825 q 83 942 67 910 q 119 993 99 974 q 299 1065 200 1065 q 341 1058 322 1065 q 374 1041 360 1051 q 400 1019 389 1031 q 421 1001 411 1008 q 483 978 456 994 q 526 937 510 961 q 549 883 543 913 q 549 824 556 854 q 483 715 533 756 q 356 667 432 675 m 382 847 q 379 903 392 878 q 343 943 367 928 q 317 896 328 917 q 303 850 306 875 q 302 804 300 825 q 324 767 304 783 q 358 797 346 778 q 382 847 371 817 z "},"":{"ha":708,"x_min":39,"x_max":671,"o":"m 394 1025 q 399 1004 401 1014 q 390 985 396 994 q 375 967 383 976 q 361 947 367 957 q 343 902 353 931 q 322 844 333 874 q 299 790 311 815 q 272 757 286 765 q 228 739 254 746 q 189 735 215 736 q 135 736 163 733 q 81 747 107 739 q 46 769 56 754 q 41 788 39 779 q 48 804 43 796 q 58 822 53 813 q 64 840 64 831 q 87 907 76 872 q 113 972 97 942 q 151 1026 128 1003 q 214 1058 175 1049 q 262 1065 236 1063 q 313 1066 288 1068 q 359 1055 338 1064 q 394 1025 381 1046 m 551 756 q 515 745 535 749 q 475 742 494 742 q 438 745 456 742 q 410 757 421 749 q 389 780 396 767 q 389 810 382 793 q 415 898 397 850 q 453 983 433 946 q 467 1013 460 999 q 492 1035 475 1026 q 528 1046 507 1043 q 572 1048 550 1049 q 615 1042 594 1047 q 651 1031 636 1038 q 671 1003 671 1021 q 657 974 671 986 q 639 938 649 958 q 619 894 629 917 q 601 848 610 871 q 586 804 592 825 q 576 774 581 786 q 551 756 571 763 z "},"":{"ha":528,"x_min":32,"x_max":488,"o":"m 361 -62 q 403 -60 382 -62 q 443 -57 425 -57 q 473 -63 461 -57 q 486 -87 485 -69 q 472 -119 488 -107 q 432 -140 457 -132 q 377 -153 407 -149 q 318 -158 347 -157 q 265 -160 289 -160 q 229 -158 240 -160 q 80 -117 128 -149 q 50 -15 32 -85 q 85 39 57 14 q 138 81 114 64 q 199 120 169 103 q 257 153 229 138 l 385 151 q 349 118 369 138 q 314 76 329 99 q 289 -22 274 18 q 361 -62 304 -61 z "},"":{"ha":700,"x_min":38,"x_max":664,"o":"m 406 842 q 427 865 414 849 q 455 898 440 881 q 482 929 469 915 q 500 946 494 943 q 526 955 510 950 q 560 963 542 960 q 597 967 579 967 q 631 963 615 967 q 655 940 646 957 q 653 906 664 924 q 628 866 644 890 q 592 818 611 842 q 553 774 572 794 q 524 744 535 753 q 515 722 525 732 q 492 706 506 713 q 463 693 478 699 q 439 686 447 688 q 272 690 351 665 q 125 772 192 714 q 85 820 101 793 q 51 871 69 847 q 40 909 38 890 q 64 939 42 928 q 97 953 78 947 q 134 961 115 958 q 169 965 153 964 q 197 965 186 965 q 249 961 222 965 q 299 947 275 957 q 344 922 324 938 q 378 883 365 907 q 390 862 385 872 q 406 842 396 851 z "},"":{"ha":1354,"x_min":38,"x_max":1332,"o":"m 810 -6 q 751 -10 779 -8 q 693 -7 724 -12 q 658 1 679 -4 q 616 14 636 6 q 582 35 596 22 q 568 65 568 47 q 578 91 569 83 q 603 108 588 99 q 588 171 594 142 q 579 235 582 200 q 510 243 547 235 q 440 257 472 251 q 429 144 431 200 q 419 32 428 89 q 399 -4 417 8 q 363 -24 382 -17 q 299 -40 333 -35 q 228 -45 264 -46 q 157 -38 192 -44 q 94 -19 122 -32 q 58 2 78 -12 q 39 38 39 17 q 44 187 38 113 q 69 335 50 261 q 100 431 79 374 q 147 548 121 489 q 201 660 172 607 q 260 744 231 713 q 347 826 299 788 q 447 892 394 864 q 556 939 500 921 q 669 960 613 957 q 741 958 706 963 q 817 943 776 954 q 845 959 826 953 q 885 969 864 965 q 927 974 907 972 q 961 975 947 975 q 1057 965 1010 974 q 1153 953 1104 957 q 1197 949 1167 951 q 1258 939 1228 946 q 1310 918 1288 932 q 1331 882 1332 904 q 1306 828 1329 854 q 1225 800 1283 803 q 1163 803 1196 799 q 1097 813 1131 807 q 1031 822 1064 818 q 964 825 997 826 q 964 760 965 797 q 960 685 963 724 q 956 613 958 647 q 954 554 954 578 q 1042 560 996 558 q 1129 561 1088 561 q 1177 548 1154 561 q 1210 519 1200 535 q 1210 488 1219 503 q 1161 468 1200 474 q 1103 461 1135 463 q 1041 462 1071 460 q 987 467 1011 464 q 953 472 963 469 q 953 433 953 461 q 953 367 953 404 q 955 291 954 331 q 956 217 956 251 q 957 160 957 183 q 957 136 957 138 q 1030 133 989 139 q 1103 124 1071 128 q 1124 124 1113 122 q 1147 125 1136 125 q 1207 122 1175 125 q 1268 108 1239 118 q 1306 86 1290 101 q 1326 54 1322 71 q 1320 23 1331 38 q 1281 3 1310 8 q 1238 -8 1261 -4 q 1190 -14 1215 -11 q 1099 -16 1144 -18 q 1006 -11 1053 -14 q 910 -6 960 -8 q 810 -6 861 -3 m 456 328 q 515 326 485 328 q 574 324 544 324 q 574 483 572 404 q 578 643 576 563 q 510 483 546 561 q 456 328 475 404 z "},"":{"ha":844,"x_min":33,"x_max":815,"o":"m 536 564 q 592 565 568 563 q 640 571 617 568 q 690 574 664 574 q 749 567 715 574 q 799 542 782 560 q 815 506 815 525 q 797 474 815 488 q 744 461 779 460 q 668 453 713 456 q 575 450 624 450 q 465 453 513 450 q 378 462 418 457 q 303 470 339 467 q 226 474 268 474 q 172 470 207 474 q 100 474 136 467 q 43 501 53 482 q 48 539 33 519 q 92 572 63 558 q 154 585 122 586 q 259 579 213 582 q 349 574 306 576 q 436 569 392 571 q 536 564 481 567 m 639 211 q 574 169 619 183 q 476 153 528 156 q 374 160 424 151 q 299 188 325 169 q 249 259 246 224 q 301 326 253 294 q 355 352 322 343 q 423 363 388 361 q 492 360 458 365 q 550 342 526 354 q 590 321 567 332 q 631 295 614 310 q 653 260 649 281 q 639 211 658 240 m 222 811 q 227 840 222 829 q 243 861 232 851 q 296 888 261 878 q 372 900 331 897 q 455 899 413 903 q 532 885 497 896 q 589 859 567 875 q 613 821 611 843 q 585 753 614 779 q 514 714 557 726 q 419 702 471 701 q 324 715 368 703 q 251 752 281 728 q 222 811 222 776 z "},"":{"ha":679,"x_min":39,"x_max":646,"o":"m 169 414 q 109 426 135 414 q 68 458 83 439 q 46 499 53 478 q 60 536 39 521 q 130 604 94 571 q 199 673 165 638 q 264 747 233 708 q 318 828 294 785 q 331 855 325 840 q 335 883 336 869 q 325 906 335 897 q 293 915 315 915 q 227 894 257 915 q 179 831 197 874 q 176 813 176 822 q 174 796 175 804 q 169 780 172 788 q 156 767 165 772 q 112 763 138 760 q 76 769 86 765 q 60 785 63 775 q 54 807 57 794 q 58 870 47 839 q 89 928 69 901 q 160 976 113 960 q 257 1000 207 993 q 417 999 340 1011 q 554 956 494 988 q 600 921 579 942 q 633 874 621 900 q 645 820 644 849 q 631 764 646 792 q 553 637 601 693 q 449 531 504 581 q 496 524 463 529 q 558 511 529 519 q 588 494 579 506 q 594 472 596 483 q 583 450 593 460 q 557 438 574 440 q 519 429 539 431 q 481 428 500 428 q 391 426 431 428 q 316 421 351 424 q 246 416 281 418 q 169 414 211 414 z "},"":{"ha":671,"x_min":29,"x_max":642,"o":"m 222 933 q 170 929 196 933 q 117 924 144 925 q 83 930 93 922 q 74 948 74 938 q 84 969 75 958 q 107 983 93 979 q 187 1003 143 994 q 279 1008 231 1011 q 331 1010 304 1008 q 385 1012 358 1011 q 438 1010 413 1013 q 485 1001 464 1008 q 501 986 494 997 q 510 961 507 975 q 510 933 513 947 q 499 908 507 918 q 481 878 492 894 q 458 847 469 863 q 436 819 447 832 q 418 800 425 807 q 475 795 444 801 q 533 774 506 789 q 607 717 575 750 q 640 635 639 683 q 617 549 642 590 q 557 486 593 508 q 496 456 525 467 q 432 436 467 446 q 354 425 400 428 q 260 424 308 422 q 165 433 211 426 q 83 447 118 439 q 46 468 60 453 q 31 499 32 483 q 41 529 29 515 q 81 547 53 543 q 147 559 111 558 q 210 560 182 560 q 248 569 231 560 q 276 595 265 579 q 288 633 286 611 q 281 678 290 654 l 279 681 q 247 682 272 681 q 196 689 221 683 q 155 706 171 694 q 151 736 139 717 q 189 784 168 761 q 231 829 210 807 q 273 875 253 851 q 307 925 293 899 q 273 931 297 929 q 222 933 249 933 z "},"":{"ha":681,"x_min":39,"x_max":615,"o":"m 457 656 q 486 707 465 689 q 529 722 501 721 q 572 708 557 724 q 600 664 593 692 q 606 617 606 640 q 604 571 606 593 q 603 527 603 549 q 607 485 603 506 q 574 433 615 447 q 530 426 554 426 q 484 430 506 425 q 447 446 463 435 q 426 475 431 457 q 424 517 422 494 q 432 560 426 540 q 370 556 400 557 q 307 553 340 554 q 233 554 274 553 q 142 561 193 556 q 69 582 99 568 q 40 621 39 596 q 47 646 40 631 q 60 677 53 661 q 76 708 68 693 q 89 731 85 722 q 158 848 122 789 q 246 951 194 907 q 294 976 263 965 q 360 988 325 986 q 427 985 394 990 q 479 963 460 979 q 497 942 488 954 q 494 917 506 929 q 414 792 450 858 q 343 663 378 726 q 399 659 368 665 q 454 650 431 653 l 457 657 l 457 656 l 457 656 z "},"":{"ha":722,"x_min":46,"x_max":674,"o":"m 383 613 q 360 605 374 610 q 335 596 347 600 q 313 588 322 592 q 301 583 304 585 q 249 570 278 572 q 196 567 221 568 q 157 569 181 565 q 110 580 133 572 q 70 600 88 588 q 50 632 53 613 q 52 683 46 653 q 69 744 58 713 q 94 808 81 776 q 117 867 107 840 q 192 968 140 931 q 259 991 218 988 q 331 989 300 994 q 375 979 356 985 q 414 956 394 974 q 463 955 443 951 q 502 963 482 958 q 546 972 522 968 q 606 971 569 975 q 639 963 624 968 q 659 940 654 957 q 647 917 664 924 q 597 896 625 903 q 540 887 569 889 q 480 886 510 885 q 425 890 450 888 q 406 852 415 874 q 390 809 397 831 q 376 769 382 788 q 365 738 369 750 q 468 737 415 740 q 568 711 521 733 q 624 675 604 696 q 656 625 643 654 q 671 556 668 594 q 649 493 674 518 q 610 465 632 476 q 563 445 588 453 q 513 433 538 438 q 468 425 489 428 q 406 423 439 421 q 341 428 374 425 q 278 433 308 431 q 222 431 247 435 q 193 434 208 432 q 165 442 178 436 q 140 466 140 451 q 153 493 139 481 q 190 513 167 506 q 236 513 213 519 q 317 502 276 500 q 390 526 358 504 q 403 550 400 533 q 403 583 406 567 q 396 608 401 599 q 383 613 390 618 z "},"":{"ha":751,"x_min":51,"x_max":719,"o":"m 594 976 q 615 961 607 969 q 618 944 622 953 q 598 931 614 936 q 563 926 582 926 q 528 931 544 926 q 507 944 513 936 q 425 871 454 922 q 401 764 396 819 q 489 752 439 761 q 585 725 539 743 q 667 677 632 707 q 713 603 703 647 q 711 545 719 575 q 682 496 703 515 q 547 426 629 447 q 378 409 465 404 q 213 444 292 414 q 86 529 133 475 q 59 578 67 550 q 52 634 51 606 q 60 691 53 663 q 81 743 68 719 q 122 794 96 772 q 172 839 149 817 q 235 895 203 865 q 304 949 268 925 q 379 990 340 974 q 460 1006 418 1006 q 528 1002 499 1006 q 594 976 558 999 m 475 613 q 444 664 469 650 q 393 688 419 678 q 390 651 389 674 q 396 605 390 628 q 411 565 401 582 q 436 546 421 547 q 465 573 451 551 q 475 613 478 594 z "},"":{"ha":676,"x_min":46,"x_max":633,"o":"m 361 882 q 342 881 357 882 q 307 881 326 881 q 263 877 279 881 q 230 870 246 874 q 195 865 214 867 q 144 865 176 863 q 97 873 119 867 q 60 888 74 879 q 46 911 46 897 q 67 943 46 925 q 117 966 82 957 q 192 980 153 975 q 269 988 232 985 q 328 990 307 990 q 394 992 347 990 q 492 991 442 994 q 583 974 543 988 q 629 932 624 961 q 627 876 633 904 q 610 824 621 849 q 593 789 604 808 q 569 749 582 769 q 543 710 557 729 q 519 681 529 692 q 542 670 532 676 q 556 656 553 664 q 554 640 560 649 q 532 625 549 632 q 497 616 515 618 q 460 613 479 614 q 426 569 442 592 q 397 524 411 547 q 381 474 382 499 q 374 421 379 449 q 363 404 372 413 q 342 390 354 396 q 315 379 329 383 q 292 374 301 375 q 222 369 258 367 q 158 379 186 371 q 120 394 142 385 q 89 419 99 403 q 81 481 74 446 q 107 549 89 515 q 149 613 125 583 q 189 663 172 643 q 153 650 174 660 q 114 646 132 640 q 94 651 106 649 q 81 663 83 653 q 92 700 72 688 q 140 718 111 713 q 200 723 169 724 q 243 721 231 722 q 315 794 283 757 q 361 882 346 831 z "},"":{"ha":754,"x_min":31,"x_max":711,"o":"m 543 756 q 623 700 592 733 q 682 622 654 667 q 707 558 703 588 q 703 489 711 528 q 665 423 694 449 q 599 381 636 397 q 519 356 561 364 q 443 344 478 347 q 303 346 369 338 q 169 382 238 354 q 80 444 111 406 q 40 526 49 482 q 41 614 31 569 q 77 694 51 658 q 142 756 103 731 q 229 785 181 781 l 229 786 q 206 802 218 792 q 183 826 193 813 q 169 855 174 840 q 172 885 165 869 q 205 932 185 910 q 249 967 225 954 q 351 1001 297 993 q 452 1000 404 1008 q 538 969 500 992 q 592 915 575 947 q 599 842 608 883 q 543 756 589 801 m 390 451 q 438 470 415 457 q 476 500 460 483 q 499 535 492 517 q 506 569 507 553 q 467 657 499 618 q 392 715 436 696 q 372 701 385 707 q 349 692 360 694 q 313 632 325 660 q 294 567 300 604 q 298 524 292 546 q 317 486 304 503 q 349 459 331 469 q 390 451 368 449 m 404 938 q 384 930 397 936 q 358 913 371 924 q 338 890 346 903 q 335 865 331 878 q 368 823 344 836 q 417 800 392 810 q 438 831 431 813 q 444 865 444 849 q 434 907 444 888 q 404 938 424 926 z "},"":{"ha":708,"x_min":36,"x_max":665,"o":"m 328 619 q 135 660 200 624 q 53 745 69 696 q 60 848 36 794 q 133 942 85 901 q 248 1001 182 983 q 382 997 314 1019 q 413 980 397 990 q 446 968 428 969 q 475 959 460 961 q 506 950 490 957 q 619 863 574 921 q 661 747 657 815 q 645 608 665 678 q 585 478 625 538 q 497 390 546 418 q 452 368 475 378 q 404 351 429 358 q 344 342 379 344 q 272 342 308 339 q 203 353 236 344 q 149 379 169 363 q 131 401 136 389 q 135 428 126 413 q 151 444 140 438 q 176 456 163 451 q 203 464 190 461 q 228 468 217 467 q 260 493 246 476 q 287 531 275 510 q 308 574 299 551 q 325 614 318 596 l 326 615 l 328 619 m 232 839 q 234 798 225 818 q 261 760 243 778 q 301 728 279 743 q 340 703 322 713 q 353 767 351 735 q 353 831 356 800 q 342 890 351 864 q 300 939 332 915 q 262 897 281 924 q 232 839 243 871 z "},"":{"ha":754,"x_min":49,"x_max":708,"o":"m 578 935 q 674 846 642 908 q 707 710 706 783 q 682 566 708 638 q 606 450 656 494 q 500 399 565 415 q 365 383 435 382 q 229 401 294 383 q 125 456 164 419 q 63 557 76 500 q 56 676 49 614 q 69 763 60 724 q 97 837 79 803 q 143 901 115 871 q 213 958 171 931 q 339 989 271 989 q 372 985 350 989 q 410 972 394 982 q 419 942 431 961 q 499 950 453 951 q 578 935 546 949 m 399 500 q 501 585 468 526 q 531 714 533 643 q 523 774 529 743 q 505 831 517 804 q 474 874 493 857 q 431 893 456 892 q 411 899 419 894 q 394 910 403 904 q 372 865 381 885 q 359 821 364 844 q 352 768 354 797 q 350 696 350 739 q 349 633 350 660 q 353 583 349 606 q 367 540 357 560 q 399 500 378 519 z "},"":{"ha":1001,"x_min":32,"x_max":971,"o":"m 769 642 q 697 561 732 601 q 628 481 663 521 q 526 360 575 418 q 429 235 476 303 q 393 181 414 214 q 347 112 372 147 q 293 44 321 76 q 236 -7 265 13 q 208 -17 228 -14 q 167 -20 189 -19 q 124 -21 144 -21 q 94 -21 104 -21 q 69 -14 83 -21 q 46 6 56 -7 q 34 34 36 18 q 44 68 32 50 q 72 110 60 92 q 98 144 85 128 q 126 178 111 161 q 160 215 140 194 q 268 342 215 274 q 372 474 321 411 q 505 627 439 556 q 632 785 571 699 q 663 831 646 806 q 699 878 679 856 q 743 918 719 901 q 794 939 767 935 q 827 942 807 940 q 870 943 847 943 q 914 939 893 943 q 950 926 935 935 q 967 910 964 918 q 969 897 971 903 q 961 885 967 890 q 951 875 956 879 q 903 822 925 851 q 860 762 881 793 q 817 699 839 731 q 769 642 794 668 z "},"":{"ha":1749,"x_min":68,"x_max":1686,"o":"m 482 190 q 506 161 494 176 q 515 126 517 146 q 485 63 514 88 q 413 24 457 38 q 317 9 369 11 q 217 16 265 7 q 132 43 169 25 q 81 88 94 61 q 72 136 68 111 q 89 183 75 161 q 145 224 113 208 q 213 246 178 239 q 285 251 249 253 q 354 239 322 249 l 382 229 q 403 222 389 226 q 434 213 418 218 q 463 202 450 208 q 482 190 476 196 m 1651 190 q 1675 161 1664 176 q 1685 126 1686 146 q 1655 63 1683 88 q 1583 24 1626 38 q 1487 9 1539 11 q 1387 16 1435 7 q 1301 43 1339 25 q 1250 88 1264 61 q 1241 136 1238 111 q 1258 183 1244 161 q 1315 224 1282 208 q 1383 246 1347 239 q 1455 251 1418 253 q 1524 239 1492 249 l 1551 229 q 1573 222 1558 226 q 1603 213 1588 218 q 1633 202 1619 208 q 1651 190 1646 196 m 1067 190 q 1090 161 1079 176 q 1100 126 1101 146 q 1070 63 1099 88 q 998 24 1042 38 q 902 9 954 11 q 802 16 850 7 q 717 43 754 25 q 665 88 679 61 q 656 136 653 111 q 674 183 660 161 q 730 224 697 208 q 798 246 763 239 q 870 251 833 253 q 939 239 907 249 l 967 229 q 988 222 974 226 q 1019 213 1003 218 q 1048 202 1035 208 q 1067 190 1061 196 z "},"":{"ha":813,"x_min":39,"x_max":772,"o":"m 251 776 q 252 855 249 815 q 271 931 256 894 q 310 963 278 950 q 383 980 342 975 q 472 983 425 985 q 556 972 518 982 q 617 946 594 963 q 635 904 640 929 q 631 873 632 894 q 630 828 631 851 q 630 785 629 806 q 631 754 631 764 q 688 744 660 751 q 743 722 717 738 q 765 681 772 704 q 729 647 758 658 q 678 631 706 636 q 636 626 651 626 q 634 369 636 497 q 632 113 632 242 q 630 44 632 78 q 625 -24 628 11 q 617 -155 618 -90 q 614 -286 617 -219 q 590 -322 613 -307 q 534 -344 568 -336 q 460 -352 500 -351 q 383 -345 419 -353 q 321 -321 347 -337 q 288 -278 294 -304 q 272 -147 272 -215 q 268 -15 271 -78 q 264 317 263 151 q 258 649 265 482 l 207 646 q 132 649 172 643 q 63 675 92 656 q 45 694 51 682 q 49 718 39 706 q 86 744 60 733 q 143 763 113 756 q 203 773 174 769 q 251 776 233 776 z "},"":{"ha":801,"x_min":69,"x_max":735,"o":"m 235 571 q 314 586 274 582 q 393 589 354 590 q 403 588 396 589 q 417 586 410 588 q 435 585 425 585 q 448 658 440 617 q 457 742 456 700 q 448 821 458 783 q 407 882 438 858 q 373 849 386 869 q 351 806 360 829 q 340 757 343 782 q 339 710 338 732 q 311 674 340 688 q 242 658 282 661 q 160 660 201 654 q 96 682 118 667 q 72 723 75 697 q 72 771 69 749 q 104 858 79 819 q 165 926 129 897 q 248 972 201 954 q 344 996 294 989 q 438 999 390 1001 q 527 982 485 996 q 606 945 569 968 q 665 889 642 922 q 697 826 685 863 q 716 749 708 789 q 727 668 724 708 q 732 596 731 628 q 728 529 735 564 q 719 463 722 494 q 717 438 718 453 q 714 410 717 424 q 706 384 711 396 q 690 367 700 372 q 628 342 654 347 q 561 339 601 338 q 533 340 550 339 q 497 344 515 342 q 463 353 479 347 q 440 365 447 358 q 344 349 400 354 q 239 350 289 343 q 189 360 214 353 q 143 378 164 367 q 113 399 128 385 q 90 429 99 413 q 79 464 81 446 q 90 497 78 482 q 153 545 118 533 q 235 571 189 557 m 288 446 q 353 464 322 451 q 421 485 385 476 l 429 533 l 422 533 q 340 521 381 535 q 272 472 300 507 q 288 446 272 458 z "},"":{"ha":714,"x_min":56,"x_max":676,"o":"m 431 950 q 539 935 488 950 q 626 872 590 919 q 660 799 650 842 q 674 719 671 757 q 663 601 676 657 q 619 502 650 546 q 541 431 589 458 q 426 396 493 403 q 286 408 356 388 q 185 457 233 425 q 104 535 136 489 q 67 631 78 574 q 60 749 56 689 q 86 863 65 808 q 144 949 107 917 q 218 981 174 974 q 300 990 263 989 q 369 982 332 990 q 431 950 407 974 m 340 692 q 335 582 328 635 q 397 481 343 529 q 502 604 475 529 q 518 758 529 679 q 510 791 515 772 q 495 828 504 810 q 473 861 486 846 q 442 885 460 876 q 414 881 429 885 q 385 875 399 876 q 369 838 375 860 q 359 792 364 817 q 350 742 354 768 q 340 692 346 717 z "},"":{"ha":1528,"x_min":31,"x_max":1468,"o":"m 1067 642 q 994 561 1029 601 q 925 481 960 521 q 823 360 872 418 q 726 235 774 303 q 690 181 711 214 q 644 112 669 147 q 590 44 618 76 q 533 -7 563 13 q 506 -17 525 -14 q 464 -20 486 -19 q 422 -21 442 -21 q 392 -21 401 -21 q 367 -14 381 -21 q 343 6 353 -7 q 331 34 333 18 q 342 68 329 50 q 369 110 357 92 q 395 144 382 128 q 423 178 408 161 q 457 215 438 194 q 565 342 513 274 q 669 474 618 411 q 802 627 736 556 q 929 785 868 699 q 960 831 943 806 q 997 878 976 856 q 1040 918 1017 901 q 1092 939 1064 935 q 1124 942 1104 940 q 1167 943 1144 943 q 1211 939 1190 943 q 1247 926 1232 935 q 1265 910 1261 918 q 1266 897 1268 903 q 1258 885 1264 890 q 1249 875 1253 879 q 1200 822 1222 851 q 1157 762 1178 793 q 1114 699 1136 731 q 1067 642 1092 668 m 472 503 q 508 498 488 501 q 549 490 529 494 q 581 474 569 486 q 593 447 592 461 q 584 422 594 433 q 553 406 574 410 q 505 394 532 399 q 451 388 478 390 q 398 384 424 385 q 354 382 372 383 q 219 377 288 379 q 86 396 151 375 q 41 433 39 411 q 71 465 43 454 q 97 470 82 469 q 125 475 113 471 q 123 532 121 494 q 129 612 125 569 q 138 694 133 654 q 142 760 142 735 l 142 800 q 129 795 138 799 q 110 788 121 792 q 86 781 99 783 q 64 778 74 778 q 47 783 56 778 q 35 796 39 789 q 31 810 31 803 q 40 821 32 817 q 65 833 50 825 q 93 851 79 840 q 118 873 107 861 q 135 896 129 885 q 135 908 132 903 q 140 921 138 914 q 194 969 154 956 q 283 982 235 983 q 376 967 331 981 q 447 932 422 953 q 476 883 467 915 q 489 810 486 850 q 490 724 492 769 q 483 637 488 679 q 476 559 479 594 q 472 503 472 524 m 1310 232 q 1339 283 1318 265 q 1382 299 1354 297 q 1425 285 1410 300 q 1453 240 1446 268 q 1458 193 1458 217 q 1457 147 1458 169 q 1456 103 1456 125 q 1460 61 1456 82 q 1426 10 1468 24 q 1383 2 1407 3 q 1337 6 1358 1 q 1299 22 1315 11 q 1279 51 1283 33 q 1277 94 1275 71 q 1285 136 1279 117 q 1223 132 1253 133 q 1160 130 1193 131 q 1086 131 1126 129 q 994 138 1046 132 q 922 158 951 144 q 893 197 892 172 q 899 222 893 207 q 913 253 906 238 q 929 284 921 269 q 942 307 938 299 q 1011 424 975 365 q 1099 528 1047 483 q 1147 552 1115 542 q 1213 565 1178 563 q 1280 561 1247 567 q 1332 539 1313 556 q 1349 518 1340 531 q 1347 493 1358 506 q 1267 369 1303 435 q 1196 239 1231 303 q 1252 235 1221 242 q 1307 226 1283 229 l 1310 233 l 1310 232 z "},"":{"ha":1771,"x_min":57,"x_max":1644,"o":"m 1093 642 q 1021 561 1056 601 q 951 481 986 521 q 849 360 899 418 q 753 235 800 303 q 717 181 738 214 q 670 112 696 147 q 617 44 644 76 q 560 -7 589 13 q 532 -17 551 -14 q 490 -20 513 -19 q 448 -21 468 -21 q 418 -21 428 -21 q 393 -14 407 -21 q 369 6 379 -7 q 358 34 360 18 q 368 68 356 50 q 396 110 383 92 q 422 144 408 128 q 449 178 435 161 q 483 215 464 194 q 592 342 539 274 q 696 474 644 411 q 828 627 763 556 q 956 785 894 699 q 986 831 969 806 q 1023 878 1003 856 q 1067 918 1043 901 q 1118 939 1090 935 q 1151 942 1131 940 q 1194 943 1171 943 q 1238 939 1217 943 q 1274 926 1258 935 q 1291 910 1288 918 q 1292 897 1294 903 q 1285 885 1290 890 q 1275 875 1279 879 q 1226 822 1249 851 q 1183 762 1204 793 q 1140 699 1163 731 q 1093 642 1118 668 m 499 503 q 535 498 514 501 q 575 490 556 494 q 607 474 596 486 q 619 447 618 461 q 610 422 621 433 q 579 406 600 410 q 531 394 558 399 q 477 388 504 390 q 424 384 450 385 q 381 382 399 383 q 246 377 314 379 q 113 396 178 375 q 67 433 65 411 q 97 465 69 454 q 124 470 108 469 q 151 475 139 471 q 149 532 147 494 q 156 612 151 569 q 164 694 160 654 q 168 760 168 735 l 168 800 q 156 795 164 799 q 136 788 147 792 q 113 781 125 783 q 90 778 100 778 q 74 783 82 778 q 61 796 65 789 q 58 810 57 803 q 67 821 58 817 q 91 833 76 825 q 119 851 106 840 q 144 873 133 861 q 161 896 156 885 q 161 908 158 903 q 167 921 164 914 q 221 969 181 956 q 309 982 261 983 q 403 967 357 981 q 474 932 449 953 q 503 883 493 915 q 515 810 513 850 q 516 724 518 769 q 510 637 514 679 q 502 559 506 594 q 499 503 499 524 m 1168 19 q 1108 32 1133 19 q 1067 64 1082 44 q 1044 105 1051 83 q 1058 142 1038 126 q 1128 210 1093 176 q 1198 278 1164 243 q 1263 352 1232 314 q 1317 433 1293 390 q 1329 460 1324 446 q 1334 489 1335 475 q 1324 512 1333 503 q 1292 521 1314 521 q 1226 500 1256 521 q 1178 436 1196 479 q 1174 419 1175 428 q 1172 401 1174 410 q 1167 385 1171 393 q 1154 372 1164 378 q 1110 368 1136 365 q 1075 375 1085 371 q 1058 390 1061 381 q 1053 413 1056 400 q 1057 476 1046 444 q 1088 533 1068 507 q 1158 582 1111 565 q 1256 606 1206 599 q 1416 605 1339 617 q 1553 561 1493 593 q 1599 526 1578 547 q 1631 480 1619 506 q 1644 426 1643 454 q 1629 369 1644 397 q 1551 242 1600 299 q 1447 136 1503 186 q 1494 130 1461 135 q 1557 117 1528 125 q 1586 100 1578 111 q 1593 77 1594 89 q 1582 56 1592 65 q 1556 43 1572 46 q 1518 35 1538 36 q 1479 33 1499 33 q 1390 31 1429 33 q 1315 26 1350 29 q 1244 22 1279 24 q 1168 19 1210 19 z "},"":{"ha":1543,"x_min":38,"x_max":1460,"o":"m 1058 642 q 986 561 1021 601 q 917 481 951 521 q 815 360 864 418 q 718 235 765 303 q 682 181 703 214 q 635 112 661 147 q 582 44 610 76 q 525 -7 554 13 q 497 -17 517 -14 q 456 -20 478 -19 q 413 -21 433 -21 q 383 -21 393 -21 q 358 -14 372 -21 q 335 6 344 -7 q 323 34 325 18 q 333 68 321 50 q 361 110 349 92 q 387 144 374 128 q 415 178 400 161 q 449 215 429 194 q 557 342 504 274 q 661 474 610 411 q 794 627 728 556 q 921 785 860 699 q 951 831 935 806 q 988 878 968 856 q 1032 918 1008 901 q 1083 939 1056 935 q 1116 942 1096 940 q 1159 943 1136 943 q 1203 939 1182 943 q 1239 926 1224 935 q 1256 910 1253 918 q 1258 897 1260 903 q 1250 885 1256 890 q 1240 875 1244 879 q 1192 822 1214 851 q 1149 762 1169 793 q 1106 699 1128 731 q 1058 642 1083 668 m 1301 232 q 1331 283 1310 265 q 1374 299 1346 297 q 1417 285 1401 300 q 1444 240 1438 268 q 1450 193 1450 217 q 1449 147 1450 169 q 1447 103 1447 125 q 1451 61 1447 82 q 1418 10 1460 24 q 1374 2 1399 3 q 1328 6 1350 1 q 1291 22 1307 11 q 1271 51 1275 33 q 1269 94 1267 71 q 1276 136 1271 117 q 1215 132 1244 133 q 1151 130 1185 131 q 1078 131 1118 129 q 986 138 1038 132 q 913 158 943 144 q 885 197 883 172 q 891 222 885 207 q 905 253 897 238 q 921 284 913 269 q 933 307 929 299 q 1003 424 967 365 q 1090 528 1039 483 q 1138 552 1107 542 q 1204 565 1169 563 q 1272 561 1239 567 q 1324 539 1304 556 q 1341 518 1332 531 q 1339 493 1350 506 q 1258 369 1294 435 q 1188 239 1222 303 q 1244 235 1213 242 q 1299 226 1275 229 l 1301 233 l 1301 232 m 231 933 q 178 929 204 933 q 125 924 153 925 q 92 930 101 922 q 83 948 82 938 q 92 969 83 958 q 115 983 101 979 q 195 1003 151 994 q 288 1008 239 1011 q 340 1010 313 1008 q 394 1012 367 1011 q 447 1010 421 1013 q 493 1001 472 1008 q 509 986 503 997 q 518 961 515 975 q 518 933 521 947 q 507 908 515 918 q 489 878 500 894 q 467 847 478 863 q 444 819 456 832 q 426 800 433 807 q 483 795 453 801 q 542 774 514 789 q 615 717 583 750 q 649 635 647 683 q 626 549 650 590 q 565 486 601 508 q 504 456 533 467 q 440 436 475 446 q 363 425 408 428 q 268 424 317 422 q 173 433 219 426 q 92 447 126 439 q 54 468 68 453 q 39 499 40 483 q 49 529 38 515 q 89 547 61 543 q 155 559 119 558 q 218 560 190 560 q 256 569 239 560 q 284 595 274 579 q 297 633 294 611 q 289 678 299 654 l 288 681 q 255 682 281 681 q 204 689 229 683 q 163 706 179 694 q 160 736 147 717 q 197 784 176 761 q 240 829 218 807 q 281 875 261 851 q 315 925 301 899 q 281 931 306 929 q 231 933 257 933 z "},"":{"ha":553,"x_min":44,"x_max":493,"o":"m 493 426 q 465 363 493 388 q 393 324 436 338 q 297 309 350 311 q 197 316 244 307 q 110 343 149 325 q 58 388 72 361 q 51 446 44 414 q 81 496 57 478 q 181 547 122 532 q 294 547 240 561 q 353 534 319 540 q 419 516 388 528 q 472 483 450 504 q 493 426 493 461 z "},"":{"ha":1082,"x_min":8,"x_max":992,"o":"m 426 871 q 426 808 422 840 q 432 753 429 775 q 507 742 476 753 q 551 701 550 726 q 503 660 553 676 q 435 647 475 651 q 439 588 436 618 q 443 528 442 557 q 447 354 447 440 q 440 181 446 268 q 440 115 438 149 q 438 49 443 81 q 390 1 432 17 q 294 -16 347 -15 q 192 -3 240 -17 q 125 36 143 10 q 116 70 121 42 q 108 131 111 99 q 101 190 104 164 q 99 221 99 217 q 97 297 94 258 q 101 372 100 335 q 100 505 103 439 q 97 638 97 571 q 54 647 78 640 q 19 671 31 654 q 18 697 8 686 q 45 714 28 707 q 81 724 63 721 q 106 731 99 728 q 116 782 108 757 q 133 831 124 807 q 154 881 144 856 q 182 926 164 906 q 310 1008 232 983 q 474 1039 389 1032 q 594 1040 533 1043 q 707 1026 654 1036 q 803 1002 760 1017 q 872 972 846 988 q 929 933 904 953 q 967 889 954 913 q 974 863 972 878 q 972 831 975 847 q 959 800 968 814 q 933 781 950 786 q 856 758 903 764 q 765 757 810 751 q 686 780 721 763 q 646 828 651 797 q 643 879 643 851 q 665 924 643 907 q 596 938 636 935 q 519 935 556 942 q 456 913 483 929 q 426 871 429 897 m 658 685 q 726 699 688 696 q 803 700 764 703 q 878 688 842 697 q 939 664 914 678 q 976 620 969 646 q 988 558 983 594 q 991 460 992 517 q 988 349 990 404 q 983 246 986 293 q 978 174 979 199 q 977 151 978 167 q 975 116 976 135 q 972 81 974 97 q 965 58 969 65 q 917 27 954 39 q 830 10 879 15 q 730 4 781 4 q 642 11 679 4 q 616 24 624 14 q 606 49 608 35 q 603 81 603 64 q 604 118 604 99 q 599 181 601 150 q 599 244 597 213 q 601 294 599 253 q 604 388 603 335 q 605 494 606 440 q 600 583 604 549 q 606 647 594 624 q 658 685 617 669 z "},"":{"ha":1065,"x_min":11,"x_max":1026,"o":"m 424 156 q 416 110 414 133 q 418 65 418 88 q 400 31 418 44 q 358 11 382 18 q 308 2 333 4 q 268 0 283 0 q 228 3 250 0 q 186 12 207 6 q 147 28 165 18 q 119 54 129 39 q 105 115 108 71 q 101 211 101 160 q 103 310 101 263 q 104 383 104 358 q 103 403 104 393 q 103 422 103 413 q 65 433 83 425 q 32 451 47 440 q 14 475 17 464 q 16 497 11 486 q 33 515 21 507 q 58 529 44 524 q 104 540 79 536 l 104 642 l 100 772 q 94 835 99 804 q 90 899 90 867 q 115 938 90 922 q 176 963 139 954 q 258 972 214 971 q 343 967 303 974 q 413 947 383 960 q 451 913 443 933 q 460 881 457 900 q 467 840 464 861 q 472 799 469 819 q 475 764 474 778 q 508 830 490 796 q 550 892 526 864 q 565 910 558 901 q 581 929 572 919 q 660 967 613 961 q 749 965 707 974 q 831 942 790 957 q 899 893 871 928 q 990 714 961 814 q 1022 510 1018 614 q 1004 309 1026 408 q 933 122 982 210 q 858 47 908 76 q 754 13 807 17 q 653 17 697 8 q 571 44 608 25 q 498 91 533 63 q 424 156 463 119 m 617 778 q 582 727 597 754 q 551 674 567 700 q 517 623 535 647 q 478 581 500 599 q 478 553 478 567 q 476 525 478 539 q 523 513 499 521 q 566 495 547 506 q 592 471 585 485 q 586 440 599 457 q 544 411 572 421 q 468 393 511 397 q 458 318 464 356 q 444 243 451 281 q 501 246 474 250 q 554 231 529 242 q 601 203 579 219 q 644 167 624 186 q 657 310 654 233 q 656 467 660 388 q 643 626 653 547 q 617 778 633 706 z "},"":{"ha":1006,"x_min":42,"x_max":957,"o":"m 458 963 q 518 965 481 963 q 583 971 556 968 l 586 971 l 600 1026 q 633 1060 608 1049 q 682 1069 657 1071 q 728 1052 707 1068 q 751 1006 749 1036 q 749 988 751 1001 q 743 957 747 975 q 883 876 826 933 q 949 740 940 819 q 955 569 957 654 q 933 397 953 483 q 892 251 918 324 q 823 120 865 179 q 722 21 781 61 q 583 -28 663 -19 q 573 -28 578 -28 q 564 -29 568 -29 q 530 -94 561 -75 q 458 -107 499 -114 q 399 -82 424 -101 q 382 -10 375 -62 q 356 -3 368 -7 q 331 6 343 1 q 195 72 261 28 q 94 185 129 115 q 64 275 75 229 q 46 368 53 321 q 42 445 42 400 q 46 540 42 490 q 59 640 50 589 q 81 736 68 692 q 108 813 88 778 q 156 874 128 847 q 216 921 183 901 q 282 951 249 940 q 363 963 321 964 q 458 963 406 963 m 731 689 q 717 715 724 703 q 704 738 711 726 q 688 624 696 681 q 669 513 679 568 q 647 365 658 438 q 621 217 635 292 q 603 149 614 182 q 583 83 593 117 l 585 83 q 663 144 628 108 q 722 225 697 181 q 761 320 746 269 q 781 424 776 371 q 775 561 788 493 q 731 689 763 629 m 496 510 q 522 667 507 589 q 553 824 536 746 q 518 822 536 824 q 479 818 500 821 q 461 763 468 794 q 449 695 454 732 q 440 619 443 658 q 435 542 436 579 q 429 411 428 475 q 447 282 431 347 q 476 401 463 344 q 496 510 489 457 z "},"!":{"ha":526,"x_min":64,"x_max":467,"o":"m 315 1001 q 353 997 329 1001 q 400 982 376 992 q 441 958 424 972 q 460 925 458 943 q 465 761 467 844 q 460 597 463 678 q 460 519 461 553 q 458 456 460 486 q 451 396 456 425 q 439 332 446 367 q 410 292 436 308 q 347 269 385 276 q 266 261 310 261 q 185 270 222 261 q 120 296 147 279 q 89 338 93 313 q 72 458 79 400 q 71 583 64 517 l 74 756 l 79 928 q 93 958 79 946 q 126 980 107 971 q 166 994 146 989 q 201 1000 186 999 q 226 1001 210 1001 q 261 1001 243 1001 q 294 1001 279 1001 q 315 1001 310 1001 m 451 125 q 459 106 457 118 q 461 79 461 93 q 460 52 461 65 q 460 32 460 39 q 449 4 460 15 q 424 -15 439 -7 q 393 -29 410 -24 q 364 -37 376 -35 q 297 -47 336 -44 q 217 -44 257 -50 q 142 -25 176 -39 q 92 15 108 -11 q 83 60 79 36 q 90 108 86 85 q 146 176 99 156 q 251 197 193 197 q 366 177 310 196 q 451 125 422 158 z "},"\"":{"ha":756,"x_min":60,"x_max":707,"o":"m 290 697 q 241 678 272 685 q 176 674 210 672 q 113 685 143 676 q 69 714 83 694 q 61 742 63 724 q 61 781 60 761 q 65 819 63 801 q 69 847 68 838 l 78 910 q 83 947 81 931 q 92 973 85 963 q 114 991 100 983 q 153 1003 128 999 q 201 1008 174 1007 q 257 1007 229 1010 q 309 994 285 1004 q 349 965 333 985 q 355 939 354 957 q 353 901 356 921 q 349 863 351 881 q 344 839 346 846 q 339 803 343 824 q 328 762 335 782 q 313 724 322 742 q 290 697 303 707 m 642 697 q 592 678 624 685 q 528 674 561 672 q 465 685 494 676 q 421 714 435 694 q 413 742 414 724 q 413 781 411 761 q 417 819 414 801 q 421 847 419 838 l 429 910 q 434 947 432 931 q 444 973 436 963 q 465 991 451 983 q 504 1003 479 999 q 553 1008 525 1007 q 608 1007 581 1010 q 660 994 636 1004 q 700 965 685 985 q 706 939 706 957 q 705 901 707 921 q 700 863 703 881 q 696 839 697 846 q 690 803 694 824 q 680 762 686 782 q 664 724 674 742 q 642 697 654 707 z "},"#":{"ha":1326,"x_min":68,"x_max":1263,"o":"m 785 828 q 769 790 776 810 q 757 756 763 769 l 828 760 q 851 803 836 776 q 878 857 867 829 q 917 931 894 897 q 988 971 940 964 q 1040 976 1004 975 q 1110 973 1075 978 q 1174 954 1146 968 q 1201 915 1201 940 q 1194 876 1201 900 q 1176 828 1186 853 q 1154 781 1165 803 q 1138 744 1143 758 q 1224 718 1196 732 q 1258 690 1253 704 q 1249 665 1263 676 q 1210 645 1235 653 q 1153 635 1186 638 q 1089 639 1121 633 l 982 400 q 1016 398 993 400 q 1062 390 1039 396 q 1101 374 1085 385 q 1118 346 1118 363 q 1104 323 1117 332 q 1081 310 1092 314 q 1007 294 1044 297 q 933 290 969 290 q 905 228 921 260 q 878 164 889 196 q 869 133 874 151 q 859 95 865 114 q 844 60 853 76 q 825 33 836 43 q 765 7 804 15 q 685 0 726 -1 q 607 14 643 1 q 554 51 571 26 q 547 63 550 58 q 547 75 544 67 q 585 194 565 139 q 632 308 606 249 q 594 310 615 307 q 554 314 572 313 q 521 239 538 276 q 485 165 504 201 q 456 103 469 136 q 425 42 443 69 q 386 14 414 25 q 324 -2 358 3 q 251 -5 289 -7 q 182 6 214 -3 q 129 29 150 14 q 108 65 108 44 q 116 88 108 68 q 135 138 124 108 q 161 199 147 167 q 187 260 175 232 q 207 308 199 289 q 217 331 215 328 l 217 332 l 214 332 l 217 331 q 171 332 192 333 q 125 338 150 331 q 81 359 93 346 q 71 385 68 372 q 91 409 74 399 q 135 424 108 419 q 198 429 168 428 q 261 431 228 431 q 310 535 285 483 q 360 639 335 586 q 326 643 349 640 q 278 652 303 646 q 236 668 254 658 q 218 694 218 678 q 236 733 218 722 q 285 744 254 744 q 319 744 306 744 q 346 744 333 744 q 373 742 358 743 q 408 739 388 740 l 451 833 q 500 910 471 874 q 549 968 529 947 q 595 992 564 985 q 661 1000 626 1000 q 728 993 696 1000 q 781 975 761 986 q 803 947 797 965 q 807 908 808 929 q 799 866 806 888 q 785 828 793 844 m 710 644 q 653 529 682 586 q 600 414 625 472 l 675 410 q 728 529 703 469 q 781 650 754 589 l 710 644 z "},"":{"ha":1047,"x_min":26,"x_max":1025,"o":"m 517 801 q 485 815 496 806 q 472 834 474 824 q 481 853 471 844 q 513 867 490 863 q 540 872 525 869 q 571 878 554 875 q 569 891 569 885 q 569 904 569 897 q 610 954 568 936 q 708 977 651 972 q 824 973 765 982 q 918 943 883 964 q 944 909 939 929 q 956 868 950 889 q 988 858 972 864 q 1012 847 1003 853 q 1023 833 1021 840 q 1017 815 1025 825 q 976 796 1001 800 q 968 793 971 793 q 978 640 976 719 q 976 481 979 560 q 969 325 974 401 q 960 183 964 249 q 959 150 960 172 q 957 105 958 128 q 953 62 956 82 q 946 35 950 42 q 911 6 935 18 q 860 -12 888 -6 q 806 -20 833 -18 q 758 -22 778 -22 q 708 -19 736 -22 q 654 -10 681 -17 q 606 8 628 -4 q 572 40 583 19 q 564 70 561 60 q 567 101 567 81 q 512 50 539 76 q 451 8 485 24 q 394 -7 428 -3 q 333 -10 360 -11 q 217 11 275 -8 q 118 74 158 31 q 83 110 100 93 q 53 151 65 126 q 30 238 33 189 q 32 338 26 286 q 51 442 38 390 q 79 536 64 493 q 107 604 90 568 q 153 661 124 640 q 260 720 207 700 q 383 751 314 740 q 492 751 439 760 q 586 724 546 743 q 584 758 585 740 q 581 793 583 775 q 517 801 546 796 m 490 674 q 458 556 476 611 q 428 429 439 500 q 419 287 417 358 q 425 144 422 215 q 465 180 447 164 q 500 210 483 196 q 534 238 517 224 q 575 267 551 251 q 582 417 578 342 q 589 568 586 492 q 570 603 582 585 q 544 636 558 621 q 515 662 529 651 q 490 674 500 672 z "},"":{"ha":660,"x_min":35,"x_max":617,"o":"m 557 758 q 603 731 589 747 q 614 696 617 714 q 591 661 611 678 q 535 635 571 644 q 487 625 514 628 q 430 622 460 622 q 371 622 400 621 q 317 626 342 624 q 270 619 300 622 q 207 617 240 617 q 141 624 174 618 q 85 642 108 629 q 55 666 68 650 q 38 700 42 682 q 43 734 35 718 q 75 758 51 750 q 124 776 97 769 q 179 786 151 783 q 374 790 278 793 q 557 758 471 786 z "},"":{"ha":897,"x_min":26,"x_max":864,"o":"m 417 144 q 448 199 433 172 q 472 256 463 226 q 484 318 481 285 q 483 392 488 351 q 373 388 435 385 q 251 406 311 390 q 140 453 190 422 q 65 533 90 485 q 31 653 36 592 q 44 776 26 715 q 85 849 57 818 q 148 903 113 879 q 223 947 183 928 q 299 988 263 967 q 440 1020 365 1013 q 581 1017 515 1028 q 704 969 647 1004 q 804 879 761 933 q 860 749 856 813 q 836 640 864 686 q 781 600 818 611 q 701 590 743 589 q 622 599 660 590 q 563 615 583 607 q 526 636 538 625 q 514 660 515 647 q 518 688 513 672 q 532 725 524 704 q 559 778 543 754 q 585 831 575 803 q 588 873 593 853 q 568 908 582 893 q 535 931 554 922 q 494 939 515 939 q 457 933 478 939 q 418 918 436 928 q 388 893 400 908 q 376 858 376 878 q 388 806 378 833 q 401 751 397 778 q 408 693 407 719 q 413 642 410 667 q 423 594 415 617 q 447 546 431 571 q 566 535 503 539 q 683 507 629 531 q 728 476 708 496 q 760 433 747 457 q 783 382 774 410 q 800 328 793 354 q 808 256 808 293 q 797 182 807 218 q 769 113 788 146 q 722 54 750 79 q 674 22 703 35 q 613 1 646 10 q 542 -10 579 -7 q 471 -11 506 -12 q 351 6 408 -8 q 250 51 294 19 q 201 83 226 68 q 152 115 175 97 q 110 153 129 132 q 83 206 92 175 q 82 237 79 219 q 92 270 85 254 q 112 299 100 286 q 139 317 124 313 q 230 333 185 336 q 307 315 275 329 q 343 291 336 303 q 343 267 350 279 q 319 243 336 256 q 282 218 301 231 q 301 188 288 200 q 334 166 315 175 q 374 152 353 157 q 417 144 396 147 m 513 1226 q 534 1249 521 1233 q 562 1283 547 1265 q 589 1314 576 1300 q 607 1331 601 1328 q 633 1340 617 1335 q 667 1348 649 1344 q 704 1351 686 1351 q 738 1347 722 1351 q 762 1325 753 1342 q 760 1290 771 1308 q 735 1251 751 1275 q 699 1203 718 1226 q 660 1158 679 1179 q 631 1129 642 1138 q 622 1107 632 1117 q 599 1090 613 1097 q 569 1078 585 1083 q 546 1071 554 1072 q 378 1074 458 1050 q 232 1157 299 1099 q 192 1205 208 1178 q 158 1256 176 1232 q 147 1294 144 1275 q 171 1324 149 1313 q 203 1338 185 1332 q 241 1346 222 1343 q 276 1349 260 1349 q 304 1350 293 1350 q 356 1346 329 1350 q 406 1332 382 1342 q 451 1307 431 1322 q 485 1268 472 1292 q 497 1247 492 1257 q 513 1226 503 1236 z "},"":{"ha":965,"x_min":58,"x_max":919,"o":"m 793 -183 q 835 -181 814 -183 q 875 -178 857 -178 q 905 -184 893 -178 q 918 -208 917 -190 q 904 -240 919 -228 q 864 -261 889 -253 q 809 -274 839 -269 q 750 -279 779 -278 q 697 -281 721 -281 q 661 -279 672 -281 q 512 -237 560 -269 q 482 -136 464 -206 q 517 -82 489 -107 q 569 -40 546 -57 q 624 -6 597 -21 q 675 25 650 10 q 671 28 674 25 q 643 63 647 42 q 642 107 639 83 l 642 303 q 518 314 579 303 q 390 325 457 325 l 400 254 q 406 210 401 239 q 415 149 411 181 q 423 90 419 118 q 426 50 426 63 q 394 9 426 24 q 315 -10 361 -6 q 219 -7 269 -14 q 135 17 169 0 q 106 53 110 29 q 96 100 101 78 q 63 382 68 240 q 85 663 58 524 q 147 811 100 744 q 261 924 194 878 q 366 971 304 956 q 493 984 428 986 q 621 965 558 982 q 728 915 683 947 q 808 832 775 881 q 861 728 842 783 q 890 576 886 653 q 893 419 893 500 q 893 340 893 383 q 894 253 893 297 q 894 165 894 208 q 894 82 894 121 q 892 52 894 67 q 874 32 890 38 q 782 -1 829 0 q 763 -22 772 -11 q 746 -44 753 -33 q 721 -142 706 -103 q 793 -183 736 -182 m 386 390 q 440 398 407 397 q 510 397 474 399 q 581 393 547 396 q 639 390 615 390 q 632 514 635 449 q 618 643 629 579 q 580 763 607 707 q 500 860 553 819 q 438 758 461 815 q 401 640 414 701 q 386 514 389 578 q 386 390 383 450 z "},"":{"ha":965,"x_min":58,"x_max":894,"o":"m 400 254 q 406 210 401 239 q 415 149 411 181 q 423 90 419 118 q 426 50 426 63 q 394 9 426 24 q 315 -10 361 -6 q 219 -7 269 -14 q 135 17 169 0 q 106 53 110 29 q 96 100 101 78 q 63 382 68 240 q 85 663 58 524 q 147 811 100 744 q 261 924 194 878 q 366 971 304 956 q 493 984 428 986 q 621 965 558 982 q 728 915 683 947 q 808 832 775 881 q 861 728 842 783 q 890 576 886 653 q 893 419 893 500 q 893 340 893 383 q 894 253 893 297 q 894 165 894 208 q 894 82 894 121 q 892 52 894 67 q 874 32 890 38 q 773 -1 826 -3 q 671 28 719 0 q 643 63 647 42 q 642 107 639 83 l 642 303 q 518 314 579 303 q 390 325 457 325 l 400 254 m 386 390 q 440 398 407 397 q 510 397 474 399 q 581 393 547 396 q 639 390 615 390 q 632 514 635 449 q 618 643 629 579 q 580 763 607 707 q 500 860 553 819 q 438 758 461 815 q 401 640 414 701 q 386 514 389 578 q 386 390 383 450 m 713 1225 q 675 1188 692 1208 q 642 1145 658 1167 q 609 1102 626 1124 q 571 1064 592 1081 q 511 1040 550 1049 q 431 1031 472 1031 q 353 1043 389 1032 q 301 1078 317 1054 q 299 1103 290 1093 q 317 1125 307 1114 q 349 1165 335 1144 q 381 1206 364 1186 q 397 1224 386 1211 q 418 1249 407 1236 q 440 1274 429 1263 q 457 1289 451 1285 q 503 1307 476 1300 q 557 1316 529 1314 q 612 1317 585 1318 q 660 1310 639 1315 q 686 1300 671 1307 q 714 1285 701 1293 q 731 1255 732 1272 q 713 1225 729 1238 z "},"":{"ha":965,"x_min":58,"x_max":894,"o":"m 400 254 q 406 210 401 239 q 415 149 411 181 q 423 90 419 118 q 426 50 426 63 q 394 9 426 24 q 315 -10 361 -6 q 219 -7 269 -14 q 135 17 169 0 q 106 53 110 29 q 96 100 101 78 q 63 382 68 240 q 85 663 58 524 q 147 811 100 744 q 261 924 194 878 q 366 971 304 956 q 493 984 428 986 q 621 965 558 982 q 728 915 683 947 q 808 832 775 881 q 861 728 842 783 q 890 576 886 653 q 893 419 893 500 q 893 340 893 383 q 894 253 893 297 q 894 165 894 208 q 894 82 894 121 q 892 52 894 67 q 874 32 890 38 q 773 -1 826 -3 q 671 28 719 0 q 643 63 647 42 q 642 107 639 83 l 642 303 q 518 314 579 303 q 390 325 457 325 l 400 254 m 386 390 q 440 398 407 397 q 510 397 474 399 q 581 393 547 396 q 639 390 615 390 q 632 514 635 449 q 618 643 629 579 q 580 763 607 707 q 500 860 553 819 q 438 758 461 815 q 401 640 414 701 q 386 514 389 578 q 386 390 383 450 m 542 1119 q 508 1079 525 1099 q 469 1044 490 1060 q 408 1023 449 1031 q 324 1017 368 1015 q 244 1029 281 1018 q 193 1065 207 1040 q 188 1083 189 1072 q 193 1101 186 1093 q 240 1157 219 1129 q 282 1217 261 1185 q 301 1247 292 1233 q 326 1272 311 1261 q 372 1296 346 1286 q 426 1310 397 1306 q 485 1314 456 1315 q 542 1307 515 1313 q 607 1285 576 1299 q 661 1243 638 1272 q 684 1204 675 1225 q 701 1163 693 1183 q 719 1122 710 1142 q 744 1085 728 1101 q 765 1046 764 1065 q 731 1024 767 1026 q 704 1019 717 1021 q 686 1018 692 1018 q 631 1026 651 1018 q 597 1047 611 1033 q 572 1080 583 1061 q 542 1119 560 1099 z "},"":{"ha":965,"x_min":58,"x_max":894,"o":"m 400 254 q 406 210 401 239 q 415 149 411 181 q 423 90 419 118 q 426 50 426 63 q 394 9 426 24 q 315 -10 361 -6 q 219 -7 269 -14 q 135 17 169 0 q 106 53 110 29 q 96 100 101 78 q 63 382 68 240 q 85 663 58 524 q 147 811 100 744 q 261 924 194 878 q 366 971 304 956 q 493 984 428 986 q 621 965 558 982 q 728 915 683 947 q 808 832 775 881 q 861 728 842 783 q 890 576 886 653 q 893 419 893 500 q 893 340 893 383 q 894 253 893 297 q 894 165 894 208 q 894 82 894 121 q 892 52 894 67 q 874 32 890 38 q 773 -1 826 -3 q 671 28 719 0 q 643 63 647 42 q 642 107 639 83 l 642 303 q 518 314 579 303 q 390 325 457 325 l 400 254 m 386 390 q 440 398 407 397 q 510 397 474 399 q 581 393 547 396 q 639 390 615 390 q 632 514 635 449 q 618 643 629 579 q 580 763 607 707 q 500 860 553 819 q 438 758 461 815 q 401 640 414 701 q 386 514 389 578 q 386 390 383 450 m 458 1140 q 512 1098 479 1108 q 569 1104 544 1088 q 610 1157 604 1128 q 606 1217 617 1186 q 605 1247 599 1233 q 625 1269 611 1261 q 693 1284 657 1289 q 760 1258 729 1279 q 778 1228 775 1247 q 785 1194 782 1210 q 765 1114 790 1153 q 703 1056 740 1075 q 597 1024 654 1032 q 476 1018 539 1015 q 313 1045 393 1021 q 171 1131 232 1069 q 142 1195 144 1157 q 161 1265 140 1233 q 215 1297 176 1288 q 299 1307 254 1307 q 386 1297 344 1307 q 449 1268 428 1286 q 459 1243 460 1257 q 451 1218 458 1229 q 445 1181 443 1206 q 458 1140 447 1156 z "},"":{"ha":965,"x_min":58,"x_max":894,"o":"m 400 254 q 406 210 401 239 q 415 149 411 181 q 423 90 419 118 q 426 50 426 63 q 394 9 426 24 q 315 -10 361 -6 q 219 -7 269 -14 q 135 17 169 0 q 106 53 110 29 q 96 100 101 78 q 63 382 68 240 q 85 663 58 524 q 147 811 100 744 q 261 924 194 878 q 366 971 304 956 q 493 984 428 986 q 621 965 558 982 q 728 915 683 947 q 808 832 775 881 q 861 728 842 783 q 890 576 886 653 q 893 419 893 500 q 893 340 893 383 q 894 253 893 297 q 894 165 894 208 q 894 82 894 121 q 892 52 894 67 q 874 32 890 38 q 773 -1 826 -3 q 671 28 719 0 q 643 63 647 42 q 642 107 639 83 l 642 303 q 518 314 579 303 q 390 325 457 325 l 400 254 m 386 390 q 440 398 407 397 q 510 397 474 399 q 581 393 547 396 q 639 390 615 390 q 632 514 635 449 q 618 643 629 579 q 580 763 607 707 q 500 860 553 819 q 438 758 461 815 q 401 640 414 701 q 386 514 389 578 q 386 390 383 450 m 396 1182 q 440 1156 419 1172 q 460 1111 460 1139 q 438 1058 460 1079 q 383 1024 417 1036 q 309 1010 350 1013 q 229 1013 268 1007 q 158 1032 190 1018 q 110 1067 126 1046 q 99 1088 103 1076 q 93 1110 96 1099 q 99 1167 85 1143 q 143 1204 114 1190 q 210 1222 172 1218 q 284 1224 247 1226 q 351 1210 321 1221 q 396 1182 381 1199 m 840 1089 q 821 1049 842 1065 q 767 1023 800 1032 q 694 1013 733 1014 q 619 1021 654 1013 q 558 1046 583 1029 q 526 1089 532 1063 q 532 1153 518 1126 q 572 1197 546 1181 q 631 1222 597 1214 q 698 1228 665 1229 q 758 1219 731 1228 q 797 1193 785 1210 q 826 1145 815 1169 q 840 1089 838 1121 z "},"":{"ha":965,"x_min":58,"x_max":894,"o":"m 400 254 q 406 210 401 239 q 415 149 411 181 q 423 90 419 118 q 426 50 426 63 q 394 9 426 24 q 315 -10 361 -6 q 219 -7 269 -14 q 135 17 169 0 q 106 53 110 29 q 96 100 101 78 q 63 382 68 240 q 85 663 58 524 q 147 811 100 744 q 261 924 194 878 q 366 971 304 956 q 493 984 428 986 q 621 965 558 982 q 728 915 683 947 q 808 832 775 881 q 861 728 842 783 q 890 576 886 653 q 893 419 893 500 q 893 340 893 383 q 894 253 893 297 q 894 165 894 208 q 894 82 894 121 q 892 52 894 67 q 874 32 890 38 q 773 -1 826 -3 q 671 28 719 0 q 643 63 647 42 q 642 107 639 83 l 642 303 q 518 314 579 303 q 390 325 457 325 l 400 254 m 386 390 q 440 398 407 397 q 510 397 474 399 q 581 393 547 396 q 639 390 615 390 q 632 514 635 449 q 618 643 629 579 q 580 763 607 707 q 500 860 553 819 q 438 758 461 815 q 401 640 414 701 q 386 514 389 578 q 386 390 383 450 m 699 1097 q 702 1068 710 1082 q 682 1046 694 1054 q 635 1025 663 1032 q 576 1017 607 1018 q 517 1018 546 1015 q 465 1026 488 1021 q 417 1047 438 1033 q 375 1079 396 1060 q 348 1103 365 1088 q 312 1138 331 1119 q 277 1174 293 1156 q 256 1204 261 1192 q 250 1222 251 1211 q 256 1239 249 1232 q 294 1266 271 1256 q 346 1281 318 1276 q 402 1286 374 1286 q 456 1282 431 1286 q 540 1247 507 1275 q 590 1194 572 1218 q 619 1172 603 1185 q 650 1147 635 1160 q 678 1120 665 1133 q 699 1097 690 1107 z "},"":{"ha":965,"x_min":58,"x_max":894,"o":"m 400 254 q 406 210 401 239 q 415 149 411 181 q 423 90 419 118 q 426 50 426 63 q 394 9 426 24 q 315 -10 361 -6 q 219 -7 269 -14 q 135 17 169 0 q 106 53 110 29 q 96 100 101 78 q 63 382 68 240 q 85 663 58 524 q 147 811 100 744 q 261 924 194 878 q 366 971 304 956 q 493 984 428 986 q 621 965 558 982 q 728 915 683 947 q 808 832 775 881 q 861 728 842 783 q 890 576 886 653 q 893 419 893 500 q 893 340 893 383 q 894 253 893 297 q 894 165 894 208 q 894 82 894 121 q 892 52 894 67 q 874 32 890 38 q 773 -1 826 -3 q 671 28 719 0 q 643 63 647 42 q 642 107 639 83 l 642 303 q 518 314 579 303 q 390 325 457 325 l 400 254 m 386 390 q 440 398 407 397 q 510 397 474 399 q 581 393 547 396 q 639 390 615 390 q 632 514 635 449 q 618 643 629 579 q 580 763 607 707 q 500 860 553 819 q 438 758 461 815 q 401 640 414 701 q 386 514 389 578 q 386 390 383 450 m 311 1067 q 295 1048 313 1054 q 256 1041 278 1042 q 212 1045 233 1040 q 185 1061 190 1050 q 172 1106 174 1082 q 178 1153 171 1131 q 199 1197 186 1176 q 231 1232 213 1218 q 299 1263 261 1251 q 376 1276 336 1274 q 453 1269 415 1278 q 524 1243 492 1261 q 573 1208 551 1226 q 618 1167 594 1190 q 632 1198 626 1182 q 646 1229 638 1214 q 676 1255 657 1249 q 715 1256 694 1261 q 751 1238 735 1251 q 775 1201 768 1224 q 772 1145 783 1176 q 735 1068 761 1114 q 693 1029 721 1042 q 597 1013 649 1011 q 496 1032 546 1015 q 402 1077 446 1049 q 329 1140 358 1106 q 311 1067 307 1110 z "},"":{"ha":965,"x_min":58,"x_max":894,"o":"m 400 254 q 406 210 401 239 q 415 149 411 181 q 423 90 419 118 q 426 50 426 63 q 394 9 426 24 q 315 -10 361 -6 q 219 -7 269 -14 q 135 17 169 0 q 106 53 110 29 q 96 100 101 78 q 63 382 68 240 q 85 663 58 524 q 147 811 100 744 q 261 924 194 878 q 366 971 304 956 q 493 984 428 986 q 621 965 558 982 q 728 915 683 947 q 808 832 775 881 q 861 728 842 783 q 890 576 886 653 q 893 419 893 500 q 893 340 893 383 q 894 253 893 297 q 894 165 894 208 q 894 82 894 121 q 892 52 894 67 q 874 32 890 38 q 773 -1 826 -3 q 671 28 719 0 q 643 63 647 42 q 642 107 639 83 l 642 303 q 518 314 579 303 q 390 325 457 325 l 400 254 m 386 390 q 440 398 407 397 q 510 397 474 399 q 581 393 547 396 q 639 390 615 390 q 632 514 635 449 q 618 643 629 579 q 580 763 607 707 q 500 860 553 819 q 438 758 461 815 q 401 640 414 701 q 386 514 389 578 q 386 390 383 450 m 542 1003 q 421 1008 482 996 q 313 1047 360 1019 q 245 1117 267 1074 q 243 1219 224 1161 q 269 1278 253 1246 q 306 1329 285 1310 q 485 1401 386 1401 q 527 1394 508 1401 q 560 1377 546 1388 q 586 1356 575 1367 q 607 1338 597 1344 q 669 1314 642 1331 q 713 1273 696 1297 q 735 1219 729 1249 q 735 1160 742 1190 q 669 1051 719 1092 q 542 1003 618 1011 m 568 1183 q 565 1239 578 1214 q 529 1279 553 1264 q 503 1232 514 1253 q 489 1186 492 1211 q 488 1140 486 1161 q 510 1103 490 1119 q 544 1133 532 1114 q 568 1183 557 1153 z "},"":{"ha":965,"x_min":58,"x_max":894,"o":"m 400 254 q 406 210 401 239 q 415 149 411 181 q 423 90 419 118 q 426 50 426 63 q 394 9 426 24 q 315 -10 361 -6 q 219 -7 269 -14 q 135 17 169 0 q 106 53 110 29 q 96 100 101 78 q 63 382 68 240 q 85 663 58 524 q 147 811 100 744 q 261 924 194 878 q 366 971 304 956 q 493 984 428 986 q 621 965 558 982 q 728 915 683 947 q 808 832 775 881 q 861 728 842 783 q 890 576 886 653 q 893 419 893 500 q 893 340 893 383 q 894 253 893 297 q 894 165 894 208 q 894 82 894 121 q 892 52 894 67 q 874 32 890 38 q 773 -1 826 -3 q 671 28 719 0 q 643 63 647 42 q 642 107 639 83 l 642 303 q 518 314 579 303 q 390 325 457 325 l 400 254 m 386 390 q 440 398 407 397 q 510 397 474 399 q 581 393 547 396 q 639 390 615 390 q 632 514 635 449 q 618 643 629 579 q 580 763 607 707 q 500 860 553 819 q 438 758 461 815 q 401 640 414 701 q 386 514 389 578 q 386 390 383 450 m 696 1156 q 742 1128 728 1144 q 753 1093 756 1111 q 730 1058 750 1075 q 674 1032 710 1042 q 626 1022 653 1025 q 569 1019 599 1019 q 510 1019 539 1018 q 456 1024 481 1021 q 409 1017 439 1019 q 346 1015 379 1014 q 280 1021 313 1015 q 224 1039 247 1026 q 194 1063 207 1047 q 177 1097 181 1079 q 182 1131 174 1115 q 214 1156 190 1147 q 263 1174 236 1167 q 318 1183 290 1181 q 513 1187 417 1190 q 696 1156 610 1183 z "},"":{"ha":950,"x_min":46,"x_max":931,"o":"m 579 386 q 603 433 576 415 q 667 457 629 450 q 748 463 706 464 q 821 451 790 461 q 873 420 850 442 q 897 368 896 399 q 886 322 899 343 q 854 286 874 301 q 828 174 843 226 q 769 76 814 121 q 613 -11 703 10 q 506 -21 563 -22 q 394 -7 450 -19 q 288 28 339 6 q 194 83 236 51 q 166 107 182 93 q 134 138 150 121 q 106 171 118 154 q 88 203 93 188 q 64 292 74 239 q 50 403 54 346 q 47 515 46 461 q 54 607 47 569 q 69 683 60 640 q 93 768 78 726 q 130 847 108 810 q 182 908 151 885 q 296 960 229 946 q 443 982 363 975 q 563 987 497 988 q 690 972 628 986 q 806 928 753 958 q 886 846 858 897 q 919 763 908 806 q 919 676 931 721 q 894 642 915 656 q 842 620 874 628 q 775 610 811 613 q 706 613 739 608 q 646 630 672 618 q 610 660 619 642 q 604 691 601 675 q 614 723 607 707 q 630 755 621 739 q 643 788 639 771 q 626 856 653 828 q 563 892 599 885 q 528 881 543 896 q 500 844 513 867 q 478 799 488 822 q 461 763 469 776 q 437 646 446 714 q 426 506 428 578 q 428 367 424 435 q 446 251 433 299 q 478 174 457 211 q 549 100 500 136 q 614 185 593 136 q 635 292 635 233 q 596 334 610 315 q 579 386 582 353 m 757 1217 q 719 1179 736 1200 q 687 1137 703 1158 q 653 1094 671 1115 q 615 1056 636 1072 q 556 1031 594 1040 q 475 1023 517 1022 q 397 1035 433 1024 q 346 1069 361 1046 q 343 1095 335 1085 q 361 1117 351 1106 q 394 1157 379 1136 q 425 1197 408 1178 q 441 1215 431 1203 q 463 1241 451 1228 q 485 1265 474 1254 q 501 1281 496 1276 q 547 1299 521 1292 q 601 1308 574 1306 q 656 1308 629 1310 q 704 1301 683 1307 q 731 1292 715 1299 q 758 1276 746 1285 q 775 1247 776 1264 q 757 1217 774 1229 z "},"":{"ha":950,"x_min":46,"x_max":931,"o":"m 415 -214 q 356 -208 385 -214 q 326 -181 326 -201 q 347 -103 328 -153 q 388 -4 365 -53 q 284 29 333 7 q 194 83 235 51 q 166 107 182 93 q 134 138 150 121 q 106 171 118 154 q 88 203 93 188 q 64 292 74 239 q 50 403 54 346 q 47 515 46 461 q 54 607 47 569 q 69 683 60 640 q 93 768 78 726 q 130 847 108 810 q 182 908 151 885 q 296 960 229 946 q 443 982 363 975 q 563 987 497 988 q 690 972 628 986 q 806 928 753 958 q 886 846 858 897 q 919 763 908 806 q 919 676 931 721 q 894 642 915 656 q 842 620 874 628 q 775 610 811 613 q 706 613 739 608 q 646 630 672 618 q 610 660 619 642 q 604 691 601 675 q 614 723 607 707 q 630 755 621 739 q 643 788 639 771 q 626 856 653 828 q 563 892 599 885 q 528 881 543 896 q 500 844 513 867 q 478 799 488 822 q 461 763 469 776 q 437 646 446 714 q 426 506 428 578 q 428 367 424 435 q 446 251 433 299 q 478 174 457 211 q 549 100 500 136 q 614 185 593 136 q 635 292 635 233 q 596 334 610 315 q 579 386 582 353 q 603 433 576 415 q 667 457 629 450 q 748 463 706 464 q 821 451 790 461 q 873 420 850 442 q 897 368 896 399 q 886 322 899 343 q 854 286 874 301 q 828 174 843 226 q 769 76 814 121 q 613 -11 703 10 q 569 -18 590 -15 q 524 -21 547 -21 q 503 -82 511 -49 q 566 -78 529 -78 q 641 -83 603 -78 q 717 -100 679 -89 q 783 -131 754 -111 q 831 -178 813 -150 q 849 -243 849 -206 q 830 -310 849 -283 q 783 -356 811 -337 q 720 -383 754 -374 q 656 -400 686 -393 q 580 -412 619 -408 q 499 -415 540 -415 q 416 -410 457 -414 q 339 -399 375 -406 q 303 -383 317 -394 q 290 -360 290 -372 q 306 -335 290 -347 q 357 -315 321 -322 q 467 -306 393 -308 q 483 -251 478 -278 q 482 -199 489 -224 q 453 -210 464 -207 q 415 -214 442 -214 z "},"":{"ha":950,"x_min":46,"x_max":931,"o":"m 579 386 q 603 433 576 415 q 667 457 629 450 q 748 463 706 464 q 821 451 790 461 q 873 420 850 442 q 897 368 896 399 q 886 322 899 343 q 854 286 874 301 q 828 174 843 226 q 769 76 814 121 q 613 -11 703 10 q 506 -21 563 -22 q 394 -7 450 -19 q 288 28 339 6 q 194 83 236 51 q 166 107 182 93 q 134 138 150 121 q 106 171 118 154 q 88 203 93 188 q 64 292 74 239 q 50 403 54 346 q 47 515 46 461 q 54 607 47 569 q 69 683 60 640 q 93 768 78 726 q 130 847 108 810 q 182 908 151 885 q 296 960 229 946 q 443 982 363 975 q 563 987 497 988 q 690 972 628 986 q 806 928 753 958 q 886 846 858 897 q 919 763 908 806 q 919 676 931 721 q 894 642 915 656 q 842 620 874 628 q 775 610 811 613 q 706 613 739 608 q 646 630 672 618 q 610 660 619 642 q 604 691 601 675 q 614 723 607 707 q 630 755 621 739 q 643 788 639 771 q 626 856 653 828 q 563 892 599 885 q 528 881 543 896 q 500 844 513 867 q 478 799 488 822 q 461 763 469 776 q 437 646 446 714 q 426 506 428 578 q 428 367 424 435 q 446 251 433 299 q 478 174 457 211 q 549 100 500 136 q 614 185 593 136 q 635 292 635 233 q 596 334 610 315 q 579 386 582 353 m 550 1194 q 572 1217 558 1201 q 599 1251 585 1233 q 626 1282 614 1268 q 644 1299 639 1296 q 670 1308 654 1303 q 705 1316 686 1313 q 742 1319 724 1319 q 775 1315 760 1319 q 799 1293 790 1310 q 797 1258 808 1276 q 772 1219 789 1243 q 736 1171 756 1194 q 698 1126 717 1147 q 668 1097 679 1106 q 660 1075 669 1085 q 636 1058 650 1065 q 607 1046 622 1051 q 583 1039 592 1040 q 416 1042 496 1018 q 269 1125 336 1067 q 230 1173 246 1146 q 196 1224 214 1200 q 184 1262 182 1243 q 208 1292 186 1281 q 241 1306 222 1300 q 278 1314 260 1311 q 314 1317 297 1317 q 342 1318 331 1318 q 393 1314 367 1318 q 444 1300 419 1310 q 489 1275 468 1290 q 522 1236 510 1260 q 535 1215 529 1225 q 550 1194 540 1204 z "}}}
